<?xml version="1.0" standalone="no"?>
<!DOCTYPE svg PUBLIC "-//W3C//DTD SVG 1.1//EN" "http://www.w3.org/Graphics/SVG/1.1/DTD/svg11.dtd" >
<svg xmlns="http://www.w3.org/2000/svg">
<metadata></metadata>
<defs>
<font id="BlockBertholdRegular" horiz-adv-x="1323" >
<font-face units-per-em="2048" ascent="1638" descent="-410" />
<missing-glyph horiz-adv-x="425" />
<glyph horiz-adv-x="0" />
<glyph horiz-adv-x="2048" />
<glyph unicode="&#xd;" horiz-adv-x="425" />
<glyph unicode=" "  horiz-adv-x="425" />
<glyph unicode="&#x09;" horiz-adv-x="425" />
<glyph unicode="&#xa0;" horiz-adv-x="425" />
<glyph unicode="!" horiz-adv-x="811" d="M82 1229q0 69 10 101q22 70 48 86q22 13 30 19.5t14 9.5q18 9 49 9l52 -2q23 -2 51.5 -3t55 -2t44.5 -1h19l51 2q16 2 32 2h21q59 0 88 -23.5t46 -51t28.5 -59.5t11.5 -119t-15 -151.5t-24 -102.5q-14 -54 -14 -99v-166l-8 -158q-4 -23 -4 -33v-43q0 -12 -18.5 -36.5 t-29.5 -30.5q-20 -10 -75 -10l-72 6h-22l-54 2l-45 -2l-51 4l-29 -2l-30 -4q-31 0 -52 14q-20 16 -29 32.5t-11 70.5q-4 112 -9.5 154t-9.5 75t-8 56t-3 43t-1 37t-3 30.5t-2 27.5t-1 26.5t-1 26t-2 28t-3.5 30.5t-3.5 27.5t-2 22.5q-2 19 -7 50q-12 64 -12 107zM147 201 q0 41 5 56q16 54 71 54q25 0 49 -4h27l78 -4l102 4l64 -2l59 4q66 0 66 -65l-2 -43v-31q6 -24 6 -47v-27q0 -4 -5 -28.5t-12.5 -37t-29.5 -21.5q-27 -11 -80 -11l-60 2l-63 -4l-66 4l-28 -2l-23 2l-26 -2q-129 0 -129 74l2 49z" />
<glyph unicode="&#x22;" horiz-adv-x="1236" d="M242 1378v17q0 70 52 109q42 30 80.5 30t63.5 -6t46 -20q51 -35 51 -105v-15q0 -8 -5 -18l-108 -534h-64l-112 512q-4 16 -4 30zM668 1378v17q0 70 52 109q42 30 80.5 30t63.5 -6t46 -20q51 -35 51 -105v-15q0 -8 -5 -18l-108 -534h-64l-112 512q-4 16 -4 30z" />
<glyph unicode="$" horiz-adv-x="1193" d="M35 1024q0 43 2 67.5t12 45t13.5 27.5t8.5 19.5t10 28t11 28.5t10 19.5t10 13.5q70 90 152 136q86 39 146 45q26 0 26 23l-2 28q0 21 4 41l-2 19q0 8 5 25.5t40 17.5l37 -4h41l49 -2h74q47 0 47 -39l-4 -80q0 -12 4 -14.5t44 -3.5t88 -8t79 -21q70 -33 67 -123 q-1 -29 1 -39l-2 -74l4 -78q0 -86 -60 -112q-42 -21 -67 -21q-23 0 -47 9q-48 20 -84 20l-23 2l-76 12q-61 0 -61 -33q0 -4 11 -20t54.5 -28.5t68 -19.5t43.5 -17q34 -17 60 -35q20 -10 39 -20.5t36 -20.5t27.5 -16.5t20.5 -14.5q72 -54 121 -119q22 -37 29.5 -58 t15.5 -33.5t13 -26t9.5 -30t8.5 -34.5q8 -34 8 -60l-12 -106v-25q0 -71 -53 -137q-19 -23 -38.5 -40t-25.5 -24.5t-16 -15.5t-24.5 -17t-28 -17.5t-23.5 -16.5t-22.5 -14t-33 -17.5t-34.5 -15.5l-90 -20q-27 0 -27 -27l2 -25v-13q0 -9 -2 -13l2 -60q0 -24 -33 -24l-45 2 l-35 2l-110 4l-47 -4q-10 0 -19.5 5t-9.5 32l4 90q0 23 -8 27t-37 8l-90 6q-20 4 -29.5 5t-59.5 3t-88 22.5t-43 30.5t-6 25.5t-2 34t-2 34t-1 21.5l4 90v22l-6 70q0 71 42 108q21 17 40.5 17t31 -3t21.5 -5l37 -6q8 -2 15 -4t17 -5t23.5 -4.5t26.5 -4.5q45 -11 67 -13 q28 -2 39.5 -6t20.5 -6l90 -13q31 0 41 16.5t10 29.5t-18.5 21.5t-39 15.5t-47 17.5t-57.5 25t-61.5 28.5t-47 25.5t-28.5 19.5t-34 22q-74 49 -97 85q-12 16 -17.5 21t-22.5 24q-25 29 -47 84t-25 67.5t-6 31.5q-7 44 -7 87z" />
<glyph unicode="%" horiz-adv-x="2048" d="M41 981v25l4 63q5 53 23 102.5t26 73t14 34.5q32 58 69 83q9 6 25 20q33 31 39.5 34t23 11.5t39.5 17.5q59 22 93 28h86q44 0 77.5 -12.5t51 -18.5t27.5 -12q96 -52 132 -116q11 -20 25.5 -45.5t23.5 -42t14 -28.5q24 -51 24 -162l2 -51v-18q-2 -18 -7 -36t-8 -34 t-5 -29.5t-6 -28.5q-15 -58 -22 -68.5t-16.5 -22t-20.5 -25.5q-31 -39 -37.5 -48t-18.5 -19.5t-25 -20.5q-27 -22 -34.5 -27.5t-32.5 -15.5l-55 -22q-68 -25 -107 -25q-88 0 -114.5 11t-40.5 15q-23 7 -56 20t-72 51t-50 54t-16 28.5t-11.5 24t-13.5 22.5t-12 23 q-24 60 -27 90.5t-6 51.5q-5 34 -5 45zM356 1011q0 -22 9 -44q14 -95 86 -95q40 0 71 39q10 20 15.5 55.5t5.5 43.5t-7.5 39.5t-15.5 49.5t-33.5 31t-35.5 13q-17 0 -38 -14.5t-26.5 -22.5t-15.5 -40l-13 -40q-2 -8 -2 -15zM502 29q0 29 13 45t18 24q9 14 16.5 31.5t23 46.5 t34 60.5t34.5 61.5t23.5 46t16.5 31.5t16.5 23t11.5 17.5l118 223q20 35 40 68.5t45 77.5q89 153 108.5 193t30 59.5t20.5 38t13 25.5t22.5 41t41.5 77q57 107 69 125q18 26 28 46.5t15.5 26.5t13.5 19.5t17 22.5t32 9l37 -2l59 4l43 -2q68 0 74 -18t6 -26q0 -25 -39 -89.5 t-47 -78t-17 -29t-18.5 -28.5t-15.5 -24q-16 -29 -29 -57q-20 -33 -27.5 -45t-14.5 -26.5t-17 -35t-22.5 -44t-23.5 -44t-26 -46t-47.5 -88t-49.5 -95t-29.5 -50t-25.5 -39.5t-26.5 -47.5t-25 -44.5t-27 -47t-32.5 -58q-43 -75 -47.5 -84.5t-9.5 -18t-9 -16.5 q-11 -18 -23 -35.5t-25.5 -43.5t-28 -52.5t-24.5 -48t-19 -39t-30 -45t-61 -27.5l-48 4l-63 -4q-23 0 -62 6q-30 0 -30 25zM1186 426q0 100 13 137t15.5 46t6.5 20.5t7 24t10 34t29.5 52t31.5 39.5t17.5 15.5t17.5 14.5q20 18 30 28q23 21 36 26t25.5 10.5t27.5 11.5l27 11 q13 5 26.5 10t49.5 5h72q50 0 110 -25q131 -52 181 -140q34 -59 61 -113q4 -12 7.5 -26.5t6.5 -28.5t4 -22.5t2 -18t1 -19.5v-29l6 -55q0 -35 -8 -65.5t-11 -41.5t-3 -22.5t-4.5 -24.5t-15.5 -45t-17 -41t-16.5 -20.5t-19.5 -22.5t-16.5 -22.5t-14.5 -19t-17.5 -16.5 t-22.5 -19q-32 -28 -40.5 -32.5t-33 -14t-55.5 -19.5q-81 -26 -121 -26l-37 2q-31 0 -51 8q-41 16 -66.5 22t-34.5 12q-45 33 -54 33q-8 6 -34 33t-37 43q-13 19 -24.5 41t-18.5 34.5t-12 23t-20.5 70.5t-15.5 122zM1501 451q0 -61 29 -109q36 -52 101 -24q40 17 51 84 q4 30 4 41t-6.5 44t-15.5 50.5t-34 30t-35 12.5t-35 -12q-28 -13 -36 -36.5t-12 -37.5q-11 -34 -11 -43z" />
<glyph unicode="&#x26;" horiz-adv-x="1579" d="M43 578q0 73 23 137q18 74 70 126q26 26 34 39t23 28q31 31 69.5 46t50 21t11.5 18l-13 37q-20 47 -20 75q0 31 6 65t7 54.5t8 38t19.5 34t32 41t36 42t37 26.5t33.5 14t28.5 11.5t28 11.5t21.5 8t21 3t72 12h43l47 4q11 0 38 -3t38.5 -3t27.5 -3t35 -11t36 -13 t32.5 -9.5t27.5 -9.5q52 -21 99 -62l31 -31q20 -16 33 -30q61 -65 61 -121q0 -45 -39 -72q-10 -6 -19.5 -11.5t-18.5 -11.5t-15 -13t-15 -13q-14 -16 -27.5 -35t-26.5 -32q-46 -46 -85 -46q-48 0 -63 29q-4 10 -6.5 21t-6.5 22q-10 35 -48 35q-79 0 -79 -70q0 -34 31 -63 q29 -26 29 -60v-8l-19 -47q0 -6 -2 -11l-12 -24q-12 -27 -23.5 -35t-48.5 -11q-76 -6 -100 -50q-21 -35 -21 -63t13.5 -49t31.5 -40q36 -35 61 -45q30 -12 81 -12l39 -2q61 0 97 53q11 16 11 34q0 30 -23 34q-8 1 -23 15.5t-15 41.5q0 32 23.5 69t30.5 52q16 33 29 46t29 25 q42 33 58 33q31 0 80 -28.5t73.5 -41t48.5 -23.5q56 -25 96 -35q72 -19 86.5 -25t22 -8.5t18.5 -9.5t27.5 -20.5t55.5 -43t39 -84.5q0 -20 -11.5 -41.5t-23.5 -40.5q-15 -24 -26 -48t-17 -35t-10 -20q-21 -43 -70 -43q-13 0 -39 17q-12 8 -23 8q-18 0 -25 -20 q-21 -58 -112 -144q-51 -63 -65.5 -73.5t-42.5 -28.5q-46 -27 -74.5 -38t-49 -15.5t-36.5 -11.5q-27 -12 -43 -15l-115 -19h-82l-77 -4q-36 0 -87.5 16.5t-93 33t-68.5 30.5q-45 24 -73 54q-42 46 -55 55.5t-30 23.5q-31 27 -67 77t-45 65q-61 113 -61 254z" />
<glyph unicode="'" horiz-adv-x="641" d="M170 1378v17q0 69 54 109q41 30 79.5 30t63 -6t45.5 -20q51 -35 51 -105v-15q0 -8 -4 -18l-109 -534h-63l-113 512q-4 16 -4 30z" />
<glyph unicode="(" horiz-adv-x="854" d="M43 666q0 16 3 40.5t6 49.5q7 60 10 67.5t6.5 20t8.5 26t8 25.5t5 19t2 16q0 13 12 44q25 66 39.5 91.5t23.5 48.5t13 31t16.5 26.5t29.5 40.5q44 58 60.5 70t28 19.5t21.5 17.5l24 24q23 23 73 52.5t84 37t50.5 9.5t35 5t35.5 5t38 5t47.5 3t48 -11t23.5 -54v-99 l-4 -118l6 -95q0 -47 -9 -60q-9 -15 -42.5 -36.5t-42.5 -32t-29 -39.5t-32.5 -46t-19.5 -29q-20 -33 -20 -60.5t-2 -40.5l-10 -82q0 -48 8 -112t12 -76t9.5 -22.5t10.5 -24.5q10 -29 20.5 -45t40.5 -45t55.5 -45t37 -27.5t11.5 -40.5l-2 -39l2 -47l-4 -129l4 -59 q0 -61 -8.5 -76.5t-22.5 -24.5q-20 -14 -54 -14t-47.5 2t-32 6t-39 7t-41 8.5t-46.5 10.5q-38 7 -68 22.5t-43.5 21.5t-20.5 12t-18.5 17.5t-31 25.5t-32.5 29q-15 19 -28.5 35t-22 23t-27.5 29q-63 76 -78 111t-20 45.5t-8.5 20.5t-6.5 22.5t-8 31.5t-11 38 q-15 49 -17 77.5t-1 40t-1 23.5q-4 24 -9 47t-5 36v26z" />
<glyph unicode=")" horiz-adv-x="854" d="M57 217q0 33 6.5 47.5t21.5 24.5l23 15q7 5 20 13q23 14 50 52.5t41 57.5t21.5 35.5t9.5 35t5 45.5t6 46t3 42l-2 41v28q0 13 -2 26t-3 25.5t-4 25.5t-5 23.5t-5 19.5t-7.5 19.5t-12.5 28.5l-14 32q-11 24 -43 56q-33 29 -60.5 48.5t-37 29.5t-9.5 37l2 47l2 123l3 45 l-5 60q0 69 13 85q24 29 96 29q34 0 71.5 -10t61 -15t48 -9.5t41.5 -10.5t42 -19.5t33 -18.5t23.5 -16t33 -25.5t32.5 -30t22.5 -22.5t17.5 -19.5t21.5 -24.5t21.5 -24.5t25.5 -29t44 -63.5t38 -75.5t11.5 -42t6 -27.5t10 -31q19 -52 19 -126l12 -77l8 -114q0 -48 -10 -103 t-11 -59t-5.5 -17.5t-8.5 -27.5t-8 -27.5t-7 -34.5q-6 -42 -19 -67t-20 -40t-14.5 -29.5t-10.5 -20.5t-11 -27.5t-11 -28t-13.5 -22.5t-25.5 -35q-61 -79 -82 -91.5t-31.5 -22t-18.5 -18.5t-22.5 -22t-40 -27.5t-49.5 -26.5q-49 -25 -85.5 -30.5t-66.5 -10.5 q-64 -11 -99 -11t-58.5 9t-25.5 59v96l4 94z" />
<glyph unicode="*" horiz-adv-x="768" d="M39 1116l31 122q0 20 16 52q8 27 15.5 40t22.5 13t30 -10q47 -30 69 -30q15 0 15 26l-13 80q0 41 56 41h36l62 2h17l56 -2h46q16 0 24 -11.5t8 -21.5l-18 -82q0 -20 12 -20t37 16t35 22.5t33 6.5t37 -25.5t18 -41t4 -27t4 -25.5t10.5 -27.5t10.5 -26.5t6 -25.5t9 -32 t7 -31.5q0 -20 -26 -27q-37 -9 -69 -10.5t-32 -18.5q0 -13 27 -30q61 -40 61 -62q0 -16 -17 -32.5t-54 -43.5q-60 -45 -80 -65q-41 -31 -59.5 -31t-26.5 11.5t-14.5 22.5t-12.5 24.5t-13 25.5q-18 31 -27 31t-16 -11q-16 -25 -27 -51t-21.5 -40.5t-27.5 -14.5q-23 0 -71 37 q-22 19 -43 32q-85 55 -91.5 65t-6.5 17q0 11 10 22t16.5 15.5t14.5 13.5q13 15 25 24t12 20.5t-19.5 16.5t-29.5 8q-31 0 -51 9t-23.5 20t-3.5 40z" />
<glyph unicode="," horiz-adv-x="641" d="M57 133l9 109l-9 129q0 84 26 111.5t75 27.5l92 -4l94 4l64 -2q6 -2 26.5 -1t28.5 1q53 0 79.5 -26.5t31 -45t4.5 -69.5l-3 -79l-2 -79l9 -156q0 -51 -7.5 -71.5t-12.5 -34t-12 -28.5t-12.5 -28.5t-8.5 -18.5t-9 -12t-11 -18q-23 -48 -44 -63t-78 -15l-70 9l-30 -6h-29 l-25 6q-16 4 -25 8t-9 26l2 27q12 24 13 34q3 27 16.5 48t15.5 33v6q0 22 -14.5 32.5t-30.5 12.5h-49q-45 0 -64.5 22.5t-23.5 31.5q-7 19 -7 79z" />
<glyph unicode="-" horiz-adv-x="1067" d="M61 606q0 195 125 195l133 -6l97 4h24l78 -2h119l86 6l70 -2l53 2q88 0 124 -27.5t36 -95.5l-2 -54l-3 -53l13 -194q0 -56 -18 -79q-38 -48 -126 -48l-127 6l-163 -8l-140 6h-88l-78 2l-75 -4q-78 0 -103.5 39t-27.5 104v74z" />
<glyph unicode="." horiz-adv-x="641" d="M61 109l2 53l3 53l-3 97l-2 102q0 76 77 105q18 7 32 7l85 -8h36l59 4l51 -4l48 4q43 0 83.5 -18.5t49.5 -81.5v-54l-2 -57l-5 -65l3 -39v-33l4 -51q0 -105 -78 -119q-33 -6 -45 -6l-183 8l-77 -4q-75 0 -84 6q-54 19 -54 101z" />
<glyph unicode="/" horiz-adv-x="1110" d="M10 54q0 24 5 34t13.5 28.5t18.5 39t19.5 40t16.5 31.5q25 43 36 65q25 47 38 75t18 37.5t9 18.5t5 16t6.5 18.5t12.5 25t16 31.5t19.5 41t17.5 36t31.5 63.5t53.5 108.5t52.5 108.5t30.5 66.5q19 44 29.5 62t16.5 32q16 37 24.5 51t13.5 27l8 20q16 40 31 64 q28 44 37 62q16 32 26 48.5t15 24.5q9 14 13 28.5t15 40.5q25 58 112 58l72 -4h27.5t21.5 -2l31 -2l24 2q8 2 14 2h11l53 -2q41 0 57.5 -22.5t16.5 -39.5q0 -22 -21.5 -60.5t-34 -63.5t-24.5 -52.5t-24.5 -54.5t-20.5 -47.5t-13.5 -31.5t-14.5 -30.5t-24.5 -56.5t-22.5 -53 q-11 -26 -20.5 -42.5t-12.5 -25t-8 -20.5q-9 -21 -28 -51q-20 -39 -45.5 -92.5t-39 -80t-21.5 -44t-27.5 -52t-43 -87t-44.5 -93.5q-53 -108 -66.5 -131.5t-19.5 -31t-8 -12.5t-8 -16.5t-12.5 -24.5t-12.5 -25.5t-16 -37t-28.5 -48t-71.5 -23.5l-148 6l-127 -4q-64 0 -77 38 q-3 9 -3 14z" />
<glyph unicode="0" horiz-adv-x="1366" d="M20 700l9 99v35q0 76 17 138t26.5 83t27 47t27.5 45.5t15 27t10.5 18.5t10.5 20.5t11 18.5q10 16 36 44.5t54.5 52t55.5 43.5q57 40 93 51t47 16q27 12 40 17l100 23h14l50 2h16q124 0 154 -11.5t66 -25.5t61.5 -24.5t44.5 -19.5q45 -22 67.5 -47.5t31.5 -33.5 q20 -17 41.5 -34.5t35.5 -35.5t26.5 -35.5t24.5 -37.5q27 -43 35 -65.5t13 -42.5q14 -56 25 -85q13 -33 26 -89q16 -69 16 -136l2 -56l-13 -122l-16 -97q-3 -13 -11.5 -38.5t-14 -40.5t-8.5 -25q-8 -26 -22 -45t-18 -27t-10 -18t-12 -22.5t-11.5 -24t-11.5 -20.5 t-22.5 -28.5t-36 -38t-36.5 -35t-23.5 -21.5t-18.5 -12t-25.5 -15.5t-24.5 -15.5t-16.5 -9t-19.5 -7t-30.5 -11t-31 -10.5t-25.5 -9.5q-79 -36 -184 -36h-20t-18 1t-19.5 2t-29 5.5t-41 9.5t-36 8t-23.5 6q-26 7 -52 20q-29 10 -55.5 18t-45 18.5t-39 25.5t-41.5 33 q-59 51 -71 66.5t-23.5 33.5t-26.5 36t-31.5 36.5t-24.5 35.5q-11 23 -23 51q-22 50 -27.5 84.5t-9.5 56.5q-8 41 -14 63q-17 63 -17 117zM539 702l10 -79q7 -29 26 -57q39 -60 123 -60q37 0 72 27.5t49 80.5q4 12 4 23.5t7 30.5q10 28 10 67v19q0 4 -6.5 21.5t-13.5 38.5 q-18 52 -21 58q-18 33 -55 52.5t-58 19.5q-32 0 -47 -13q-32 -26 -39 -26q-45 -45 -45 -81l-16 -79v-43z" />
<glyph unicode="1" horiz-adv-x="1280" d="M129 1033q0 29 17 49.5t28.5 28t33.5 19.5q55 27 77 47.5t35 30.5q16 12 40 29q32 23 51 41t28 28.5t15.5 16.5t10.5 12q12 12 34.5 30.5t44.5 36.5q45 39 59 46q24 10 97 10l98 -8h36l122 8q51 0 67.5 -12t32.5 -32q27 -35 27 -103l-4 -84q-2 -23 -7 -46.5t-7 -45.5v-41 l4 -93l8 -129l-2 -51l-8 -92v-154l4 -73l-4 -49v-45q0 -6 -1 -21.5t-2 -32l-2 -33t-1 -33.5q0 -72 7 -113q15 -88 15 -101q0 -49 -28.5 -61.5t-69.5 -12.5l-78 2l-61 -2l-94 4l-113 -6q-107 0 -107 88q0 18 4.5 36.5t7.5 35.5q5 27 5 61l-10 176l10 236l-4 108l8 92 q0 54 -47 54q-33 0 -82 -49q-6 -6 -11 -13.5t-13 -14.5q-16 -13 -48.5 -13t-60.5 39q-10 10 -17.5 21t-17.5 23.5t-22.5 23.5t-36 32t-46 45.5t-22.5 53.5z" />
<glyph unicode="2" d="M8 892q0 43 4 81.5t5 51.5t3.5 24.5t7.5 24.5t13 38t14 39t10.5 23.5t9.5 15.5t11 14t12 14.5t13.5 15.5t13.5 20q25 48 113 107q20 13 36.5 24.5t20.5 13.5t16.5 8t24.5 11t23.5 11.5t33 10.5t45.5 9q61 13 64 13l116 6l142 -8q71 -8 142 -47q27 -15 44 -21t31 -14 q54 -31 59 -37q34 -34 56 -59t27 -30q10 -10 24 -28t21 -23t12 -13q55 -67 63 -187v-40q4 -8 4 -35l-6 -74q-5 -32 -24 -78.5t-19 -48.5q0 -4 -20.5 -30.5t-35.5 -46t-27.5 -30t-24 -17.5t-24.5 -19t-29.5 -27.5t-30 -26t-24.5 -15.5t-22 -13q-28 -19 -28 -34t13 -17.5 t44 -2.5t41 5l70 -2l80 6q99 0 116 -62q6 -24 6 -63l-8 -146l6 -96q0 -41 -15 -61.5t-25 -23.5q-22 -7 -74 -7l-209 8l-49 -2q-32 -4 -50 -4l-45 2q-12 2 -23 2h-24l-131 -8l-198 14l-27 -2q-23 -2 -44.5 -4t-43.5 -4l-132 -4h-34q-96 0 -96 69l6 74l-4 47v27l-4 57 q0 20 10 41q16 25 56 46.5t52 24.5q24 6 50 22t32 20q18 12 31 23t31 20.5t30.5 19t24.5 18.5q20 15 38.5 35.5t31 30t22.5 19.5q6 2 18.5 11t28 19.5t27.5 20.5t33.5 26.5t44 50.5t35.5 64q22 53 22 67q0 95 -62 124q-34 16 -56 16t-55.5 -10t-44.5 -16.5t-20 -23.5 t-18.5 -33.5t-12.5 -24.5t-4 -20.5t-4 -22.5t-13.5 -27.5t-47.5 -17.5l-96 8l-74 -2l-67 -4q-61 0 -95 53q-14 20 -14 46z" />
<glyph unicode="3" horiz-adv-x="1150" d="M12 137v10l15 146l-9 94q0 42 18.5 58t35.5 16q27 0 49 -7q83 -26 102 -28t47 -4l144 -10l45 2h20q33 0 45.5 5t30.5 16q45 27 45 60.5t-22 58.5q-28 32 -76 29q-15 -1 -19 -1l-49 6l-86 -6q-53 0 -74 28q-10 14 -10 52v118l-4 78q0 43 25 62q26 26 60.5 23t47.5 -3 t27 -2l49 -4q45 0 66.5 21.5t21.5 47t-23.5 44t-58.5 18.5l-29 -2l-30 6q-6 2 -14 2h-40t-24 -2l-37 -6l-41 2q-27 0 -71 -10.5t-66.5 -10.5t-38.5 11.5t-24 30.5q-13 27 -13 85l4 97l-4 67q0 51 19 77q28 40 160 49q16 1 24 1l80 -2l102 4l141 -10h48q118 0 231 -63 q96 -58 109.5 -71t24.5 -26.5t17.5 -21.5t11.5 -16q7 -13 18 -40.5t18.5 -41t12.5 -30.5q9 -31 9 -79l-2 -72q-9 -61 -63 -123q-13 -17 -27 -25.5t-25 -15.5q-18 -24 -18 -32t10 -17.5t21 -13.5l24 -12q15 -15 35 -25q28 -28 51 -65t30 -56t9 -39t7 -39q7 -27 16 -57l2 -31 q0 -44 -7 -66q-9 -33 -10.5 -48t-6.5 -32.5t-21.5 -46t-37.5 -53.5q-47 -57 -69 -72t-41.5 -25.5t-35 -19.5t-24.5 -15q-27 -20 -63 -35t-51.5 -22t-23.5 -9l-117 -12l-70 2l-104 -4l-162 6l-111 16q-92 12 -110 20.5t-38 21.5q-26 17 -26 71q-2 10 -2 18z" />
<glyph unicode="4" horiz-adv-x="1366" d="M37 606q0 44 4 50.5t13 22t18 28.5l24 30q20 23 49 64q17 17 32 38q67 93 75 111q12 26 22.5 37.5t11.5 18t5 10.5l24 31q4 4 6.5 7t6.5 8t11 12t9 13.5t6 11.5q32 40 41 58q59 84 75.5 117t28 47t19.5 24.5t28 32.5q43 49 63 57.5t28 10.5t20.5 3t32.5 1h53l105 4 q35 0 53 -6h50t30 -2l35 -2h14q10 0 23 2h37q60 0 88.5 -30t34.5 -60.5t6 -67.5l-2 -80l6 -151l-2 -43l4 -90v-20l-2 -58v-21l-6 -80q0 -72 15 -90t28.5 -21t23.5 -2t21 -3q29 -10 28 -62l-4 -73l10 -164q0 -55 -18 -68.5t-48 -14.5t-40 -6t-10 -32l6 -78q6 -30 6 -48 q0 -34 -57 -73q-18 -12 -45 -12h-64l-33 2h-14l-45 2h-14l-60 -4q-6 -2 -11 -2h-22l-79 -2q-49 0 -69 20.5t-23 27.5t-4 19.5t-3 23.5t-2 28l10 82q0 49 -38 61q-8 4 -18.5 4t-47.5 -2h-33l-45 -2q-8 -2 -37.5 -1t-40.5 1l-90 -4h-2l-122 12h-31l-52 -2q-49 0 -77 30 q-19 19 -19 36q-4 12 -4 32v117zM518 695.5q0 -32.5 26.5 -38.5t69.5 -4l31 -2q60 0 68 27l10 100l-6 92l4 64v39q0 22 -19 22q-6 0 -18 -12q-14 -25 -23.5 -39t-17.5 -27.5t-14 -21.5t-13.5 -22.5t-17.5 -29.5t-19.5 -28.5t-22.5 -32.5q-38 -54 -38 -86.5z" />
<glyph unicode="5" horiz-adv-x="1150" d="M2 139l4 187l-4 67q0 23 14.5 52.5t42.5 29.5q6 0 24.5 -5t40.5 -11t41 -11.5t26.5 -8.5t20.5 -7t28.5 -4t28.5 -3t20.5 -5t21.5 -6t37 -4l49 4l37 -2q24 0 50 13t46.5 30.5t20.5 47.5q0 77 -83 95q-28 6 -42 6l-43 -2l-107 8l-79 -6q-27 0 -41 3t-35 7t-45.5 15.5 t-24.5 58.5l10 109q2 16 2 31v30l-2 137v66l-4 113v17l2 54v19l-6 86q0 98 97 98h16q12 0 27 -2l43 -2l129 6h23l72 -2h44l66 2h116l98 -4h22q11 0 21 2l60 6q47 0 65.5 -16.5t18.5 -81.5v-14l-2 -54v-14q-2 -16 -2 -26v-42l4 -26q0 -27 -17 -78q-25 -43 -75 -43h-50l-61 2 l-80 -4h-20l-80 4h-10q-11 0 -43 4q-38 0 -43 -25v-34q0 -8 5 -24.5t38 -16.5l59 6q40 0 130.5 -15.5t107.5 -21.5t41 -19.5t47 -28.5q62 -41 72.5 -49.5t33.5 -34.5q59 -67 76 -155q4 -10 4 -19.5t3 -22.5t10 -33q9 -25 9 -40v-28q0 -12 -1 -25.5l-2 -27t-1 -17.5t-3 -17.5 t-6 -27.5q-8 -39 -12.5 -49t-12 -21.5t-14.5 -26.5t-11 -32q-8 -32 -37.5 -66t-35.5 -42q-16 -22 -32 -30.5t-24 -14t-18 -12.5t-21.5 -15t-20.5 -14q-53 -42 -208 -72q-21 -4 -25 -4l-82 -4l-53 -2h-36.5t-22.5 -2l-27 -2l-49 6q-23 4 -45 3q-38 -2 -71 7.5t-51 10.5t-60 8 q-118 20 -138 64q-6 13 -6 60z" />
<glyph unicode="6" d="M14 662l4 67v75q0 10 4.5 36t6.5 43q6 49 21 88q17 43 38.5 89t31 67.5t16.5 36.5q8 15 33 45q56 67 118 108q16 12 31.5 27.5t28.5 24.5t23.5 14.5t18.5 10.5t14.5 8t28.5 16q31 19 110 33.5t102.5 18t44 5.5t43.5 2h63l67 -7q16 -2 30.5 -1t27 -2t19.5 -4t18 -4 t24.5 -4t31 -7t29 -8t54.5 -10q65 -12 90 -50q10 -14 11 -28.5t1 -61.5l-4 -69q-2 -8 -1 -37t1 -42q0 -53 -39 -83q-28 -21 -61 -21l-17 4q-6 0 -13 4.5t-29.5 10.5t-31.5 10t-28 11q-47 18 -101 18l-45 -4l-49 4q-45 0 -90 -11.5t-61 -21.5q-25 -10 -42.5 -30.5t-17.5 -34 t10.5 -20.5t17.5 -7t30.5 6t42.5 10q49 10 131 10l35 -2q18 -4 37.5 -3t33.5 -3q28 -8 38.5 -12t19 -4t20.5 -2q19 -3 75 -32.5t62 -33.5t16.5 -10t21.5 -14.5t30 -20.5q13 -13 25 -31t18 -26t10 -16.5t9 -18.5t12 -27l30 -55q31 -70 31 -119t-2 -59l-6 -49q-2 -20 -1 -40 t-4 -47.5t-21.5 -61.5t-25.5 -46t-17 -19q-19 -15 -32 -43t-46 -63t-49.5 -45t-29 -15t-21.5 -10t-15 -10.5t-15.5 -10.5t-21.5 -12q-34 -20 -90.5 -30t-69 -10t-27.5 -3q-41 -8 -69 -16q-18 -4 -41 -4h-86q-62 0 -114 14.5t-69.5 25t-41.5 18.5q-51 16 -70.5 29.5t-26 16.5 t-17.5 10t-27.5 14.5t-30.5 18.5t-24.5 24.5t-20 23.5t-16.5 16t-21 23q-35 40 -46.5 75t-16.5 48.5t-10 30t-10 29.5t-9 21.5t-10.5 19.5t-13.5 31q-26 74 -26 200zM541 526q0 -21 20 -61q32 -32 111 -46q18 -3 27 -3t42 7t51 16q56 29 56 81q0 31 -19.5 53.5t-34 27.5 t-22.5 6q-16 2 -30 9q-17 9 -50 9l-92 -19q-29 -10 -44 -36.5t-15 -43.5z" />
<glyph unicode="7" horiz-adv-x="1150" d="M39 1348v18q0 9 14 37t29.5 39.5t54.5 11.5l86 -6l162 6q49 0 97 -7t69 -9h43q18 2 36.5 4t35.5 5q30 5 73 5l174 -8h21q10 0 20 2l64 8q84 0 95 -64q3 -18 3 -28v-26l-2 -68v-23l2 -47q0 -41 -9 -68.5t-25.5 -62t-22.5 -49t-14.5 -30t-17.5 -29t-14 -26.5t-9.5 -23.5 t-8.5 -22.5t-12 -25.5t-12 -26.5t-8.5 -26.5t-9.5 -29t-16 -32t-19.5 -30.5t-19.5 -39t-24 -54q-26 -59 -36 -93q-33 -111 -42.5 -132.5t-17.5 -41t-16 -49t-16.5 -55.5t-11.5 -39t-5 -24.5t-2 -27.5v-39q0 -32 -27 -86q-20 -29 -42.5 -35t-57 -6t-100.5 6h-131l-76 -4 q-86 0 -117 18q-51 31 -51 119q0 27 19.5 57.5t41.5 64.5q25 36 56.5 105.5t40 94t12.5 40t11 37t20.5 45t21.5 44t14.5 34t10.5 23.5t10 22.5t15 26.5q23 39 28.5 66.5t9.5 39t12.5 24.5t16.5 29q20 38 20 57q0 26 -41 26l-118 -6l-50 2q-30 0 -38 -4h-48l-45 -2 q-18 0 -39 12q-18 15 -29 34t-17 26q-17 22 -17 48v34q0 9 2 20l2 98l-2 45q-6 24 -6 70z" />
<glyph unicode="8" horiz-adv-x="1366" d="M23 463q0 58 21.5 116t29.5 76.5t29.5 43t42.5 41.5q37 27 59 35q51 17 51 34q0 23 -34 41q-7 4 -15 10t-27.5 28.5t-26.5 41t-11.5 29t-14.5 33.5q-16 38 -16 75t1 59.5t4 37.5q4 19 18.5 43t21 31t13.5 19t15.5 27.5t15.5 25.5q15 19 27 28t20.5 17.5t14.5 17.5 q23 34 58 50t82 27.5t93 19.5q89 17 128 17l34 -2q64 0 86.5 -5t27.5 -5t22 -2l112 -13q16 -4 33.5 -11t38.5 -15t44 -16.5t35.5 -17.5t23 -17.5t22.5 -17.5q20 -15 35.5 -31.5t24.5 -30t28 -37.5q32 -39 37 -60l20 -127q0 -18 -4 -26v-21q-10 -58 -44 -104.5t-50 -61.5 q-12 -8 -24.5 -18t-12.5 -20.5t3 -18.5t26 -19q62 -30 102 -83q6 -8 13.5 -14.5t23.5 -26.5q25 -28 45 -109l10 -94q0 -33 -5 -53q-10 -43 -13.5 -54.5t-4.5 -19.5t-6 -25q-19 -64 -43 -89t-37.5 -40.5t-25.5 -30t-19 -20.5t-15.5 -12t-18.5 -15l-31 -24 q-18 -16 -41.5 -24.5t-37 -13.5t-27.5 -11l-32 -13q-64 -28 -110 -36l-157 -11l-90 6h-41q-78 0 -150 25q-107 37 -130.5 52.5t-36.5 24.5t-30 20q-21 14 -35.5 31t-28 27.5t-30.5 28t-35 42t-30 46.5q-27 45 -29 54.5t-3 21.5t-4 22q-15 53 -15 91zM512 508q0 -25 16 -46 q19 -28 34 -34q20 -8 26 -13t30.5 -12.5t37 -7.5t28.5 2t37.5 6.5t41 8.5t39.5 15t31 39t11 44q0 68 -62 94q-47 19 -61 19t-23 2l-39 4q-49 0 -84 -25q-63 -44 -63 -96zM535 1025q0 -73 59 -89q10 -2 20.5 -2t17.5 -2q42 -12 56 -12q60 0 108 46q19 17 19 49t-11 47t-24 26 q-27 20 -41 20l-102 10q-35 0 -68.5 -27.5t-33.5 -65.5z" />
<glyph unicode="9" d="M0 913l14 146q21 73 32 90.5t15 26t16.5 28t24.5 37.5t20.5 30.5t14.5 19.5q9 11 28 24.5t32.5 20.5t32 20.5t40 30t44.5 25.5t45 12t38 8q103 36 174 36l33 2l37 -2l29 2l65 -4q33 -2 51.5 -3t43 -7t37 -9t24.5 -8q30 -13 57.5 -26.5t49.5 -23t36 -20.5q23 -18 36 -30 q21 -19 41 -35t39 -42q37 -49 55 -96.5t26 -68t19.5 -43t17.5 -43.5t10 -38t9 -36.5t10.5 -35.5t7.5 -29q4 -28 4 -67l-4 -68l4 -69q0 -54 -9 -99l-30 -123q-10 -31 -25.5 -55t-21.5 -37q-15 -35 -22 -53q-13 -34 -25.5 -47.5t-25.5 -28t-17 -19.5t-8.5 -11.5t-9.5 -12.5 q-13 -15 -25 -24q-23 -15 -38 -26t-26.5 -20.5t-21.5 -17.5l-50 -24q-14 -8 -27.5 -16.5t-36.5 -20.5q-37 -18 -62 -25q-29 -7 -57 -15.5t-62.5 -10.5t-73.5 -4.5t-79 -1.5t-73 1h-28q-34 0 -86.5 12.5t-66 14.5t-48.5 9t-68.5 18.5t-33.5 52.5l4 106v24l-9 93q0 102 93 103 q41 0 78 -20q62 -34 106 -34l57 4l88 -6q10 0 25.5 2t40.5 5q39 5 65.5 18.5t48 28t21.5 43.5t-13.5 37t-17.5 8t-19 -4.5t-32 -10.5q-71 -26 -107 -26t-74 3t-87 10q-131 19 -174 52q-22 22 -37.5 27.5t-23 11.5t-11.5 9t-8 7l-31 30q-10 11 -21 25q-24 30 -34 42t-16 28 q-12 36 -23.5 55t-22.5 45q-18 44 -18 113zM489 932q0 -40 43 -72q37 -22 82 -22q84 0 110 11t43 34.5t17 42t-2 32t-15 26.5q-43 43 -117 56q-11 2 -15 2l-37 -2q-8 0 -17.5 -4t-19.5 -8l-20 -10q-52 -29 -52 -86z" />
<glyph unicode=":" horiz-adv-x="724" d="M102 125l7 151l-5 117q0 80 22 97q35 28 110 28l131 -4l79 2q47 0 83 -6t59 -41q22 -32 20 -101t-2 -104v-48l2 -58v-19q0 -62 -24 -108q-15 -27 -62 -29l-60 -2h-63l-67 4l-109 -4q-83 0 -106 51q-2 2 -8.5 30t-6.5 44zM104 735q0 33 9 74v31l-7 170v43q0 74 39 98 q9 9 50 23h32q6 0 23 -5l64 -2h75t39 2l61 5q103 0 115 -80q2 -13 2 -29v-27l-2 -50v-17l4 -56l-6 -53l4 -112q0 -72 -23.5 -90.5t-72.5 -18.5l-70 2l-53 -2l-68 6l-100 -6q-115 0 -115 94z" />
<glyph unicode=";" horiz-adv-x="724" d="M98 387q0 78 31 100q32 23 94 23l84 -4l111 4l65 -2q23 -2 49 -3q63 -2 80 -62q9 -35 9 -51q0 -24 -3 -52q-6 -45 -6 -102l9 -185q0 -87 -26 -125q-8 -12 -14 -30.5t-10 -28.5q-12 -16 -17 -24.5t-10 -16.5t-14 -24q-19 -35 -71 -35l-60 6h-67l-41 -4q-41 0 -41 41l10 38 q4 10 4 18q0 16 8.5 34t11.5 26q7 19 7 31t-9 25q-13 18 -36 18l-41 -2q-14 0 -46 9t-44 36q-15 30 -15 84l6 111zM100 750l6 124l-6 179q0 116 105 116l102 -6h53l54 2q24 6 71 6t74 -11t39 -32q18 -33 18 -116l-4 -86l6 -119q0 -82 -9 -109q-19 -59 -79 -59l-55 2l-162 -4 l-73 4l-45 -2q-59 0 -83 47q-12 23 -12 64z" />
<glyph unicode="?" horiz-adv-x="1236" d="M35 1023.5q0 27.5 5 43.5t17.5 39.5t20.5 34t16 22.5t15.5 26.5t18.5 29t25.5 26.5t24.5 22.5t16.5 17.5t23.5 25q52 55 79 69t42 21q48 22 85 29t51 10t26.5 5t23 3t25.5 1h40l108 6q68 0 112 -11t53 -16.5t24.5 -12.5t28 -12t40.5 -17q41 -17 86.5 -55t62.5 -56.5 t29 -35.5q16 -21 35 -74.5t25 -73t9 -36t3 -34.5v-74q0 -37 -15 -71.5t-20.5 -43t-10.5 -14.5t-12 -15t-12.5 -23.5t-10.5 -21.5q-32 -44 -72.5 -81t-64 -62.5t-36.5 -49.5q-20 -38 -21 -94t-15.5 -77.5t-69.5 -21.5l-35 2h-33l-61 2l-45 -2l-51 6q-6 2 -27 2h-29l-67 -4 q-28 0 -58 22q-22 22 -22 45v38q0 67 7 84q11 28 11 40t3 18.5t11.5 17.5t17.5 22.5t16.5 20.5t9.5 13t4 11.5t6 12.5t13 17.5t18.5 21.5t17.5 15t29 26q59 58 59 109q0 10 -8 26.5t-13 22.5q-12 15 -42 15q-46 0 -78 -27l-15 -14q-4 -4 -10 -7t-16 -10q-14 -9 -29.5 -47.5 t-41.5 -67t-45 -28.5t-34.5 6t-30.5 14q-35 21 -40 27q-10 14 -19 24q-23 26 -53.5 47t-42.5 27.5t-21.5 15.5t-15.5 18.5t-13 15.5t-11 9q-27 18 -27 45.5zM412 76l4 53v94l-4 31q0 33 34 53q13 8 35 8l43 -2h79l57 2h20l22 -2l52 -4q11 0 80 6l61 -12q15 -3 29 -10 q24 -24 24 -47l-2 -33l6 -100q0 -74 -40 -99q-23 -16 -64 -16l-43 2q-25 2 -53.5 3t-53 2t-42.5 1h-17l-100 -6q-53 0 -90 11.5t-37 64.5z" />
<glyph unicode="A" horiz-adv-x="1579" d="M0 85q0 39 19.5 87t29.5 90.5t25 105.5q15 68 36 124.5t30 93.5t16.5 82t18.5 84t24.5 71.5t21.5 55t11.5 35t7.5 27.5q5 19 11.5 49t17 56.5t21.5 56.5t20 55.5t14 35.5q4 11 16 66q6 16 12 34.5t14.5 40t18.5 45t39 42.5q38 26 108 26l148 -4h28l103 4l57 4l133 -8 l68 2q72 0 93 -14q43 -27 56 -49.5t19 -38t12 -32.5q12 -36 15.5 -57.5t9.5 -42t10 -39t9 -37.5q16 -64 38.5 -123t25.5 -73q6 -26 10.5 -61t7.5 -50.5t7 -32t10.5 -39t14.5 -52.5t14 -55t14.5 -55t16.5 -50q14 -35 20.5 -56.5t13.5 -40.5q10 -26 16.5 -57t10.5 -47 t8.5 -30.5t7.5 -23.5q14 -42 15.5 -46t4.5 -17.5t9 -30.5q15 -46 15 -73q0 -102 -96 -121l-30 -2h-63l-129 -6q-15 0 -45 4l-47 2l-43 -2q-50 0 -66 11q-19 13 -44 68.5t-45.5 75t-61.5 19.5l-76 -8q-8 -2 -16 -2h-16l-138 8q-64 0 -92 -39q-2 -4 -7 -15.5t-11 -23.5 t-11 -24q-23 -51 -49 -59.5t-43 -8.5l-106 4h-20l-63 -2h-22l-59 2l-72 -4q-56 0 -88 38q-14 17 -14 47zM682 682q0 -51 56 -51h48l50 -2q55 0 55 43q0 8 -4 23t-6 28.5t-6.5 28t-6.5 31t-6 29.5t-7 23.5t-8 23.5t-9 29.5t-9.5 30t-11.5 25.5t-25.5 12t-29.5 -10t-20 -36 q-15 -35 -23 -72t-13.5 -54.5t-10.5 -37.5q-13 -54 -13 -64z" />
<glyph unicode="B" horiz-adv-x="1536" d="M61 121q0 24 7 68q12 66 12 133l-6 133l4 104v19l-2 56v85l-2 92l6 139q0 56 -10 158l-2 82q0 130 15 164.5t30.5 46.5t32.5 22q41 23 104 23l57 -4q12 -2 25 -2h24q75 0 107 4q48 6 69 6l94 -4h113l107 6q119 0 164 -10t68.5 -16.5t37.5 -10.5t26 -8q95 -30 187 -131 q76 -90 88 -162q2 -12 4 -22l2 -41v-33l-2 -23q-2 -16 -3 -31.5t-14 -45.5q-30 -67 -76 -100q-34 -24 -34 -34t5.5 -15t27.5 -18q36 -21 65.5 -47.5t50.5 -63t35 -75.5q29 -77 29 -128.5t-8 -75t-24 -62.5l-25 -61q-24 -53 -69.5 -95.5t-61.5 -56.5t-34.5 -21.5t-26 -9.5 t-16.5 -6t-19.5 -10t-33 -16t-80.5 -17.5t-99 -7.5l-158 6l-184 -6l-193 4l-131 -4l-76 2l-71 -4q-136 0 -136 125zM612 965q0 -58 72 -58l61 2l70 -4q37 0 63.5 18.5t26.5 51.5q0 48 -63 65l-101 13h-12q-12 -2 -28.5 -4t-28.5 -7q-45 -16 -52.5 -40.5t-7.5 -36.5zM614 516 q0 -31 11.5 -48t26.5 -26q23 -12 65 -12l31 2l24 4t25 4h8l47 -2q44 0 62 8q40 19 40 59t-24.5 56.5t-33.5 19.5t-23.5 6t-30.5 5q-30 4 -49 4h-7q-37 -7 -38 -8h-54q-43 0 -61.5 -20.5t-18.5 -51.5z" />
<glyph unicode="C" horiz-adv-x="1110" d="M20 756q0 35 8.5 104.5t14.5 91t17.5 45t21.5 47t17 45t17 41.5q42 92 128 158q119 92 149 105q37 18 117 36q132 31 187 31h89q130 0 193 -22q8 -4 31.5 -15.5t28.5 -24.5t5 -36v-39l-8 -137v-15l15 -159q0 -103 -59 -114q-15 -3 -29 -3l-80 6l-72 -6l-39 2h-18 q-68 -6 -96.5 -25.5t-55.5 -49t-27 -76t7 -64.5q24 -67 39.5 -85.5t40 -30t50.5 -18.5q40 -11 76 -11l134 18h14q72 0 97.5 -30.5t25.5 -108.5v-22l-2 -68v-23q0 -52 4 -93.5t4 -53.5v-27q0 -41 -14 -62t-43 -41t-58 -24l-98 -6q-34 -6 -77 -6q-74 0 -123.5 11t-81 13 t-59.5 8q-89 17 -183 69q-47 26 -82 69q-50 62 -65 83q-31 43 -41.5 55.5t-25 33t-28.5 52.5q-41 94 -48 222q-1 19 -7 56q-11 69 -11 94z" />
<glyph unicode="D" horiz-adv-x="1536" d="M74 780q0 120 4 162.5t4 53.5v76l-8 231q0 145 127 145l110 -6q17 0 46 4q45 6 99 6t97 -2l86 -4h104q96 -2 226 -37q5 0 35 -14.5t44.5 -20.5t23.5 -11q14 -8 56 -34q16 -10 31 -16t57 -27t81.5 -61.5t53 -61t18.5 -29t13 -21.5t20.5 -25.5t31 -38t35 -67.5t25.5 -84 q15 -70 15 -104t-1 -55.5t-2 -52.5q-3 -92 -16 -139t-28.5 -89t-23.5 -64.5t-18 -39.5q-15 -25 -44.5 -59.5t-41.5 -48.5q-51 -65 -152 -110q-21 -9 -38.5 -18t-33 -16.5t-37.5 -18.5t-54 -25q-37 -15 -132.5 -29.5t-126.5 -18.5t-52 -6q-40 -4 -69 -4l-217 8l-186 -10 q-104 0 -140 55q-14 20 -16 36.5t-2 55.5l12 152l-4 94v21l2 70v22q0 24 -5 88q-9 114 -9 188zM631 776q0 -54 6 -84l-2 -67q0 -44 8 -59q19 -36 57 -36q12 0 51.5 9.5t66.5 12.5q50 5 85 40t43 64.5t8 70.5t-8 61.5t-30 54.5q-33 49 -146 62q-14 2 -34 5t-35 3 q-29 0 -43.5 -19t-18.5 -36.5t-6 -34t-2 -29.5v-18z" />
<glyph unicode="E" horiz-adv-x="1236" d="M68 90l6 90l6 230l8 127q0 53 -5 92t-5 53v59q-2 14 -2 23v22q-2 10 -2 18v30l-6 129l10 153v31l-8 162q0 84 38.5 110.5t92.5 26.5l84 -6l125 2l116 4h20l44 -6q8 0 17 1t18.5 1t19.5 -2l29 -2h9q5 0 13 2h27.5t19.5 -2l25 -2h8t21 2l104 8l53 -2h47l43 -2q43 0 59.5 -8 t27 -25.5t14.5 -36.5q6 -27 6 -59l-2 -76l8 -115q0 -46 -13 -72t-26.5 -32t-34.5 -6l-55 2l-78 -2l-98 8l-88 -6l-68 4q-25 0 -51.5 -6t-26.5 -46t33 -47.5t111 -7.5l76 7l47 -3h43l102 7q59 0 82 -16q30 -20 30 -92v-14q-1 -24 -1 -32l8 -129q0 -55 -19.5 -68.5t-34 -16.5 t-33 -2t-33.5 1t-23 -4l-195 -4l-92 4q-80 0 -80 -45q0 -39 45 -56q24 -8 57 -8q50 0 78 5q35 6 103 6l75 2q29 -2 46.5 -2t51.5 1h5q44 0 59 -18q16 -20 28.5 -41.5t12.5 -68.5l-2 -68l4 -113q0 -84 -20.5 -114.5t-85.5 -30.5l-131 6q-20 0 -63 -5q-61 -7 -126 -7l-196 8 q-9 0 -144 -6l-65 2q-26 3 -55 3q-24 0 -49 -2q-79 -7 -107.5 -7t-49 9t-29.5 25q-13 22 -13 66z" />
<glyph unicode="F" horiz-adv-x="1150" d="M76 96v31l6 119l-4 108l8 162l-10 232l14 323l-6 129q-2 8 -1 37t1 39l-6 59q0 68 26.5 90.5t83.5 22.5l91 -4h17l54 2h67l64 6q4 1 18 1h16q28 -1 36 -1l47 -2q28 -4 45 -4h84l84 -4l160 10q102 0 135 -52q16 -26 16 -50v-38l-2 -54v-19l4 -86q4 -12 4 -49l-8 -47 q-20 -53 -133 -53h-43l-94 -7l-141 11q-39 0 -50 -16q-14 -18 -14 -36q0 -53 76 -53l84 4l110 -4h33q72 8 88.5 8t31.5 -9t24 -22q10 -17 10 -53l-2 -61l4 -61v-33l6 -80q0 -41 -19.5 -62.5t-32.5 -32.5q-23 -18 -110 -18l-71 -4l-52 2q-106 0 -122.5 -7t-22.5 -9 q-47 -26 -47 -105l4 -59q4 -25 4 -49v-111l6 -59q0 -16 -7 -32.5t-10 -20.5t-18.5 -15.5t-33.5 -11.5l-62 4l-123 -4l-106 4l-101 -6q-88 0 -106 61q-4 10 -4 39z" />
<glyph unicode="G" horiz-adv-x="1449" d="M20 698v23q2 23 6 43q8 50 10 79q2 52 8.5 82.5t13.5 60.5q29 124 126 214q15 14 28 30q60 71 98 96.5t69 38.5t65.5 24.5t69.5 21.5q82 23 107.5 27t58.5 7t68 5q72 4 97 4h43l80 -2h169q94 0 131 -17.5t48 -36.5t14 -27.5t5 -22t2 -36.5v-59l-4 -77l6 -127 q0 -103 -106 -103h-48l-134 8l-88 -2l-115 6q-43 0 -67.5 -10t-51 -25t-49.5 -30.5t-42 -40.5q-44 -56 -44 -152q0 -43 13.5 -71.5t41.5 -67.5q47 -57 94.5 -70.5t94.5 -13.5q71 0 71 45q0 8 -7 19.5t-30 11.5l-38 -2q-37 0 -51.5 18.5t-14.5 36.5l6 82l-2 82q0 55 34 79 q16 11 50 11l125 -8l37 2q20 -4 29 -4h12l63 -2l119 4q71 0 93 -20q7 -7 16 -15q18 -23 28.5 -43t10.5 -80l-7 -155l4 -191v-24l-2 -71v-91q0 -132 -69 -156q-29 -10 -56 -10t-71 4l-68 2l-123 -6l-57 2q-16 2 -32 2h-35t-27 -2l-37 -2h-7q-5 0 -11 2h-76q-89 0 -180 24.5 t-129.5 49t-60 41t-34 25.5t-27 20.5t-26.5 19.5t-18 13t-24.5 27t-39.5 50q-44 55 -61 89q-22 44 -29.5 63.5t-15 33t-22.5 46.5q-28 63 -28 198z" />
<glyph unicode="H" horiz-adv-x="1579" d="M66 1305l6 73q4 27 25.5 48.5t43 21.5t41.5 -4l45 -2h34l55 8h12l141 -8q13 0 37 4l39 2q45 0 62.5 -18.5t23.5 -29.5q10 -18 10 -63l-12 -86l6 -82l-2 -67q0 -56 45 -74q10 -4 14 -6l137 -10q41 0 80 16q54 22 54 84l-2 54l-3 57l3 65l-3 53q0 50 21.5 73t38 27.5 t53.5 4.5l64 -6h9l39 2h11l53 4l70 -6l86 6q96 0 107 -60q3 -16 3 -32l-8 -92l2 -37q0 -33 -4 -41v-86l8 -125v-21q0 -10 -3 -42q-7 -73 -7 -158l4 -183v-80l6 -131l-8 -129l10 -110q0 -68 -32.5 -96.5t-71.5 -28.5l-35 2q-10 2 -24 2h-30q-9 0 -20 -2l-38 -2q-16 0 -50 4 l-51 2l-104 -4q-66 0 -86 32q-17 26 -17 83l4 65l-8 76l2 78v10q0 29 -14 57q-19 37 -56 40q-41 3 -55 3h-20q-24 0 -53 -5t-50 -6q-57 -3 -65 -32.5t-8 -38.5l4 -127l-4 -69l6 -58q0 -110 -100 -110l-109 8l-57 -2l-72 2l-115 -4q-105 0 -116 70v133l6 65v23l-6 176l2 43v4 q-2 10 -2 42v57l8 130v15l-2 50v109l-2 50l2 67l4 92v39z" />
<glyph unicode="I" horiz-adv-x="724" d="M72 94l6 90v240q0 16 1 26.5t1 23.5l6 73q-6 78 -6 112v68l-4 109l2 96l-2 96l6 117l-10 190q0 48 18 77q25 42 88 42l94 -10l29 -2l178 10q76 0 103.5 -11t45.5 -33q25 -32 25 -77l-10 -188l10 -230l-2 -34q-2 -33 -5 -64t-4 -50t-1 -40v-201q0 -14 2 -28l6 -119 l-6 -131q0 -49 5 -80q9 -56 9 -70q0 -98 -125 -98l-137 6l-172 -6q-74 0 -99 12q-52 26 -52 84z" />
<glyph unicode="J" horiz-adv-x="894" d="M53 164l4 131l-4 117q0 66 9 87q28 60 94 60l75 -6q41 0 63.5 28.5t27.5 63.5l6 68q0 19 -4 47q-7 48 -7 141l2 55l3 56l-3 48l-2 50l7 125v19l-11 61l-2 10q0 103 61 120q17 5 30 5h27l65 -2h22l244 4q14 0 21 -2t33 -9t44.5 -25.5t18.5 -61.5q0 -113 -5.5 -177.5 t-5.5 -86.5l8 -152l-12 -240v-32q0 -12 10 -97l-2 -41l2 -75v-36t-2 -30t-4 -41t-5 -42t-10 -29.5t-11 -33.5t-7.5 -23.5t-18 -35t-43 -69.5t-70.5 -65.5t-79.5 -37t-106.5 -12.5t-81 4h-49l-74 2l-108 -6q-56 0 -101 25q-37 27 -43 66.5t-6 74.5z" />
<glyph unicode="K" horiz-adv-x="1579" d="M66 127l12 149l2 58l-4 61v23l2 70v24l-6 203l4 98v125l8 127l-12 270q0 53 22.5 81t44.5 32l43 2h45l68 -2l94 6h17l56 -2h73q93 0 100 -58q2 -18 2 -36l-8 -76v-41q-4 -36 -4 -60q0 -77 6 -88q16 -30 33.5 -30t31 12t26.5 29q16 22 46 67q17 35 36 56.5t23 28t9.5 14.5 t11.5 17q12 18 22 34q22 35 38.5 67t38.5 49t81 17l113 -4l100 4l105 -4l96 4q29 0 53.5 -8t24.5 -44t-3.5 -46t-14.5 -37q-12 -31 -24 -48t-20 -30.5t-19.5 -30t-20.5 -30.5l-56 -74q-10 -16 -21.5 -33.5t-20.5 -31t-16.5 -23.5t-20.5 -30t-37.5 -58.5t-49.5 -69.5t-31 -41 t-6 -26q0 -26 25 -55q41 -45 65 -87l25 -49q25 -48 67 -102q66 -84 78 -104q12 -21 37 -67q33 -65 67 -106t52 -72.5t18 -71.5t-28.5 -60.5t-69.5 -20.5l-51 2q-6 2 -32 2h-34l-131 4l-98 -6h-82q-57 0 -81 36q-7 9 -19.5 27.5t-17.5 24.5t-9 13t-14.5 24.5t-21.5 38.5 q-39 72 -56 89t-30 32.5t-24.5 34t-27.5 34.5q-31 41 -60 41q-66 0 -77 -94l-6 -108l12 -99q0 -41 -15.5 -63.5t-56.5 -30.5h-143l-133 10l-123 -10q-59 0 -78.5 33t-19.5 94z" />
<glyph unicode="L" horiz-adv-x="1067" d="M76 668v58q0 131 5 189q7 81 7 101l-8 160l6 96l-2 41q0 84 56 123q22 14 57 14l155 -10l137 12q94 0 125 -40q25 -34 25 -109v-154l2 -80v-14l-12 -103v-20l4 -144v-18l-2 -58v-20q0 -79 25.5 -106t62.5 -27l94 8l66 -6l41 4q51 0 82 -45q24 -36 24 -69l-4 -45 q-4 -20 -4 -60v-126q0 -15 4 -32l4 -55l-2 -21q-5 -54 -35.5 -83t-66.5 -29l-127 10l-184 -10h-46l-82 2h-26l-60 4h-41l-141 -10q-83 0 -113 47q-18 30 -18 80q-3 12 -3 28q0 21 5 48l-2 69l4 144v21q0 11 -2 22z" />
<glyph unicode="M" horiz-adv-x="1705" d="M59 131v21q2 23 5.5 46t5.5 42.5t3 47t3 56.5q4 58 4 88l-8 176l8 219v19l-2 58v20l4 127q0 66 -9.5 145.5t-9.5 107.5q0 99 48 130q32 16 98 16l166 -8l71 2q23 2 44 2h28q45 0 68 -10q39 -18 70 -80q18 -36 40.5 -62t42 -51.5t26.5 -36.5q19 -28 77 -82 q12 -10 30.5 -10t30.5 15.5t18.5 22.5t9.5 11t10 11q23 25 38 57l12 31q4 8 10.5 15t11.5 15t10 18.5t13 23.5q24 38 39 55q19 14 28 25t17 18q10 10 35 10l66 4h49l6 -2h20l142 6h53q74 0 112.5 -20.5t38.5 -86.5v-24l-12 -166v-29l4 -110l6 -64l-12 -231l4 -127v-113 l8 -80v-98l9 -154v-18q0 -107 -72 -127q-30 -6 -82 -6q-21 0 -34 2t-31 2l-76 2h-27q-20 0 -31 -2l-84 -6q-84 0 -107.5 26.5t-23.5 79.5l4 72l-10 92l2 41v25q6 12 6 37l-4 55v18l2 56v20q0 23 -10 36t-18 13t-31 -18.5t-29 -26.5t-11 -13l-11 -11t-13.5 -12.5t-13.5 -12.5 t-10 -13t-13 -18.5t-33 -29t-33 -17.5t-14 2t-14.5 5t-15.5 8.5t-19 16.5q-19 15 -32 27q-20 18 -43 45q-34 40 -53 40q-35 0 -35 -31l6 -45q2 -10 2 -31l-2 -63l6 -99l-8 -104v-22q0 -15 1 -33t2 -54t-25.5 -46.5t-65.5 -10.5l-103 6l-63 -4l-82 4l-72 -4h-51 q-54 0 -79.5 24t-30.5 50t-5 57z" />
<glyph unicode="N" horiz-adv-x="1579" d="M61 88q0 45 5 70v36l14 162v27l-4 160v29l-2 92v32q0 14 1 53t2 85q2 105 6 147q7 94 7 125.5t-1 44t-2 26t-4 31.5q-13 75 -13 121q0 48 22 92q16 23 38 27t67 4h39l22 -2h100l82 2q40 4 78.5 4t67.5 -8q43 -12 86 -88q10 -17 22.5 -37t26.5 -45t33 -48q21 -28 36 -56.5 t21 -42t17 -26.5t20 -25q17 -24 31 -44t25 -31.5t26 -11.5q35 0 35 35q-2 25 -2 40l-2 48v128q0 18 -3 36l-4 72q0 35 22.5 61.5t44 33.5t43.5 7h36l55 -2h12q21 -2 32 -2t32 -2l125 6q72 0 99.5 -13t39.5 -30.5t19 -36.5q8 -24 7 -52t-1 -46v-47l-11 -121l4 -158v-70 l-10 -163l13 -207v-57l-3 -175v-88l11 -98q0 -51 -32 -72.5t-75 -21.5l-94 8q-63 0 -99.5 -5t-41.5 -5h-15q-81 0 -100 7q-28 10 -40.5 26t-21 23t-14.5 16q-58 52 -88.5 103.5t-40.5 66t-23.5 30t-26.5 32.5t-26.5 33.5t-17.5 23.5t-8 14.5t-9 15.5t-12.5 16.5t-13.5 17.5 t-10 16t-11 17q-18 25 -41.5 25t-27.5 -24.5t-4 -44.5l2 -70v-30l-2 -94v-52l8 -76q0 -25 -4 -39t-23.5 -31.5t-54.5 -17.5l-72 6l-92 -4l-121 4l-116 -6q-29 0 -62 21.5t-33 66.5z" />
<glyph unicode="O" horiz-adv-x="1662" d="M20 700q0 37 9.5 77t12.5 61.5t3 42t3 38t15.5 49t26.5 63.5t25.5 56.5t11.5 26.5q2 2 8 12.5t15.5 24.5t17.5 27.5t12 18.5t15.5 15.5t24.5 21.5q26 22 45 42q81 80 155 115q6 2 31.5 12t54.5 21q73 26 82 26l104 20l119 7l31 -2q172 -11 197.5 -19t45 -15t43 -16.5 t45 -18.5t32.5 -14t22.5 -12.5t26.5 -15.5t35 -14.5t51 -23.5q50 -28 83 -75q6 -8 13.5 -15t17.5 -18t18.5 -21.5t15.5 -20.5q21 -29 40.5 -62t30.5 -49q31 -49 37 -76.5t11 -46t12 -39t11 -41.5l8 -114v-16l-10 -87v-57q0 -63 -15.5 -95t-24.5 -53q-20 -45 -25 -62 q-23 -87 -93 -172q-36 -45 -63 -58t-38 -21t-19.5 -15.5t-34 -29t-61 -31.5t-50 -14t-29.5 -9t-28.5 -12.5t-29 -12.5t-28 -7t-29.5 -6t-29.5 -7t-24 -4.5t-23.5 -3.5t-31 -4l-45 -4h-78l-96 6h-71q-83 6 -108 15.5t-37.5 15.5t-25.5 11t-27.5 9.5t-27.5 9.5q-44 16 -94 58 l-37 25q-12 10 -24.5 19t-30 26t-34.5 38t-29.5 37.5t-30.5 34.5q-59 59 -67.5 80t-11.5 32t-9.5 28.5t-14.5 47.5t-16 55.5t-12 53.5v56zM561 726q0 -71 37 -114q15 -18 25 -35.5t24.5 -29.5t32.5 -25q41 -28 82 -28l53 -2l94 10q50 11 89 58q20 23 36 34q14 14 31.5 49 t17.5 61.5t-5 48t-12 41.5q-17 48 -22 54q-25 46 -94 74q-8 4 -16 5t-17 5t-19 8q-42 16 -79 16t-57 -9q-24 -11 -46.5 -24t-42.5 -19.5t-34 -18.5q-27 -23 -69 -118q-9 -19 -9 -41z" />
<glyph unicode="P" horiz-adv-x="1449" d="M61 86l9 137v129q0 19 1 44t7 91l-10 160l2 76l6 125l-4 96l6 199v37q0 22 -4 51l-8 100q0 57 24 83q30 34 88 34h18q13 0 29 -2l47 -2l193 8h85l72 2h25q90 0 185.5 -14.5t117 -21.5t28.5 -8t18 -5t24 -6q42 -6 84 -27q55 -24 87 -49t72.5 -56.5t75.5 -63.5t47 -59 q52 -114 59 -161t7 -73.5t-2 -40t-5 -37t-4 -40.5q-7 -122 -65 -214q-19 -30 -47.5 -55t-39.5 -36.5t-20 -20.5l-20 -20q-22 -18 -35.5 -27t-21.5 -16.5t-26 -20.5q-45 -31 -115 -51t-104 -25t-71 -7q-72 -4 -111.5 -4t-57 -1t-33.5 -10q-39 -19 -39 -69q0 -45 7 -75 q9 -38 9 -61.5t-10 -41t-27 -25.5q-24 -12 -69 -12l-80 2l-103 -6q-13 0 -43 4l-43 2l-112 -6q-103 0 -103 90zM625 793q0 -56 71 -56q20 0 39 6l25 7q10 2 19 2t17 1q42 5 60.5 13t38.5 34.5t20 57.5t-9 48.5t-24 29.5q-48 37 -102 42q-10 1 -41 5l-39 2q-71 0 -71 -82 l2 -55z" />
<glyph unicode="Q" horiz-adv-x="1705" d="M23 713v18q0 21 6 48.5t10 49t5 45.5q3 68 26 111q4 10 10 20.5t10 19.5t5 16.5t6 18.5t16.5 32.5t22.5 41.5q29 51 33.5 56.5t16 16t23.5 21.5t23.5 21.5t31.5 30.5q83 78 146 109q17 6 70 25q102 38 106 38l102 18l121 7q65 0 144 -11q104 -13 144 -29.5t54 -23 t27 -12.5q22 -10 45.5 -22.5t35 -17.5t25.5 -11q101 -46 124 -84q12 -20 24 -31.5t21 -22t15.5 -16.5t11.5 -13q10 -15 25.5 -43t30.5 -44q48 -68 84 -208q4 -16 9 -59.5t5 -48.5v-16l-2 -46v-16q-2 -12 -4 -25t-4 -24.5t-2 -18.5v-36q0 -85 -30 -138q-14 -26 -15 -34 q-3 -13 -10 -25q0 -8 14 -8l21 2h36q19 0 37.5 -10t23.5 -17.5t7 -29.5v-33l2 -39l-6 -49q0 -45 3 -68.5t3 -37t-2 -29.5v-53q0 -54 -78 -54l-78 2h-90l-43 -2q-31 0 -67.5 7.5t-87.5 52.5q-16 12 -25 12q-32 -8 -38.5 -10t-17.5 -5t-24.5 -9t-25 -10.5t-21.5 -8.5 q-15 -6 -60 -17q-83 -20 -160 -20h-88l-80 6h-50q-60 0 -100.5 12.5t-66.5 22.5t-40 15q-71 25 -92 43t-36 28q-22 15 -65 45q-6 6 -27.5 26.5t-33.5 36t-23.5 29t-19.5 23.5t-18 20l-21 21q-39 42 -59 103t-29.5 91.5t-13.5 52.5q-6 32 -6 93zM561 717q0 -38 14.5 -67 t21.5 -36.5t11 -13.5t7 -12t11 -16q22 -30 55.5 -51.5t50 -24t50.5 -2.5l41 -2q43 0 43 7t-15 30.5t-23.5 37t-8.5 27.5q0 30 20.5 56.5t38 39t34.5 20.5q27 11 49 11t47.5 -19.5t31.5 -25.5t14.5 -16.5t12.5 -10.5t10 23.5t6 39t-4 35t-10 38t-11 32.5t-11 27.5t-22.5 30 t-32.5 26.5q-35 21 -44.5 23t-23.5 6t-24 9q-36 17 -66 17q-61 0 -78.5 -10t-27 -16t-19.5 -10t-19.5 -8.5t-24.5 -10.5q-27 -11 -42 -32t-19 -29.5t-14 -29t-19.5 -41.5t-9.5 -52z" />
<glyph unicode="R" horiz-adv-x="1492" d="M59 92l13 137v67l-2 69q-2 2 -2 14.5t-7 52.5l9 84l-2 66l8 110v215l-2 39v39l-11 131v119l-2 51v19q0 136 146 143h21q8 0 23 2t27 2h74l70 -4l49 -2l160 8l129 -10h20l60 2h20q76 0 164 -21.5t111.5 -33t34 -16.5t20.5 -12q16 -11 61 -48q23 -18 29 -25.5t16 -22.5 t16.5 -22.5t11.5 -16.5t10 -19.5t10.5 -19.5t11.5 -16.5t12 -16.5t14.5 -26.5t15.5 -32.5t14 -40t12 -47q10 -39 10 -63q0 -30 -8.5 -73t-13.5 -64.5t-10 -37.5q-20 -63 -52.5 -110.5t-53.5 -65.5q-36 -32 -80 -51t-56.5 -27t-12.5 -22q0 -24 29 -35q24 -12 60 -12t52 4 l58 6q104 0 104 -109l-8 -117l6 -114q0 -123 -96 -123l-45 2l-90 -2h-21q-84 0 -114 8t-57.5 21.5t-54.5 30.5q-54 34 -83 55.5t-43.5 31t-23.5 15.5t-24.5 18t-33 25.5t-45.5 36.5q-20 10 -43 10q-43 0 -43 -58q0 -35 4 -50t6 -22q6 -21 6 -36q0 -86 -84 -86l-76 4l-110 -4 h-19q-10 0 -20 2l-78 8l-104 -8q-55 0 -76 29.5t-21 64.5zM627 891l4 -41l-2 -39q0 -43 20.5 -55.5t44.5 -12.5q63 0 142 37q8 4 14 10.5t19 19.5q24 24 24 61.5t-12.5 54t-32.5 28.5q-35 21 -91 21l-52 10q-55 0 -66 -19q-12 -22 -12 -75z" />
<glyph unicode="S" horiz-adv-x="1193" d="M33 1030v19q0 55 13 83q18 39 24 53.5t11 30t15 36.5q12 24 36.5 49.5t31 33.5t30 32t82 49.5t102 33.5t55 10t23 3t24.5 1h34l127 6l197 -8q49 0 91 -21.5t53 -35.5t15 -24.5t6.5 -25t2.5 -37.5v-190q0 -42 -11 -69q-10 -16 -27.5 -31.5t-22.5 -18.5t-31.5 -10.5 t-31.5 -7.5t-34 9q-63 18 -88 18l-105 14q-35 0 -50 -9t-15 -21t18.5 -28t53.5 -25q84 -22 108 -35q38 -21 65 -37.5t46.5 -25.5t37 -20.5t40 -29t43.5 -35.5q42 -37 51 -51q33 -48 38 -58t8 -19t7 -18.5t9 -16.5t8 -15t9.5 -24.5t10.5 -37l8 -41t4 -39.5l-10 -98 q-4 -18 -4 -37.5t-6 -44.5t-27 -59.5t-33 -46.5t-20 -18.5t-17.5 -15.5t-20.5 -18.5t-22 -19.5l-30 -18q-14 -8 -25.5 -16.5t-36.5 -23.5q-56 -35 -149 -46q-17 -2 -34.5 -4.5t-40 -1t-42.5 1.5h-35l-64 -3h-22l-45 3h-20l-82 8q-14 2 -29 2l-70 6q-33 4 -64.5 6t-59.5 11 q-59 19 -70 48q-2 4 -4 43t-3 56.5t-1 21.5l4 70l-4 100q0 52 16 76q31 47 76 47h2l58 -12q24 0 43 -8t31.5 -8.5t25 -3.5t23.5 -5t25.5 -6t32 -5t39.5 -6q68 -15 95 -15t40 13t13 24t-11.5 22.5t-22.5 15.5t-18 5q-18 2 -32 10t-20.5 9t-11.5 3t-24.5 11t-41.5 19 q-58 27 -70 36q-54 37 -75 50q-72 45 -91.5 71t-35 44.5t-28 34.5t-20.5 34.5t-18 41.5q-31 69 -31 105t-2 53z" />
<glyph unicode="T" horiz-adv-x="1150" d="M4 1343q0 45 18.5 67.5t35 31t53.5 8.5l57 -2q25 -2 38 -2l91 -6h69l98 6h52.5t97.5 -4l96 -2h119l121 8h29q81 0 109 -12q57 -26 57 -105l-2 -37l-6 -49v-71q0 -27 2 -46l4 -65q0 -88 -78 -88l-82 6q-121 0 -135 -86q-4 -25 -4 -51v-74l4 -51q0 -51 -4 -105l-6 -88 l2 -61v-209q0 -39 8 -82t8 -65q0 -64 -52 -95q-31 -20 -116 -20q-45 0 -106 6l-72 2l-111 -4q-59 0 -104 45q-16 32 -16 74l6 67q2 16 2 35v35l-6 188l10 185l-4 153l2 84q0 61 -28 92q-15 17 -37 17h-34q-10 2 -21 4t-24.5 4t-29 1t-37 4t-36.5 16.5t-22 26.5 q-12 23 -12 69v59l4 70z" />
<glyph unicode="U" horiz-adv-x="1579" d="M66 1167l6 125l-4 60q0 24 16 61q16 27 41 31t49 4l78 -4l154 4l61 -2h45q57 0 78 -14q49 -30 49 -103l-8 -65q-2 -10 -2 -31l8 -121l-6 -70l-2 -40v-62l-15 -129l4 -51v-123q0 -47 16.5 -75t30 -40t38 -21t33.5 -11.5t20.5 -1.5t21.5 -1l39 -4q34 0 48 8.5t32 22.5 t28.5 22.5t15.5 18.5q9 18 9 39v102l8 84l-6 66l6 59l-14 139l8 132l-2 63l2 53l-8 74q0 57 43 72q18 12 68 12l55 -4h66l14 -2h127q54 6 66 6q54 0 68 -7q37 -18 45.5 -30t14 -28.5t7.5 -34.5q4 -34 4 -62l-2 -57l2 -47v-36q0 -10 -11 -104l-10 -108l8 -160l-4 -149l2 -62 q0 -139 -35 -213q-10 -21 -15 -41t-11 -33t-15.5 -27.5t-18.5 -31t-16 -32t-16 -29.5q-38 -55 -86 -86q-6 -4 -13 -9.5t-16 -10.5t-17.5 -12t-27 -18t-51 -21.5t-63.5 -16.5q-60 -13 -96 -13l-70 2h-16q-9 0 -17 -2l-49 -6h-24l-134 8l-65 -4l-45 4q-32 0 -95 18.5t-72 22.5 t-17.5 10.5t-24.5 17.5t-30.5 19.5t-30.5 17.5q-34 20 -45 28t-26.5 19t-33.5 28q-42 41 -54.5 65.5t-17 31.5t-10.5 18t-14 23.5t-15 24.5l-32 103q-2 8 -2 13v47l-2 64v21l4 125l-4 107l2 51l-2 45l4 113z" />
<glyph unicode="V" horiz-adv-x="1492" d="M-4 1352q0 39 12 58.5t30 28.5q21 11 66 11l127 -4l66 2l39 -2q28 -4 41 -4q15 0 43 4l45 2q68 0 102 -66q21 -41 29 -76.5t11 -42.5q25 -58 31.5 -98.5t9.5 -52.5t3 -30.5t3 -33t11.5 -43t17.5 -59.5t16.5 -57.5t10.5 -35.5t4 -21.5t5 -41.5q10 -71 29 -71q4 0 10 15 q8 22 11 36t8 32.5t11 49.5q18 37 25.5 61.5t11.5 36t9 28t9.5 41.5t13.5 55t22.5 60.5t18.5 55t6 43t3 28t5 28t8 41.5q15 59 32 81q29 37 90 37l41 -2q28 -4 43 -4l99 10l69 -4h78q80 0 108 -36q13 -17 13 -40.5t-6 -47.5q-13 -51 -29 -91.5t-22 -58t-10 -30.5 q-9 -26 -9 -47.5t-1 -29.5t-4 -19.5t-7 -29t-13 -45t-20.5 -55t-19.5 -52t-12.5 -43t-8.5 -30t-13 -35t-20 -52.5q-31 -75 -34 -90q-9 -38 -15 -56.5t-14 -34t-17 -33.5q-23 -45 -28.5 -78t-5.5 -45.5t-3 -22.5t-11 -36q-19 -65 -37.5 -108.5t-24.5 -63t-11 -39t-15.5 -44.5 t-29 -38t-65.5 -17l-63 2l-117 -6h-37l-114 10h-21l-129 -8q-53 0 -86 26.5t-55 104.5q-4 14 -7 25l-7 19q-3 9 -8 20.5t-10 26.5t-8 27.5t-7.5 28.5t-9.5 35q-9 35 -20.5 58.5t-16.5 42t-8 37t-7 41.5q-14 81 -24 104q-20 44 -24.5 56.5t-11 23t-13.5 26.5 q-50 119 -71.5 235t-32.5 159q-25 98 -47 144q-36 75 -36 114z" />
<glyph unicode="W" horiz-adv-x="2217" d="M2 1362q0 59 43 71.5t129 12.5h45l27 -2h18l84 6l35 -2l33 2l24 -4l19 2q64 0 83 -24.5t26 -45.5q16 -46 18 -71q4 -56 51 -172q8 -27 9 -54.5t7 -48t12.5 -34t13.5 -36t14 -43t13 -39.5q12 -34 21.5 -79.5t21 -74t29.5 -28.5t24.5 11.5t11.5 23.5t11 25q45 102 47 133 t2 50t-2 30.5t-8 27t-10 29.5t-5 26.5t-5 25.5t-7 26.5t-10.5 33.5t-17.5 44t-16 44.5t-8.5 35t-6.5 27.5q-9 30 -15 44q-13 35 -13 56q0 37 30 49q8 4 18 4h40l51 2l37 -2l26 2l43 -4l62 2h139q73 0 91 -20q26 -27 32 -70.5t10 -77t8 -49.5t5 -28.5t5.5 -23.5t10.5 -23.5 t10 -24t7 -23.5t8 -31t8.5 -43t7.5 -45.5t11 -42t11 -41.5q4 -20 8.5 -39.5t8.5 -38t7 -33t9 -26.5q16 -31 35 -31q22 0 35 58q4 16 5 25q2 16 19 85q4 16 10.5 29.5t11.5 31t7 36t5 34.5t9 41t13 51q16 68 21 80t10 23.5t11.5 27.5t6.5 38t4 56.5t16.5 62.5t55.5 34h81 l88 4l89 -6l79 6h18l70 -4q66 -11 66 -88q0 -49 -24 -115q-55 -155 -57.5 -182t-5.5 -38q-13 -47 -29.5 -88.5t-22.5 -60.5q-14 -42 -22 -72q-12 -39 -18.5 -83.5t-17 -75.5t-26 -65.5t-24.5 -61t-13 -47t-10 -44.5q-16 -62 -35 -102t-24 -55q-11 -33 -17 -47t-11 -29.5 t-12.5 -32t-14.5 -31.5t-12 -30t-13.5 -34t-22.5 -34q-30 -34 -92 -34q-19 0 -51 4l-54 2l-45 -2q-32 -4 -47 -4t-43 4l-43 2l-51 -2q-32 -4 -72 -4q-66 0 -84 33q-2 2 -11 24.5t-19.5 47t-18.5 45.5l-8 22q-4 14 -5 28.5t-3 22.5t-5 23.5t-10 31.5q-17 45 -30 45 q-14 0 -28.5 -40.5t-20.5 -59.5t-12.5 -48.5t-15.5 -47.5t-13.5 -26.5t-13.5 -26t-19 -34t-23 -24.5q-21 -14 -78 -14l-157 10q-10 1 -20 1q-25 0 -49 -4q-34 -5 -68 -7h-56q-63 0 -108 32q-27 18 -38 62.5t-15.5 53.5t-6.5 16.5t-4 15.5q-4 17 -9 55.5t-19 86.5t-35 98 q-40 97 -58 180.5t-28 120t-16.5 55.5t-12.5 36t-13 32.5t-12.5 27.5t-13.5 40t-17 62q-24 86 -30 112t-11 45.5t-9.5 35t-10.5 28.5t-19 47q-34 89 -34 122z" />
<glyph unicode="X" horiz-adv-x="1492" d="M2 109q0 20 4 36t7 26.5t7.5 19t11.5 16.5t14 17t15.5 22.5t17.5 28t16 26.5t17 26.5t27 34t26 34.5t17 28.5t16.5 26t17.5 27.5q13 21 24 38q19 30 24 43q21 31 33 49q24 37 35.5 54.5t19.5 30t16 24.5q19 26 19 46q0 30 -80 142q-21 29 -35 44q-21 23 -36 52 q-6 6 -13.5 17.5t-15.5 18.5t-14.5 15.5t-11.5 14.5t-12 18t-29.5 47t-37.5 61q-20 32 -49.5 73t-36 54t-6.5 31.5t1 34t9 28.5q20 30 70 36h100l58 2q18 2 36 2h56l18 -2h13l137 6q51 0 76.5 -14t42 -54.5t26 -59.5t20.5 -42q40 -84 62 -84q10 0 17.5 11.5t16.5 31t26 37.5 l36 49q6 10 12.5 18.5t17.5 29t23.5 40t27.5 29.5q23 16 92 16l182 -4h32q15 0 31 2l103 6q102 0 102 -84l-2 -24q-8 -41 -31.5 -76t-40.5 -60q-35 -54 -52 -89t-26.5 -48.5t-17.5 -24.5t-17 -23.5t-18.5 -26t-19.5 -28.5t-21.5 -28.5t-20.5 -29.5t-15 -32q-9 -20 -37 -62 q-39 -59 -39 -88q0 -56 75 -150q12 -16 25 -28q25 -26 49 -66t32.5 -55t16.5 -27q20 -28 33 -45q39 -56 57 -89q28 -52 61 -96q46 -60 46 -108t-40 -56q-36 -8 -63 -7h-6q-30 1 -46 1l-70 -2h-23l-88 7l-161 -13h-15q-23 0 -49.5 7.5t-42.5 34t-23 39.5q-13 27 -26 43 t-20 27t-12 23.5t-10 24.5t-13.5 28.5t-17.5 30.5q-21 35 -36 35q-2 0 -10 -6t-14 -10q-14 -19 -39 -53.5t-38.5 -53t-17.5 -24.5l-30 -56q-58 -94 -98 -97q-13 -1 -25 -1l-84 4l-88 -4l-76 2l-105 -6q-45 0 -63 17q-39 37 -39 92z" />
<glyph unicode="Y" horiz-adv-x="1536" d="M0 1401q0 23 19.5 40t41.5 17l86 -10l39 2q12 2 24 2h17l37 -2q20 -4 32.5 -4t16.5 2h56q27 0 45 6h65q47 0 67.5 -15.5t33 -40.5t15.5 -46t9 -36t11.5 -25.5t14.5 -28.5q41 -79 48.5 -95t14.5 -33.5t15.5 -32.5t18.5 -29.5t20.5 -14.5t23.5 13t27 32q30 37 45 65.5 t29.5 50t23.5 34t17 23.5q18 24 28.5 47t16.5 36q21 49 43 63q47 31 95 31h11q7 0 17 -2l27 -2l35 2q10 2 20 2h15l159 -10h20l70 12l37 -6q31 -12 31 -55.5t-11 -63.5t-18.5 -31.5t-12.5 -22.5t-9 -22.5t-9 -21.5t-14 -19q-27 -27 -45 -63l-30 -68q-6 -14 -13 -27l-17 -27 q-33 -55 -60 -92.5t-40 -58t-30 -48t-31 -48t-28.5 -40t-25.5 -35.5t-15.5 -22.5t-8.5 -19.5t-18.5 -39t-19.5 -36q-33 -66 -37.5 -107t-5.5 -63.5t-2 -41t-1 -26.5v-24l-2 -69v-24l2 -38l15 -93q0 -50 -35 -90q-17 -18 -66 -18l-102 8l-96 -4l-90 6l-107 -4q-23 0 -40.5 4 t-38.5 29.5t-21 40.5q0 27 10 72t10 92v124q0 63 -9 92t-18 52q-28 80 -43.5 104.5t-24.5 44t-18.5 41t-20.5 40.5t-20.5 32.5t-18.5 28t-15 28t-16.5 32t-26 41t-23.5 34.5t-21.5 39.5t-30.5 61.5q-34 68 -50 103q-43 95 -61 126q-45 73 -51.5 94.5t-6.5 44.5z" />
<glyph unicode="Z" horiz-adv-x="1150" d="M45 180l2 84v20l-2 63v22q0 23 6 52.5t29.5 61t33 42t18.5 22.5t18 27q29 43 55 75q35 43 62.5 96t36.5 71t24 40q30 45 30 66q0 43 -41 43l-26 -4l-27 -3h-33l-61 -6q-14 -2 -28.5 -3t-28.5 -3q-66 0 -66 94v37l2 65v75l-2 73q0 88 37 123q16 16 44 25.5t46 9.5l35 -2 l37 2l129 -10l258 8h8l105 -6h28l57 2h25l72 2h26q77 0 108 -50q11 -18 11 -63l-2 -110l2 -74l-2 -47q-7 -51 -23 -70.5t-30 -35t-24 -26.5l-21 -20q-14 -16 -32.5 -53t-37.5 -60.5t-36 -45t-22 -31.5t-17 -30q-35 -63 -37.5 -71t-6.5 -15t-23.5 -35.5t-31.5 -46t-12 -34 t12 -21.5t39 -5l63 2l166 -6q25 0 36 -5.5t27.5 -19.5t23 -23.5t9.5 -23.5q5 -23 5 -92l6 -107l-2 -55v-49q0 -55 -12 -78q-27 -49 -99 -49l-127 8q-41 0 -59 -6l-43 -2l-193 10h-65l-121 -6l-172 10l-80 -6q-47 0 -70 35q-16 16 -16 143z" />
<glyph unicode="[" horiz-adv-x="811" d="M66 -104l4 65l-2 84l2 46v140l-2 56l2 63l-4 111q0 46 2 72t2 39l2 64v23l-4 84l2 48l-4 77v16q0 9 2 19l2 84l-2 85l2 89v62l2 51v11l-6 97q0 32 11 45q22 25 91 29l113 -4h9q5 0 11 2h30.5t34.5 -4q32 -6 105 -6l70 4h23l72 -2h26l36 2q33 0 47 -14q11 -14 11 -52v-24 l-4 -78l6 -139q0 -51 -13.5 -74t-64.5 -23l-47 5q-39 0 -63.5 -13.5t-26.5 -77.5v-26l-2 -98v-29l2 -64l-4 -51l2 -35q2 -18 2 -37v-36l6 -116v-87l-6 -64q0 -47 8 -56t14 -12q22 -11 39 -11l86 6q65 0 70 -47q2 -4 1 -20.5t-1 -20.5l2 -58v-46q0 -25 -2 -46l-2 -39l4 -51 q0 -35 -15.5 -53.5t-27.5 -22.5q-18 -6 -68 -6l-114 4l-203 -8l-135 8h-19l-55 -2h-19q-31 0 -35.5 20.5t-4.5 41.5z" />
<glyph unicode="]" horiz-adv-x="811" d="M45 1184v47q0 29 2 45l2 39l-4 55q0 41 41 72q15 6 49 6h45q13 0 27 -2l51 -2h22q13 0 37 2l123 4h33l154 -6h15q11 0 22 2h36q23 0 33 -13.5t10 -27.5v-37l-4 -35v-119l-2 -65v-105l2 -55l-2 -61l4 -99l-4 -94v-41l-2 -71l2 -78q2 -6 1 -28.5t-1 -29.5l4 -88l-6 -82v-20 l2 -61v-58l-2 -118v-40l4 -118q0 -58 -37 -68q-50 -10 -74 -10h-48q-25 0 -35 2h-66l-139 10l-80 -6l-76 2h-63q-41 0 -51.5 4t-15.5 18.5t-5 20.5v55l4 66v18l-6 133q0 59 18.5 72.5t59.5 13.5l43 -4l33 2q61 0 61 95v36q0 17 2 33v137l2 58v24l-8 201v96q6 18 6 43 q0 55 -8 68q-14 22 -51 22l-25 -2q-4 -2 -11 -1t-9 1l-43 -4q-34 0 -51 14.5t-19 32.5v48z" />
<glyph unicode="_" horiz-adv-x="1024" d="M-20 -154h1064v-102h-1064v102z" />
<glyph unicode="`" horiz-adv-x="425" d="M-100 1428.5q0 21.5 7 40t50 18.5l66 -4l55 4l47 -4l43 2l43 -6l63 6h31l37 -2l39 2q32 0 47.5 -20.5t20.5 -26.5q4 -14 18 -36t23 -37q22 -34 30 -47t8 -28q0 -30 -49 -30l-39 4l-32 -4q-71 0 -103 9t-57 19t-39 15.5t-26.5 6.5t-21.5 5t-16.5 5t-15.5 5t-16.5 5 t-16.5 4t-14 6t-15 6.5t-19.5 5.5t-19.5 6t-17.5 7t-15.5 5t-11 2t-8.5 1t-23 8t-35.5 16.5t-17 31z" />
<glyph unicode="a" d="M20 363q0 143 113 285q47 59 129 80q27 7 58 16q80 22 90 22l116 8l47 -2l31 2l127 -22q35 0 35 26t-12.5 35.5t-35 22t-32.5 15.5t-39 3l-94 6l-72 -2q-15 0 -48 -7t-49.5 -8t-33.5 -5q-16 -4 -31.5 -7.5t-31.5 -7.5l-25 -2q-44 0 -54 17q-3 6 -7 10q-23 23 -23 100 l2 41l-6 76q0 44 10 58q19 25 84 36q10 2 14 2t54 10l135 11h27l90 6l57 -4h121l131 -17q47 -4 79 -9t54 -20.5t31.5 -22.5t18.5 -13q18 -12 43.5 -28t52 -47.5t44.5 -62.5q26 -42 42 -108l6 -108l-8 -94v-29l6 -150l-6 -177v-30q-7 -28 -7 -73q0 -17 4 -37l7 -58 q0 -93 -85 -93h-11q-17 1 -44 1l-71 -2h-56l-135 -6q-37 0 -43 19.5t-6 45t-14 25.5t-31 -14q-21 -19 -76 -46q-91 -46 -192 -46q-6 0 -24.5 2t-39.5 4q-67 6 -95 17l-46 18q-10 4 -22.5 6t-27.5 7q-58 19 -97 64q-5 7 -11 13l-24 24q-23 21 -50 76t-35 79.5t-8 68.5z M514 395q0 -35 19.5 -49t41.5 -14t48 4h20q59 0 89 36q13 15 13 42q0 43 -53 55q-6 2 -15 2h-42l-39 2q-18 0 -50 -19.5t-32 -58.5z" />
<glyph unicode="b" horiz-adv-x="1492" d="M47 80v30q0 5 3 28q5 37 5 151l-4 86l2 41l6 67l4 154l-14 203v22l-2 70v22l8 93q2 10 2 19v19q0 125 -6 195l-2 63q0 92 60 105l39 2h42l125 -10l70 4q35 6 84 6t80 -15.5t31 -70.5l-5 -49q-2 -8 -1 -38t1 -40l-4 -59q0 -43 27 -43q13 0 30 8q26 12 60 22l74 17 q8 2 27 4t38 2h39q12 0 30 -4q28 -6 89 -6q14 -4 28.5 -6.5t30.5 -6.5t34 -6t28 -6t21.5 -9t23.5 -12.5t23.5 -13.5t19.5 -13q26 -22 39.5 -32t24.5 -15q16 -7 61 -54q4 -6 14 -22.5t21.5 -35t20.5 -36t12.5 -24.5t8.5 -23.5t11 -34t11 -34t11 -30.5q28 -67 29.5 -94 t3.5 -44t3 -30q1 -12 1 -23q0 -21 -4 -37q-6 -24 -11 -41t-8 -33t-8 -38q-17 -72 -63 -126q-16 -20 -24 -35l-11 -23q-4 -6 -10 -13.5t-10 -15.5l-19 -31q-4 -4 -20 -23.5t-33 -29.5q-10 -10 -24.5 -16.5t-24.5 -14.5t-16 -14t-13.5 -10t-18.5 -9.5t-24 -11.5 q-27 -13 -38 -18.5l-22 -11t-20.5 -9.5t-36 -8t-36.5 -6l-115 -18l-151 14q-106 9 -173 76q-10 10 -15 10t-13 -4q-4 -4 -6 -21.5t-4 -23.5q-10 -35 -54 -35h-16q-46 6 -109 6l-41 -2l-151 -4q-53 0 -64.5 29.5t-11.5 54.5zM575 618q0 -59 9.5 -80.5t33.5 -38.5 q41 -28 82 -28l62 2h45q57 0 90 31q20 14 33.5 45t13.5 43t-6 31.5t-10 31t-10.5 19.5t-17.5 14t-25.5 13.5t-21.5 12.5t-15 7t-22 2h-32l-57 6q-19 0 -40 -9t-28.5 -10t-23 -8t-28.5 -20q-22 -24 -32 -64z" />
<glyph unicode="c" horiz-adv-x="980" d="M25 610q0 54 10 91.5t12 45.5t7 19.5t11 28t10.5 30t8.5 21.5l11.5 23t18 27.5t28 39t27.5 39t17 23.5t16.5 18.5t29.5 29.5q41 42 78 62q54 30 65.5 35.5t44.5 12.5l66 14q65 12 104 12l47 -2h33l55 -2l66 2q72 0 103.5 -23.5t31.5 -79.5l-4 -141l6 -115 q0 -109 -68 -117q-12 -2 -57 -2l-76 -4l-43 2q-20 0 -58 -9t-49.5 -22.5t-19.5 -33.5q-14 -35 -14 -69t19 -60q28 -39 89 -39l43 2l80 -8l60 6q55 0 82 -38q10 -15 10 -40l-8 -158v-16t2 -16l8 -88q0 -40 -15.5 -61t-42 -33.5t-28.5 -12.5q-32 -12 -107 -12t-102 1t-55 3 q-46 3 -74.5 7.5t-43 8.5t-29.5 10.5t-30.5 11.5t-34.5 12q-74 28 -120 82q-29 33 -51 48q-37 33 -59 54q-27 28 -36.5 49.5t-14.5 33t-10 22.5t-8 19t-6.5 19.5t-7.5 22.5q-13 36 -22 89z" />
<glyph unicode="d" horiz-adv-x="1492" d="M23 592.5q0 38.5 3 55t7 35.5t9 42q11 51 16 68q14 47 26 67t20 33.5t13.5 25t10.5 17.5t23.5 27.5t44.5 46.5q81 82 136 111q10 5 29.5 12.5t29.5 12.5t25 10q57 18 93 21t46 3t25 1t35 3t41 3q16 1 29 1q45 0 68 -8q36 -13 57.5 -16t39.5 -13q25 -14 44 -14q24 0 24 29 v114l-9 66q0 41 20.5 67.5t30.5 30.5q22 8 62 8l61 -4l41 -2h39l86 6l56 -2l45 2q53 0 69.5 -28.5t16.5 -57.5v-46l-9 -87l-4 -79v-24l13 -204l-6 -289l6 -125l-2 -102v-20l2 -60v-19l-4 -131l6 -65q0 -101 -58 -112q-16 -3 -30 -3l-82 4l-47 -2l-74 2l-127 -8q-71 0 -75 34 q-1 9 -1 24q0 34 -18 34q-15 0 -29 -16.5t-19.5 -21.5t-13.5 -10t-21.5 -11t-42 -18.5t-40.5 -14.5t-45 -2l-89 -12h-18q-27 0 -58.5 4t-43.5 8t-41 14t-55 16q-62 13 -109 58q-12 10 -23.5 22.5t-25.5 24.5q-35 30 -59 51q-32 32 -51 66.5t-29 48.5l-30 42t-20.5 31.5 t-9.5 21.5t-7 25.5t-8 35t-8 34t-4 27.5q-3 42 -3 80.5zM553 596q0 -35 16 -63t36 -39t39 -19q38 -16 74 -16q41 0 68 8q20 6 42 11t40 18q33 20 38 49.5t5 45t-10 40.5t-25.5 45t-39 27.5t-37 9.5t-28.5 4q-30 4 -49 4h-12q-5 0 -20.5 -3t-24 -4t-14.5 -4q-11 -5 -39.5 -26 t-43.5 -37t-15 -51z" />
<glyph unicode="e" d="M23 552v42q0 78 6 97q16 50 17 63.5t3 20.5t5 16.5t6 19.5t7.5 21.5t11.5 26.5t15 33q20 43 28.5 53.5t20 22t20.5 21.5q14 16 27 37q10 10 21.5 20.5t21.5 18.5q40 32 67 44.5t42.5 18t31 12.5t28 14t22.5 11q44 18 86 25l111 10h33q40 0 76 -5t60 -8q59 -7 78 -11 l43 -13q14 -4 27.5 -7t25 -6t32 -14.5t42.5 -24.5q56 -32 68 -42t23.5 -22.5t21.5 -23.5t18.5 -18.5t18.5 -18.5q15 -17 30 -41.5t22 -35t12 -20.5t10.5 -30.5t10.5 -43t10 -46t4 -37t1 -28.5t5 -30q7 -35 7 -56q0 -132 -86 -143h-137l-139 -8l-113 8l-65 -4l-137 4 q-20 0 -48 -5t-28 -36q0 -25 45 -46q42 -19 86 -19l35 2l45 -2h14q6 0 19 -3t23.5 -4.5t22 -2.5t28 0t33.5 1h36l82 -2h47q18 4 35 10q40 13 70 13t48.5 -18.5t18.5 -47.5l-8 -125l8 -94q0 -44 -17.5 -60t-27.5 -19t-28.5 -8t-45 -10t-56.5 -8q-50 -5 -107.5 -6t-67.5 -1 l-29 -2l-90 -2q-2 0 -15.5 1t-28.5 2t-32.5 3t-25.5 4q-22 6 -37 6t-28 4t-25.5 8t-27.5 8t-28.5 5.5t-30.5 5.5l-81 26q-23 9 -62 33q-25 12 -41 21.5t-29.5 17.5t-24.5 17.5t-30 24.5t-41 44t-44 59q-48 70 -58 92.5t-17.5 45t-15.5 50.5q-20 68 -20 94zM520 797 q0 -39 66 -39l37 2h47l41 4l63 -4q31 0 45.5 13t14.5 25q0 45 -94 58q-29 4 -44 4q-30 -6 -41 -6h-47q-29 0 -58.5 -9t-29.5 -48z" />
<glyph unicode="f" horiz-adv-x="811" d="M49 182l8 142l-4 104l4 70v15l2 65v58l-4 124q-2 18 -2 23v12l4 77l-2 70q-6 61 -6 110q0 103 13.5 150t28.5 69.5t43 54.5q73 86 169 110q12 2 23.5 3t23.5 4q32 8 49.5 11.5t30.5 3.5h29l84 -2h57q112 0 176 -36q27 -16 33 -47.5t6 -67.5v-39l2 -39q0 -112 -48 -139 q-15 -9 -33 -9q-32 0 -46 3q-65 14 -69 14q-43 0 -43 -41q0 -54 61 -54l61 5q71 0 84 -45l4 -93v-22l9 -105q0 -79 -23 -112q-22 -37 -80 -37l-53 4q-49 0 -58 -18q-12 -23 -12 -74l4 -74l-2 -59l5 -70l-7 -73v-92q0 -11 2 -21l5 -23q2 -12 2 -20t-2.5 -22.5t-12.5 -25.5 q-24 -28 -65 -28t-99 4l-73 2l-172 -10q-60 0 -76 24q-25 25 -28 71t-3 95z" />
<glyph unicode="g" horiz-adv-x="1449" d="M20 638q0 48 2.5 73.5t3.5 42t2 34.5q7 131 109 232q31 29 48.5 46t29.5 28q16 13 36.5 24.5t42 17t39 11.5t29 12t22.5 10q47 17 108 17h36q14 -2 28 -2h34q211 0 284 -88q19 -19 29.5 -19t16.5 19q0 73 84 73l133 -8h19q9 0 20 2l77 8q116 0 135 -77q5 -17 5 -25 l-9 -143l11 -156l-9 -160l9 -198l-6 -170l2 -62v-16t-3 -19.5t-3.5 -16.5t-3.5 -19q-28 -129 -142 -211q-45 -34 -79 -43q-82 -22 -222 -25l-150 -12l-88 2h-30l-162 8q-36 4 -64.5 7t-42.5 5t-26.5 4t-25.5 6.5t-32.5 10.5t-37 12t-46 14t-66.5 27.5t-38 62.5q6 57 8 77 t2 48v54q0 33 22.5 49t49.5 16q50 0 119.5 -27.5t84.5 -32.5t27 -8q22 -6 42.5 -7t38.5 -1t34 -2l78 -8l27 2l24 -2q4 0 18.5 3t27.5 4t27.5 3t28 3.5t33 4.5t25.5 18t6 22t-11.5 18.5t-19.5 11.5q-29 0 -69 -10q-25 -2 -42 -2h-63l-51 -2l-72 4q-34 0 -99 20.5t-87.5 27.5 t-37.5 13q-23 11 -54 27q-33 17 -60.5 42t-36 31.5t-25 19.5t-35.5 45t-35 69q-34 82 -34 130zM532 674q0 -54 54 -74q27 -10 69 -10h101q45 0 72.5 19t36.5 31.5t9 38.5t-14 38t-32 21q-62 30 -93 30l-51 -4l-51 4q-57 0 -89 -45q-12 -18 -12 -49z" />
<glyph unicode="h" d="M49 809l8 96v62l4 102l-4 221v70q0 35 12.5 48t17.5 19.5t15 9.5q25 7 55 7h43q13 0 25 -2l27 -2l37 2l73 -6l98 8h11q64 0 86 -31q18 -22 18 -74l-2 -45l2 -34l-10 -136q0 -37 25 -37q10 0 18 6.5t16 12.5q40 28 63 34.5t31.5 11.5t14.5 7t19.5 5t31.5 6q40 8 74.5 8 t48.5 -7l27 3q40 0 90.5 -23t53.5 -25t29 -19t39 -32.5t31.5 -45.5t36.5 -71q39 -91 43 -184q2 -6 1 -30.5t-1 -33.5v-18l7 -53q2 -12 2 -25v-24l2 -31v-21q0 -16 -2 -20l2 -45l-8 -81v-21l2 -62l-7 -86l15 -137q0 -35 -18.5 -64.5t-75.5 -29.5l-160 10l-117 -8 q-52 0 -104.5 14t-53.5 68l9 47l-2 72l6 96l-6 67q-3 15 -3 30v28l3 58v20q0 92 -42 128q-23 21 -51 21q-58 0 -75 -49q-7 -21 -10 -47.5t-5 -42t-2 -21.5l6 -69v-92q0 -9 -1 -17t-7 -35l-2 -26l2 -33l10 -111q0 -59 -22.5 -81.5t-61.5 -22.5t-71 4l-62 2l-43 -2l-73 2h-21 q-40 -8 -65 -8t-46 6q-23 13 -47 49q-8 24 -8 76v12q2 20 2 31v29l4 45l2 50v56l-6 103l4 53v28l2 58l-2 57v37z" />
<glyph unicode="i" horiz-adv-x="641" d="M53 137l6 117q-6 66 -6 94v113l8 184l-2 49q-4 29 -5 36t-1 16v21l2 61v46l2 86v93l-4 41q0 77 113 77q31 0 39 -4l39 2l71 -4l80 2l78 7q66 0 84 -38q16 -32 16 -132l-6 -164l6 -150v-119l-6 -112l4 -66v-98l-2 -59l9 -115q0 -78 -54 -107q-29 -16 -69 -16l-119 6 l-154 -8q-56 0 -92.5 24.5t-36.5 116.5zM63 1380q0 35 16.5 50.5t29 16.5t47.5 1l61 2l98 -6q40 0 54 4h34l58 4q56 0 82 -14q10 -8 16 -17.5t10 -44.5l2 -60v-50q0 -60 -69 -60l-62 4l-84 -2h-71l-56 2l-88 -4q-41 0 -57 14.5t-18 37.5q-3 36 -3 122z" />
<glyph unicode="j" horiz-adv-x="681" d="M0 242q0 37 5 58q12 50 52 50l33 -6q2 0 13.5 4t11.5 21l-2 73l4 189q-2 20 -2 33l-2 34q-2 8 -2 22v89l8 63l2 29l-12 154q0 96 60 108q30 6 79 6l51 -4h15l58 -2h17l88 6h70q73 0 80 -89q2 -25 2 -40v-30l-2 -62v-82l-9 -125l9 -143l-4 -131q0 -95 10 -240l-4 -61 q-2 -23 -2 -47.5t-4 -36.5q-24 -72 -38.5 -91t-26.5 -31q-32 -32 -52 -42l-72 -27q-10 -4 -28.5 -7t-37.5 -6q-43 -7 -53 -7h-23l-54 2h-19q-113 0 -184 51q-33 23 -33 66v28l2 86v29zM111 1278l2 53l-2 45q0 25 14 41.5t16 16.5q30 10 59 10h36l63 -2q40 -4 63 -4l164 8 q97 0 97 -53q2 -12 2 -31v-84q0 -70 -78 -70l-49 2l-107 -6l-125 4l-69 -4q-55 0 -70.5 16.5t-15.5 57.5z" />
<glyph unicode="k" d="M51 506l8 100v146l-6 172v24q0 13 2 25l11 192v31l-9 104q0 75 15 101q27 49 90 49h20l66 -2h22l105 4l55 -2l74 2q55 0 67 -52q11 -49 11 -77l-7 -123q0 -3 7 -59l2 -58l-4 -145q0 -35 4 -59.5t28 -24.5q38 0 80 72q33 57 34 70q5 60 10 73.5t7 20.5q26 84 97 84h22 q9 -3 23 -3l39 3q14 2 28 2h32l60 -2h21l111 4q51 0 79 -35q19 -27 19 -55q0 -9 -2 -18q-7 -33 -12 -44.5t-14 -32t-16 -41t-14.5 -44t-15.5 -44t-13 -34.5q-16 -46 -26 -62q-19 -32 -33 -53.5t-36 -51.5q-33 -47 -33 -68t9 -36.5t20 -32t29 -37t26 -33.5t12 -18.5t12 -15.5 t13.5 -21.5t11.5 -25t12 -29.5q12 -33 19.5 -46t16.5 -27.5t19.5 -30t18.5 -27.5t12 -14q4 -8 10.5 -13.5t9.5 -10.5q27 -45 27 -88.5t-34 -65.5q-4 -4 -28 -13.5t-40 -9.5l-109 8l-34 -2l-74 6l-156 -12q-46 0 -90 55q-8 10 -14 22.5t-16 23.5q-41 48 -51.5 68.5t-19.5 38 t-23.5 39t-31 21.5t-32 -5t-15.5 -34v-79l6 -58q0 -16 -6 -30.5t-11 -25.5t-17.5 -18.5t-25.5 -10.5q-22 -5 -42 -5l-149 8h-22l-120 -10q-127 0 -127 111l6 86q-6 78 -6 112l2 80z" />
<glyph unicode="l" horiz-adv-x="641" d="M49 133l4 121q2 23 4 47.5t4 46.5l2 103l-2 47l5 55l-7 119l9 127l-7 139v30l2 92v32l5 73l-2 31l-11 127q0 36 27 87q18 35 73 35h9q22 -1 31 -1l34 2l29 -2l45 2l98 -6l101 6q45 0 58 -18q28 -41 28 -82l-4 -82q-2 -23 -1 -45.5t-1 -38.5q-4 -32 -4 -50l6 -57 q2 -6 1 -27.5t-1 -27.5l2 -84l-11 -109l5 -55q2 -10 2 -37l2 -65l-6 -86q0 -6 1 -21.5t2 -32l2 -33t1 -22.5l-4 -96l2 -41l-2 -49v-2l16 -133v-21q0 -43 -11.5 -67.5t-16.5 -30.5q-25 -30 -63 -31.5t-42 -1.5h-19l-108 4l-146 -8q-97 0 -132 72q-9 18 -9 65z" />
<glyph unicode="m" horiz-adv-x="1921" d="M55 1047q0 61 19.5 92.5t83.5 31.5l111 -6h55l102 9q100 0 100 -66q5 -39 29 -39q8 0 14 9q25 38 66 62.5t57 28.5t24.5 4.5t16.5 2.5l31 6q20 4 37 4q57 0 85.5 -7t41.5 -11q33 -12 47 -14.5t25 -7.5q36 -17 58.5 -32.5t37 -29t32.5 -15.5h5q11 0 31.5 18t62 45t55.5 33 t29.5 9.5t34.5 6.5q43 7 59 7l49 -4q8 -2 15.5 -1t21.5 0q17 -1 69 -20.5t69.5 -26t33.5 -18.5t27.5 -22.5t22.5 -19.5t18.5 -15t24.5 -21q31 -30 61 -122q4 -10 5 -19.5t5 -20.5t9 -21.5t9 -21.5t7 -25.5t6 -29.5q6 -25 6 -36v-74l4 -29l-6 -39v-117l4 -131l-6 -118 l14 -168q0 -65 -50 -72q-14 -2 -26 -2l-80 8l-86 -6l-49 2q-16 2 -29 2h-20l-51 -2q-32 -4 -54 -4q-57 0 -75 35q-13 19 -13 104l7 80v63q-11 88 -11 130v67l2 55q0 47 -14 70q-25 25 -41 25q-32 0 -47 -15q-29 -18 -29 -69v-15l2 -51v-111q0 -22 -2 -34l-10 -86 q0 -23 4 -47l8 -91q0 -95 -72 -105q-22 -3 -43 -3h-40l-103 10l-92 -4q-24 -6 -63 -6q-97 0 -97 88l5 33l-7 47v16q0 13 2 17l-2 51l4 53v31l3 47l-5 70l7 51l-5 26v17q0 47 -22 69q-4 4 -23.5 15.5t-36 11.5t-35 -22.5t-18.5 -65.5l4 -64v-28l2 -45v-19l2 -28l-2 -41 q0 -13 -3 -24q-7 -26 -7 -83l8 -76q0 -31 -5 -51t-6 -34.5t-9 -30.5q-15 -31 -62 -31l-79 10h-42l-84 -2h-26l-84 -8q-64 0 -96 32q-15 15 -15 56l3 48l2 48l-7 113v103l-2 88v140q0 9 2 19l7 72l-9 147q-2 23 -2 44v34l2 64z" />
<glyph unicode="n" horiz-adv-x="1366" d="M45 1010q0 34 12.5 79.5t29.5 58.5q37 28 77 28q4 0 31.5 -3.5t38.5 -3.5l46 -2h9l37 2q12 2 23 2h48q4 -2 9 -2h10q18 0 26 2h27q47 0 57.5 -20.5t14.5 -48.5q6 -39 16 -39q7 0 33.5 32t64 52t73.5 31q63 18 99 18l95 -10h40q87 0 160 -62q60 -48 74 -72t22.5 -39 t25 -41t19.5 -34t6 -29.5t6 -32.5t5 -28t4 -33v-110l10 -117l9 -160q0 -41 -5.5 -75t-7.5 -51t-3 -28.5t-1 -19.5v-20q0 -34 5 -67.5t7 -45.5t2 -33t-10 -43t-17 -31q-15 -18 -63 -18l-71 4l-103 -8q-13 0 -43 4l-45 2h-15q-11 0 -26 -2l-41 -2q-48 0 -70 18q-36 28 -36 74 l12 107l-2 69l6 92l-10 107v26q0 109 -58 152q-19 14 -48 14t-44.5 -19.5t-19.5 -35.5t-4 -31.5t-2 -29.5l-10 -78l10 -131l-6 -121v-17l14 -114q0 -51 -39 -70q-24 -12 -55 -12l-125 14l-84 -10l-72 4l-82 -6q-56 0 -79 38q-11 20 -11 68l10 170l5 120v24l-9 129l4 35 l7 161q0 38 -10 128q-13 107 -13 141z" />
<glyph unicode="o" horiz-adv-x="1449" d="M23 560v18q0 65 6 87.5t9 35t7 23.5t6 24.5t6 23.5l13 31q4 10 7 19t9 22.5t18 27.5q17 17 34.5 47.5t25.5 42t50 51t68.5 58t40 25t28 12.5t26.5 12t27.5 13t30 13.5t25.5 11.5t22.5 7t36 7t36.5 7.5t34.5 5.5t34 4t35 5t55.5 4h46q12 0 37 -1t39 -5l86 -21 q98 -16 112.5 -22t53.5 -25q88 -44 151 -118q2 -2 21.5 -23.5t31.5 -32.5q42 -41 54 -72.5t20 -50.5t19.5 -38t16.5 -36t6 -30.5t6 -31.5t7 -30q6 -36 6 -67q0 -75 -8 -102t-12 -41.5t-8 -27.5t-6 -20l-7 -30q-2 -6 -15 -33t-19 -40t-13.5 -23t-20.5 -29t-24 -34 q-31 -45 -41 -53.5t-21 -17t-24 -17.5q-38 -25 -48.5 -33.5t-26 -24t-26.5 -22.5q-46 -29 -68.5 -35.5t-35 -7.5t-22.5 -4t-20.5 -6t-20.5 -7l-82 -15h-65l-50 -2l-26 2q-8 2 -18 2h-23l-10 -2h-7l-71 6l-41 7q-12 4 -24.5 3t-30.5 3q-26 6 -65.5 27.5t-54 27.5t-32.5 14 t-31.5 16.5t-26.5 19.5q-33 26 -100 102q-14 10 -24 23t-15.5 17.5t-8.5 7.5t-9 12t-15 21q-27 41 -39 79t-15 48.5t-4 22.5t-4 29t-11 38t-11 37.5t-3 27.5zM547 585.5q0 -50.5 29.5 -78.5t50 -35t30 -8t31 -9t35.5 -9l37 5q54 8 77 20t41 29q40 41 40 82q0 7 -11.5 37 t-17.5 37.5t-18.5 14.5t-40.5 25q-45 27 -74 27l-41 -6l-29 2h-13q-22 0 -61 -29l-24 -18q-41 -36 -41 -86.5z" />
<glyph unicode="p" horiz-adv-x="1492" d="M47 1040q0 125 96 125h62q32 -4 67 -4l84 6l43 -2l43 2q35 0 53.5 -15t21.5 -19q5 -6 15 -27q14 -14 23.5 -14t21 7t19.5 14t17 11q92 41 111 44t28 3l59 13l70 4q81 0 135 -18q111 -38 127 -47q26 -15 44.5 -28t30.5 -19q13 -6 46 -36q8 -8 14 -17q13 -20 37 -38 q44 -44 68 -97.5t37 -78.5q30 -61 30 -68q16 -80 16 -161q0 -30 -3 -48t-6 -36.5t-8 -39t-9 -38t-7 -26.5q-6 -18 -25 -57.5t-27.5 -51t-14.5 -25.5q-14 -20 -27 -51q-29 -45 -74.5 -84t-82.5 -55l-25 -13q-10 -4 -20.5 -11t-20.5 -13q-24 -8 -38 -13q-38 -16 -59.5 -23 t-100.5 -7l-70 -4h-68q-93 0 -172 34q-20 9 -28 9t-16.5 -8.5t-8.5 -20.5l10 -102q0 -49 -31.5 -63.5t-61 -14.5t-71.5 4l-63 2l-84 -4l-74 4l-57 -2q-43 0 -57.5 13t-14.5 73l10 94l-6 109l4 86v82l-4 81l2 76v33l2 82l-4 92v17l2 58v19l2 56q-2 12 -2 20v105q0 12 -2 26z M571 583q0 -44 13 -61q31 -40 55.5 -46.5t38.5 -6.5h55l53 -8h11q40 0 73 25q62 48 62 104q0 20 -6 34.5t-8 24.5q-8 12 -40 39t-73 27l-53 -6l-47 6q-35 0 -53.5 -11.5t-37 -26.5t-31 -32.5t-12.5 -61.5z" />
<glyph unicode="q" horiz-adv-x="1492" d="M23 559v53q0 67 14 99t19 51.5t9.5 33t11.5 36.5q16 50 48 92q4 8 24.5 29.5t26.5 29.5l31 37q40 40 82 65l45 25q16 10 30.5 16.5t32 15.5t63.5 23.5t81 18.5l94 6q19 0 35 -3t28.5 -5l37.5 -6q83 -14 130 -58q33 -33 43 -33q4 0 9.5 8.5t9.5 12.5q2 4 2 9t4 12 q17 30 31 36q39 17 110 17l58 -2q36 -4 58 -4t66 4l68 2q113 0 113 -88l-8 -70q0 -8 -3 -35l-6 -72l6 -137q5 -25 5 -33v-73l4 -103l-2 -73l6 -134l-8 -98q-2 -18 -2 -38v-40q-5 -45 -5 -54v-50l7 -84q0 -8 5 -26q9 -31 9 -52t-10 -46q-15 -35 -43.5 -40.5t-51.5 -5.5l-77 4 l-52 -2l-57 2l-78 -4h-86q-51 0 -65.5 16.5t-14.5 49.5l7 61v31q0 16 -11.5 32.5t-28.5 16.5q-25 0 -61 -17q-47 -23 -103 -30.5t-66.5 -7.5t-39.5 2l-45 -2q-19 0 -32 3t-23 5l-31 6q-6 2 -21.5 7t-32.5 12t-30.5 12.5t-23.5 11.5t-30 17.5t-30 20.5t-17 16t-16.5 15 t-21.5 14.5t-24 16.5q-54 43 -68.5 67.5t-21.5 33t-14 14.5t-13 15q-28 43 -45 89l-13 50q-32 80 -32 153zM559 569q0 -31 19 -65q21 -39 92 -58q24 -6 36.5 -6t30 2t37 5.5t36.5 6.5t29.5 9t43 34.5t30.5 70.5q0 67 -63 104q-4 2 -18.5 6t-31.5 9q-46 13 -59 13l-28 -6 q-6 -2 -28 -3t-40 -7t-30.5 -13t-19.5 -17.5l-15 -22.5q-21 -31 -21 -62z" />
<glyph unicode="r" horiz-adv-x="937" d="M49 1041.5q0 47.5 12.5 74.5t30.5 39q23 16 72 16h32q15 0 31 -2l62 -2h10l121 9q43 0 54 -6q31 -15 38 -54q2 -10 6 -25.5t17 -15.5q10 0 29 20q22 24 45 43q40 33 128 38h43q8 4 52 4t60.5 -11.5t28 -27.5t14.5 -30.5t3 -68.5l-8 -102l8 -113q0 -59 -16 -99 q-26 -64 -91 -64q-47 0 -85 10q-46 12 -73.5 12t-48 -12t-29.5 -28q-13 -22 -13 -50l2 -55l-4 -72l6 -72l-6 -90l14 -170q0 -85 -38 -119q-19 -18 -60 -18l-170 8h-30l-112 -14q-99 0 -125 61q-8 20 -8 66l6 61q2 14 2 28.5t3 37.5q4 31 4 98l-3 64l-2 67l-4 90l9 168 q0 39 -3.5 74.5t-5.5 63.5t-4 59q-4 62 -4 109.5z" />
<glyph unicode="s" horiz-adv-x="1024" d="M57 322q0 41 7 56q16 39 34.5 56t39.5 17q30 0 52 -9q10 -4 19.5 -7t21.5 -7t25.5 -6t25.5 -6q26 -8 57 -22q54 -23 89 -23q47 0 47 26q0 33 -41 43q-50 9 -94.5 30.5t-62 28.5t-29.5 12q-51 21 -81 61q-10 13 -24 25.5t-31 39.5q-33 56 -38 84l-13 98q0 35 9 76 q5 59 29 88q29 35 38.5 50.5t16 21.5t18.5 14t16 12t10.5 9.5t11.5 10.5q10 10 32 21l30 15q8 4 14.5 7t21.5 11q42 21 112 27h33l34 6h15l54 2h15l76 -6q16 -2 33.5 -2t28 -1t28 -6.5t37 -10.5t36.5 -9q83 -20 94 -50t11 -69l-2 -45v-71l2 -58v-15q0 -91 -88 -91 q-17 0 -70 16t-72 21.5t-31 8.5q-19 5 -36.5 5t-23.5 -11.5t-6 -18.5q0 -11 21.5 -22.5t38 -17.5t33.5 -12q44 -16 70.5 -29.5t45.5 -21.5t40 -16.5t37 -20.5q19 -14 48 -45q28 -39 43.5 -54.5t21.5 -31.5q31 -83 31 -136t-4 -71t-16.5 -51t-21.5 -52.5t-33.5 -49t-35 -42 t-20.5 -19.5t-21.5 -13t-24.5 -12.5t-23.5 -12.5t-18.5 -10t-24.5 -9t-34.5 -12q-47 -16 -56.5 -18t-23.5 -2l-93 -16h-88l-16 -3h-31.5t-36.5 2.5t-39 4.5q-34 4 -47.5 7t-21.5 4t-20.5 4t-26 6t-33 9t-43.5 10q-95 18 -103 61q-2 11 -2 31v58l2 80z" />
<glyph unicode="t" horiz-adv-x="811" d="M0 866l6 66q0 37 -6 61l2 54l-2 34l4 56q8 38 62 57q86 38 112.5 61t38.5 32t23 19q16 12 35 27q30 21 60 54q44 48 53 51.5t15.5 4.5t19.5 2t37 1h69t38 -4t20.5 -9.5t11.5 -19.5q5 -23 5 -104l-2 -58q0 -72 41 -76q10 -1 19 -1l55 2h31q35 0 46 -19.5t11 -34.5l-6 -84 l4 -65l-6 -55l6 -64q0 -52 -61 -64q-13 -2 -21 -2l-62 5q-35 0 -45 -14.5t-10 -41.5l2 -47l-4 -59l4 -60l-4 -75q0 -76 43 -76l49 4l25 -2l18 2q16 0 40 -12.5t24 -42.5l-6 -70v-25l8 -71l-6 -58l4 -39q0 -56 -43 -81q-29 -15 -68 -25l-151 -12h-17q-8 0 -18 -2l-47 -2 q-50 0 -76 6t-39.5 6t-23 1t-23.5 5t-29.5 8t-29.5 7q-25 6 -37 13t-18.5 11t-8.5 4q-34 29 -41.5 38t-13.5 17t-12.5 33t-9.5 52.5t-3 52.5v41l4 114l-6 135l8 183q0 98 -48 98q-13 0 -31.5 14.5t-18.5 42.5z" />
<glyph unicode="u" d="M55 480v98l8 90l-2 102v20l-2 60v20l2 93l-2 67q0 96 37 122q27 19 66 19l127 -8q11 0 41 4l39 2l55 -2l61 4q27 0 65 -16q46 -19 46 -86v-33q0 -14 -4 -35l-2 -45v-32l4 -72l-10 -104v-35q0 -86 15 -143.5t65 -57.5q20 0 39.5 21.5t22.5 47t5 56.5l2 33q4 20 4 35 l-6 131q0 34 10 92v41l-4 114q0 93 72 93l72 -9q15 0 45 4l47 3h16l53 -3h19l108 7q49 0 80 -35q27 -36 27 -68l-12 -84l-2 -33q0 -12 -2 -32l2 -35l-5 -60v-65l9 -162l-9 -135l3 -98l-7 -127q0 -54 5 -74q12 -42 12 -59v-11q0 -54 -31 -82q-24 -18 -63 -18h-54l-62 2h-22 l-123 -6h-34q-61 0 -80 39q-6 10 -8 20.5t-9 20.5q-8 20 -20 20q-5 0 -25 -22q-37 -39 -53 -47q-19 -10 -44 -17.5t-32.5 -9.5t-25.5 -8q-38 -12 -98 -12t-80 4l-119 24q-12 4 -23.5 11.5t-26.5 14.5t-29.5 14t-27.5 16q-28 19 -45.5 45t-28 41.5t-18.5 33.5q-22 47 -22 119 q0 11 1 23q1 27 -3.5 61.5t-6.5 51.5t-2 41z" />
<glyph unicode="v" horiz-adv-x="1280" d="M0 1091q0 27 8 48.5t41 29.5q6 2 13 2h47t26 -2l27 -2l84 7l98 -7l88 7q80 0 106 -70q25 -71 26 -92t2 -50.5t4 -42.5t9.5 -27.5t11.5 -33.5t5 -40t4 -40.5t8 -34t8 -28.5t5.5 -27.5t4.5 -24.5t6 -23.5t3 -20t2 -20.5q7 -46 22 -46q8 0 10.5 9t5.5 26.5t2 23.5t1 12.5 t2 9.5t1 25.5t5 38.5q0 20 4 43t7 43.5t9.5 38.5t9.5 29.5t6 18.5t5 20.5t4 28t4 28t4 25.5t6.5 30.5t8.5 40.5q9 46 25.5 72t23 31.5t21.5 12.5q34 16 87 16l76 -5l43 3l68 -7h28l66 7q56 0 82 -42q12 -20 12 -49t-4 -42t-6 -20l-4 -14t-3 -15.5t-4 -16.5t-6.5 -14.5 l-10.5 -19.5q-18 -34 -26 -81q-16 -106 -32 -145t-23.5 -62.5t-10.5 -40.5q-5 -30 -12 -53.5t-12 -42.5t-9.5 -31t-13.5 -36.5t-14 -42t-10.5 -29.5t-10.5 -20.5t-11 -20.5t-12.5 -30.5t-10.5 -30t-8 -28t-10 -33.5t-11 -33.5t-8 -24.5t-7.5 -17.5t-8.5 -22.5t-9 -29.5 t-18 -44.5t-39 -37t-30 -9h-41l-43 2h-31q-33 0 -41 4l-41 -2h-172l-63 -2q-89 0 -117 68q-8 20 -11 32t-9.5 29.5t-12.5 36.5q-14 44 -19 57.5t-12.5 27t-11.5 27t-6 24.5l-4 22l-27 98q-26 65 -37.5 88.5t-16.5 39t-10 29t-8 22.5t-10 25.5t-13.5 41t-14.5 46t-16.5 40 t-14.5 37t-10 37t-9 30.5t-6.5 18.5t-4.5 12.5t-6 19.5t-6 27.5q-12 56 -23 80q-23 50 -23 77z" />
<glyph unicode="w" horiz-adv-x="1792" d="M-2 1094q0 82 94 82l64 -2q23 -2 40 -3.5t25 -1.5h35l78 9h63q51 0 69.5 -28t27.5 -56q9 -34 26 -78q8 -14 16.5 -27.5t12.5 -26.5t7 -26.5t8 -28t14.5 -30t14.5 -28.5t6 -25.5t6 -33t14.5 -45t15.5 -44t15 -43t25.5 -23.5t25 10t13.5 25q11 31 11 49t-5 35.5t-11.5 34 t-10.5 32.5l-22 80q-4 14 -6 29q-4 31 -13.5 49t-15.5 33.5t-10 34t-11 35.5q-12 26 -12 49.5t17.5 38t44.5 14.5l78 -8h20l62 -2h20l61 2l74 6q37 0 61 -12q35 -17 60 -83q6 -20 7 -40.5t5 -35.5t5 -24.5t4 -19.5t4.5 -18.5t5.5 -21.5t11 -30.5t9 -27t7 -30t10 -45.5 q25 -110 47 -110q9 0 14 23q2 31 6 55q8 46 8 58v20q0 10 2 20l4 43v29q0 16 9.5 52.5t10.5 56.5t7 59q11 76 102 76h25q10 -2 17 -2h10l82 6q6 0 20 -1t30.5 -2l33 -2t22.5 -1h72q100 0 100 -76q0 -36 -10 -56t-17.5 -31.5t-10.5 -18.5t-8 -29.5t-11 -48.5 q-16 -73 -17.5 -89t-3.5 -29q-8 -49 -18 -90q-15 -59 -21 -86.5t-16 -59.5t-23 -68q-21 -61 -34.5 -110.5t-37.5 -111t-32 -94t-12 -51.5t-7 -34t-8.5 -31.5t-16.5 -29.5q-27 -34 -81 -34l-61 4l-62 -2l-71 2l-113 -4q-66 0 -92.5 22.5t-32.5 33.5t-17 48t-20.5 56.5 t-23.5 19.5t-17.5 -8t-6.5 -20q-6 -23 -13.5 -41.5t-13 -39t-14.5 -35.5q-22 -36 -69 -36l-84 8h-51l-43 -2q-10 -2 -20.5 -3t-20.5 -3h-67q-69 0 -92 21.5t-32 42t-17.5 42.5t-13.5 43q-10 40 -24 71.5t-20 46.5t-7 24.5t-5 18.5t-11.5 31.5t-16.5 48.5t-17.5 49.5 t-11.5 36.5t-6 30q-12 67 -28 86.5t-19 27.5t-5 15.5t-4 12.5t-6 18.5t-9.5 29t-9.5 28.5t-11 34q-27 82 -44 114q-31 54 -37 67t-12 23q-11 20 -15 35t-12 39q-14 43 -14 62z" />
<glyph unicode="x" horiz-adv-x="1280" d="M0 61.5q0 24.5 4 41.5t18.5 33t28.5 33t24.5 39t17.5 35t16.5 27.5t19.5 29.5t18.5 28.5t13.5 22.5t10 20.5t10 20.5t9.5 15.5t8.5 14.5t9 17.5t12 22.5t17.5 25.5t19.5 25.5t14 25.5t15 29.5q17 25 17 47q0 36 -37 75q-6 10 -12 17.5t-14 21.5q-9 15 -25 35t-23.5 32.5 t-16.5 23.5q-18 22 -39 46q-31 33 -52 77q-24 52 -45 84t-27 44t-6 29q0 20 15.5 38.5t24.5 24.5t38 6l51 -4h17l53 2h18l76 2l78 -4l69 4q49 0 74 -30q14 -14 33 -49l18 -31q10 -12 16.5 -25.5t11.5 -24.5t11 -23.5t14 -12.5q10 0 22 25q35 71 56 95.5t30 41t25.5 26.5 t71.5 10l115 -4h39l59 -2l127 6q39 0 53.5 -8t25.5 -21q26 -31 26 -57.5t-11.5 -46.5t-22.5 -37.5t-21.5 -31t-21.5 -33t-22.5 -39.5t-29 -53t-37.5 -58.5t-28.5 -38t-18.5 -25.5t-19.5 -24.5t-12.5 -16.5t-9 -16.5t-12.5 -23.5t-12.5 -24.5t-12 -22.5q-14 -23 -14 -31 t6 -17t18 -26t23.5 -33t21.5 -29q13 -16 32 -46.5t31.5 -44t22.5 -25.5q35 -42 48 -72q29 -72 55 -103t36.5 -48t10.5 -41q0 -78 -92 -78l-82 4l-84 -4l-82 2l-105 -4q-35 0 -59.5 13.5t-38.5 44t-19 40.5t-9.5 18.5t-18.5 33t-17 34.5q-14 47 -34 47q-15 0 -40 -58 q-3 -7 -18 -24q-10 -16 -20 -31.5t-17 -29.5t-12 -28q-10 -32 -26.5 -47t-61.5 -15l-43 2q-14 2 -27 2h-38l-66 -2h-22l-76 4l-78 -4q-51 0 -69.5 19.5t-18.5 44z" />
<glyph unicode="y" horiz-adv-x="1236" d="M8 1081.5q0 30.5 4 38.5t13.5 17.5t18.5 16.5t26 12q32 10 91.5 10t104.5 -9h35l131 7q58 0 80 -37q16 -23 28.5 -62t18.5 -58t7 -27q2 -20 15 -55t19 -61t10 -49.5t7.5 -41t5.5 -30.5t4 -28.5t7 -15.5t10 7t5 13t4 39q10 84 33 148q49 144 51 176t15 53q19 29 71 29h23 q20 0 37 -3l53 -6q73 0 154 11q85 0 113 -28q26 -26 26 -51q0 -31 -17 -75q-22 -62 -31 -101q-17 -74 -28.5 -111.5t-14.5 -48.5t-7.5 -23.5t-10.5 -28t-13 -35.5t-13.5 -38t-10.5 -33t-18 -47t-29.5 -68.5t-30 -70.5t-20.5 -54.5t-12 -48t-13.5 -47t-10.5 -31t-9 -29 t-12 -42t-13.5 -44.5t-9.5 -27.5t-11 -25.5t-14.5 -36t-11.5 -26t-14 -18.5t-18.5 -22.5t-20.5 -24.5t-31 -32.5q-84 -75 -187 -75h-13q-21 1 -54 1h-104l-84 -4l-80 2q-29 0 -51.5 4t-46.5 24q-37 29 -37 87l2 39l2 45l-4 112q0 58 18 103q25 45 64 45l84 -19q31 0 31 31 q0 39 -30 88q-35 60 -50.5 111t-30 80t-25 49t-17.5 34.5t-15.5 34t-17.5 43l-18 47t-14.5 36.5t-8.5 24.5t-11 34t-25.5 55.5t-28.5 58q-24 53 -24 83.5z" />
<glyph unicode="z" horiz-adv-x="980" d="M53 203v76q0 47 86 133q10 10 22.5 19t20.5 17.5t23.5 30t32.5 45.5q43 60 69 91q47 56 47 81t-28 25l-33 -2l-98 8l-48 -2q-36 0 -49 19q-16 24 -16 47v22l-2 69v23l2 64l-2 55q0 66 18.5 104.5t83.5 38.5l150 -10h19l89 10q6 2 17 2h78l204 -10l76 6q4 2 22.5 1 t24.5 -1l47 2q18 0 37 -16t19 -61l-2 -58l4 -168q0 -39 -31 -80q-5 -11 -23 -26q-10 -16 -24.5 -37t-22.5 -35q-12 -21 -20 -34t-16.5 -21t-14.5 -15.5t-13 -18.5t-16 -25q-55 -84 -55 -96.5t8.5 -21t22.5 -8.5l35 3h26l103 10q65 0 65 -76l-4 -137l6 -117q0 -129 -88 -129 l-53 2h-20l-60 -2h-98l-107 6h-21l-68 -2h-23l-45 -2l-45 2l-70 -2l-53 2l-90 -4q-47 0 -72 22.5t-25 59.5l2 51z" />
<glyph unicode="{" horiz-adv-x="937" d="M33 635l4 47l-2 51q0 57 35 70h30q13 0 41.5 10t35.5 15q8 7 28.5 39t26.5 64t8 85l6 74l-6 55q0 17 3 38t5 35.5t4 22.5t10 25.5t18 35.5q24 48 36.5 57t21 14t14.5 11q7 7 18 14t34.5 17t33.5 15q10 4 20.5 4t23.5 3q38 9 51.5 11t42 1t38.5 -1l109 8q37 0 55 -6l62 2 q83 0 94 -31q6 -12 6 -57l-2 -39v-29l-4 -41l2 -53q0 -41 -24.5 -52t-37.5 -11h-28q-21 0 -32 -6.5t-20 -10.5t-19.5 -7t-18.5 -10t-24.5 -37t-16.5 -71l2 -55l-8 -51q-2 -6 -2 -13v-14q-10 -71 -62 -123q-4 -4 -8 -10t-9 -13q-16 -23 -49.5 -33.5t-42 -12.5t-28.5 -13 q-14 -4 -35 -8l-2 -22q41 0 80 -13q40 -14 58 -30.5t28 -26.5l31 -31q18 -30 22 -47.5t5 -22.5t5 -16q11 -26 12 -59t3 -67q5 -91 9.5 -101t21.5 -35q21 -31 55 -39q4 -2 9 -4t11 -6l17 -2l36 2q49 0 57.5 -34t8.5 -70l-6 -80l4 -56q0 -63 -64 -63l-51 2l-98 -6h-12 q-13 0 -37 4l-37 2l-45 -4h-49q-15 0 -41 3q-53 6 -72.5 15.5t-29 17t-19.5 12.5t-19.5 9t-29.5 15q-27 17 -49 79q-10 20 -20.5 40t-13.5 34t-5 30.5t-4 37t-4 38t-2 25.5v17q6 12 6 30l-6 52q-3 18 -3 51v6q-4 47 -20 69.5t-41 44.5t-35 26.5t-28 4.5l-29 -2q-45 0 -45 60 l2 45z" />
<glyph unicode="}" horiz-adv-x="937" d="M-4 -73q0 50 6 77l2 27l-4 41q0 41 20.5 56t36.5 15l31 -2q21 0 34 7.5t22 11.5t18 7q34 11 54 75q5 16 5 32l-2 68q0 19 6 38t5 27.5t0 20.5q5 57 46 96q9 8 15 16q39 48 82 62q6 2 11 2t13 3t18.5 8.5t22.5 8.5t25 1l4 24q-10 2 -26.5 4t-36.5 7q-63 18 -88 46 q-7 9 -22.5 24.5t-28.5 30.5t-17 34.5t-6 24.5q-12 30 -14.5 45t-2.5 29v42q0 35 -4 47v25q0 41 -6 56t-17 30.5t-16.5 20.5t-10.5 9q-36 29 -71 29l-30 -2q-49 0 -60.5 26.5t-11.5 79.5l4 68l-2 61q0 70 61 70h11q6 0 14 -2l25 -2l98 6l92 -6l23 2q6 2 12 2h10l55 -2 q75 0 115 -22q10 -4 20.5 -11.5t21.5 -13.5t20.5 -10t18.5 -11q34 -29 42 -45t11 -30.5t9.5 -23.5t9.5 -15t9 -17t10 -34l14 -121l-6 -45q0 -11 6 -41v-27l5 -57q0 -38 27 -70q53 -63 97 -63l25 2q36 0 45 -45l-2 -47l6 -56l-4 -43q-2 -6 -1 -27.5t1 -33.5q0 -34 -16 -53 q-10 -12 -18.5 -14.5t-22.5 -2.5q-75 0 -111 -59q-32 -61 -33.5 -89t-3.5 -59l-6 -80l6 -57q0 -112 -64 -195q-19 -24 -32.5 -30t-23.5 -14q-14 -14 -25.5 -20.5t-24.5 -10.5q-16 -10 -34.5 -12.5t-34.5 -5.5t-29.5 -6t-23 -5t-16.5 -2h-13l-62 2l-100 -8h-8l-29 4h-89.5 t-64 13.5t-20.5 18.5q-6 15 -6 65z" />
<glyph unicode="&#xa1;" horiz-adv-x="811" d="M82 232.5q0 104.5 14 169.5t23.5 101t11.5 57t2 40v40l2 67v71l12 205q0 91 85 100q20 2 32 2l74 -6h24l52 -4l37 4l69 -4l66 4q31 0 55 -24q25 -32 25 -109q0 -10 1 -28.5t2 -41.5q3 -63 15 -124q2 -10 2 -22l8 -87l8 -108q0 -6 2 -30q5 -42 9 -118q4 -25 8 -39l14 -129 q0 -27 -4 -50.5l-8 -47t-17 -47t-22.5 -31.5t-33.5 -23.5t-32 -18.5t-28 -3l-228 8l-102 -4q-83 0 -127 55q-2 0 -6 8.5t-10 18.5q-35 44 -35 148.5zM145 1350q0 62 29 84l21 10q25 10 47 10l86 -2l57 4q25 0 53 -4l80 2q4 0 16.5 -1t27.5 -2q36 -2 53 -7.5t34 -24t17 -45.5 l-2 -51l4 -72q0 -110 -68 -110l-49 2h-25l-86 4h-22l-66 -2h-22l-60 2l-61 -4q-31 0 -46.5 20.5t-15.5 46.5l3 47l-3 45z" />
<glyph unicode="&#xa2;" horiz-adv-x="980" d="M23 610q0 91 53 215q16 39 33.5 63.5t36 51.5t38 53.5t54 57t65.5 50t52.5 29t29.5 12.5t12 6t4 25v97q0 49 62 49l100 -4l39 2q57 0 73.5 -14.5t16.5 -49.5l-2 -67q0 -6 5 -9t36 -3l64 2q70 0 99.5 -24t31.5 -87v-25l-2 -80v-26l4 -113q0 -74 -21.5 -99.5t-62.5 -25.5 l-43 2l-68 -4l-45 2q-81 0 -113 -34q-32 -43 -32 -98t33.5 -78t76.5 -23h39l80 -6l62 4q92 0 92 -78l-2 -53l-4 -76v-23l8 -125q0 -118 -168 -118h-58q-6 0 -8 -4t-2 -31l2 -45q0 -16 -8 -41t-47 -25l-37 4q-41 4 -80 4h-80q-23 0 -34 23t-11 43l2 35v26l2 27q0 20 -12 27.5 t-36 16.5q-57 21 -117 85q-7 8 -15 19q-6 4 -11 8t-28.5 23.5t-51.5 49t-40 60t-17 44t-10.5 28t-10.5 25.5t-6 15.5t-3 16.5t-6 29l-8 41z" />
<glyph unicode="&#xa3;" horiz-adv-x="1150" d="M43 116v53l2 61v20l-2 53q0 12 4 29q6 25 46 34q20 4 47.5 19.5t47 36t19.5 76t-25 55.5h-69q-10 0 -28.5 5t-18.5 40l4 49l-11 168q0 37 19.5 48t23.5 14h21q22 0 22 7t-4 15l-4 37q-8 24 -8 81.5t6 102.5t19 88q31 96 90 144.5t122.5 72t117.5 35.5q72 17 132 17l41 -2 l64 2q43 0 79 -4.5t61.5 -7.5t41.5 -7t35.5 -6t47.5 -7t57.5 -18.5t29.5 -62.5q0 -19 -2 -36t-2 -30.5t-2 -29.5t-6 -36t-7 -41.5t-3 -42t-2 -38.5t-4.5 -34.5t-9.5 -29.5q-15 -30 -54 -30l-90 10q-50 8 -87.5 8t-42.5 -1t-21 -5q-54 -13 -66 -42q-6 -15 -6 -34v-45 q0 -33 24 -33l27 3l61 -3l56 5q57 0 57 -105l-2 -56l-2 -69l2 -33q0 -31 -20.5 -44t-43.5 -13l-41 2l-41 -4h-20q-10 0 -10 -16v-70l-10 -80q0 -12 11 -14t27 -2l144 -8l145 14q77 0 84 -57q4 -16 4 -61.5t-4 -57.5v-96q0 -59 -20.5 -76t-47.5 -27q-47 -18 -109 -18l-38 -2 h-37l-119 4q-10 2 -17 3l-21 3t-33 2t-35 2t-30.5 3t-38.5 4q-70 9 -236 9q-42 0 -191 -22l-26 -2q-43 0 -52.5 9t-13.5 28.5t-6 42t-2 44.5z" />
<glyph unicode="&#xa5;" horiz-adv-x="1536" d="M-2 1377.5q0 15.5 2 26.5t8 22q16 28 49 28l88 -10l45 2q14 2 28 2h38t37 -2l59 -2l121 8q41 0 66.5 -11t38 -40.5t15.5 -49.5t7 -30t14.5 -31.5t22.5 -47t23.5 -47t13.5 -27t7 -14.5t10 -20q35 -81 59 -81q20 0 72 81q12 19 20 33q35 61 57 89q30 39 44.5 72.5 t22.5 47.5q22 35 38 46q41 28 92 28l51 -2l74 4q84 -8 94 -9t23 -1l42 -2l86 12q72 0 72 -66q0 -40 -17.5 -69t-24.5 -42t-13 -26.5t-15.5 -27.5t-19.5 -26.5t-20 -28.5q-12 -16 -25 -53q-30 -80 -59 -104q-3 -3 -3 -8q0 -16 60 -16l35 4q4 0 20.5 -5t16.5 -34l-9 -116 l2 -52q0 -47 -69 -47l-180 10q-33 0 -49 -11q-29 -21 -58 -91q-2 -6 -12.5 -24.5t-10.5 -22.5t5.5 -13.5t23.5 -9.5h25l49 -2l72 7l51 -5l98 9q39 0 46 -21.5t7 -36.5l-6 -86l2 -45q0 -57 -82 -57l-58 2q-20 0 -40 2t-46 5t-34 3l-86 -6h-31q-34 0 -40 -12q-11 -21 -11 -72 t5 -76q12 -58 12 -79q0 -58 -31 -91q-23 -18 -66 -18l-108 8l-92 -4l-95 6l-82 -6q-41 0 -53 3t-32 19q-35 27 -35 76q0 19 7 40q15 43 15 87l-4 60l2 30q0 35 -65 35l-125 -6l-68 2l-84 -6q-41 0 -51 19.5t-10 39.5l4 62l-2 37l-2 43q0 47 59 47l107 -11l61 7l72 -2 q16 0 23 3t7 15v6q-2 16 -9 27.5t-12 20.5t-6 14.5t-4 10.5q-7 12 -12 17q-15 46 -41 50t-45 4h-46q-27 0 -64 -5l-45 -2q-23 0 -32 15.5t-13 34.5l2 59l-4 86q0 16 6 32.5t35 16.5l39 -2q8 0 19 2t11 13q0 13 -7 25.5t-10 20t-10 23t-24.5 51t-36.5 72.5q-49 98 -62 117.5 t-18 29.5q-14 25 -14 40.5z" />
<glyph unicode="&#xa8;" horiz-adv-x="425" d="M-268 1325l2 47v29q0 92 67 92l33 -2l35 2l47 -2q6 -2 26.5 -1t26.5 1l66 -2l49 2q85 0 96 -53v-86q0 -56 -18.5 -74t-32.5 -21.5t-23 -3.5h-18q-8 -2 -25 -2l-47 4h-39l-65 7l-72 -9q-57 0 -82.5 12.5t-25.5 59.5zM246 1315l4 55v45q0 47 32 68q16 10 40 10l96 -4h51 l55 -2h19l39 4q68 0 90 -25q22 -19 22 -86v-45q0 -41 -6 -53q-18 -35 -70 -35h-4l-61 6h-37l-37 2l-55 -4h-78q-55 0 -68 7q-32 16 -32 57z" />
<glyph unicode="&#xa9;" horiz-adv-x="1705" d="M125 720q0 159 58.5 293t158.5 231t232.5 152.5t285 55.5t285.5 -58.5t230.5 -157.5t152.5 -231.5t55 -282t-56.5 -282.5t-154.5 -232t-231 -156.5t-281.5 -57.5t-281 53t-232.5 149.5t-160.5 230.5t-60.5 293zM190 722q0 -138 52.5 -260t142.5 -211t211 -140.5 t260 -51.5t260 52.5t210 142.5t140.5 211t51.5 257t-50.5 257t-138.5 212t-209 143t-262 52t-263 -52t-212 -142t-141.5 -211t-51.5 -259zM358 723q0 216 136 361q141 153 376 153q206 0 344 -120q35 -30 58 -54l-178 -172q-100 100 -226 100q-127 0 -196 -84 q-60 -72 -60 -186.5t70 -187t191 -72.5t221 92l178 -164q-98 -102 -198.5 -137t-215.5 -35t-210 41t-160 110q-130 141 -130 355z" />
<glyph unicode="&#xaa;" horiz-adv-x="894" d="M47 939q0 64 18.5 101.5t45 73t69.5 51.5l111 31q23 4 61 4h62l78 -14q22 0 22 15q0 24 -27 36q-22 14 -47 14l-61 4l-57 -2l-123 -22q-20 0 -25.5 3t-14.5 14t-10.5 24.5t-1.5 62.5l-4 47q0 29 7.5 38t36 17.5t61.5 12.5q49 6 98 6l57 4l35 -4l66 2h10q50 -10 82 -10 q27 -4 47.5 -7t35.5 -12.5t38.5 -27t30.5 -21.5q55 -49 67 -98t12 -98l-6 -76l4 -94v-12l-2 -52v-14l-4 -98l4 -60q0 -20 -6 -35q-10 -18 -26.5 -20t-53.5 -2h-80l-84 -4q-23 0 -26.5 12t-3.5 27.5t-11 15.5q-4 0 -17 -9t-25 -16q-69 -40 -144 -40q-4 0 -15.5 1t-24.5 2 q-30 2 -42 6.5t-23.5 7.5t-22.5 7t-31 10t-36 19.5t-36.5 33t-25.5 28.5t-18 37q-24 52 -24 80zM356 972q0 -17 3 -24q10 -26 36 -26l41 4q39 0 52.5 16t13.5 30.5t-11.5 27t-39.5 12.5l-43 2q-12 0 -32 -12.5t-20 -29.5z" />
<glyph unicode="&#xab;" horiz-adv-x="768" d="M49 645q0 31 11 54.5t27.5 38t27 24.5t20.5 21.5t21.5 23.5t21.5 23.5t24 25t20 21.5l20 24q38 43 64 43t32 -16q6 -6 6 -66l2 -84l-4 -92l4 -78q0 -35 -14.5 -47t-45.5 -27q-50 -25 -50 -39.5t10 -23t44 -25t45 -26.5t11 -39l-2 -41l2 -49v-21l-2 -66v-22l2 -45 q0 -61 -35 -61q-22 0 -55 28.5t-50 45.5q-38 41 -50.5 52t-23.5 24q-24 27 -48 42q-23 18 -26 32.5t-3 55.5l-2 41l2 54v75zM418 679.5q0 18.5 7 32t27.5 35t39.5 43.5q33 41 65 64.5t45.5 37t33.5 30.5q30 24 40 24t25.5 -11t15.5 -40l-4 -64l4 -75l-4 -82l4 -58 q0 -35 -13.5 -47t-57.5 -36.5t-44 -40.5q0 -22 53 -41q45 -20 53.5 -36t6.5 -35t-1 -47t1 -36l-2 -74l2 -41q2 -12 4 -23.5t2 -23.5q0 -57 -39 -57q-16 0 -41 19t-46.5 33.5t-30.5 23.5q-63 67 -86.5 86t-39.5 39t-16 55l2 55v43q0 27 -2 43l-2 47l2 51v68q-4 20 -4 38.5z " />
<glyph unicode="&#xad;" horiz-adv-x="1067" d="M61 606q0 195 125 195l133 -6l97 4h24l78 -2h119l86 6l70 -2l53 2q88 0 124 -27.5t36 -95.5l-2 -54l-3 -53l13 -194q0 -56 -18 -79q-38 -48 -126 -48l-127 6l-163 -8l-140 6h-88l-78 2l-75 -4q-78 0 -103.5 39t-27.5 104v74z" />
<glyph unicode="&#xae;" horiz-adv-x="1705" d="M125 721q0 160 58.5 293t157.5 230t231.5 152.5t285 55.5t286.5 -58.5t231.5 -157.5t152.5 -231.5t55 -282t-56.5 -282.5t-154.5 -232t-232 -156.5t-282.5 -57.5t-280 53t-231.5 149.5t-160.5 230.5t-60.5 294zM190 722q0 -138 52.5 -260t142.5 -211t210 -140.5 t259 -51.5t261 52.5t211 142.5t140.5 211t51.5 258t-50.5 257t-139.5 211q-191 195 -472 195q-279 0 -473 -194q-90 -90 -141.5 -211t-51.5 -259zM512 262v938h334q156 0 233.5 -25.5t115.5 -94t38 -128t-17.5 -95.5t-41.5 -61q-36 -35 -105 -65q51 -35 64 -56 q23 -33 41 -120q14 -96 29.5 -162.5t49.5 -130.5h-258q-23 43 -32 92t-19 115t-18 103.5t-28.5 56t-57.5 22.5t-103 4v-393h-225zM737 834h99q99 0 127 15q45 25 45 85q0 87 -96 93q-15 1 -40 1h-135v-194z" />
<glyph unicode="&#xaf;" horiz-adv-x="425" d="M-80 1300l4 52v24q0 20 5 35.5t28 24.5l51 6l66 -2l57 -6l35 2q8 2 16 2h49l86 4l72 -2l66 4q41 0 47 -14.5t6 -32t-4 -41.5v-35q0 -49 -14.5 -58.5t-32.5 -9.5l-27 4h-57l-54 -4l-104 4l-82 -6l-61 4l-84 -4q-33 0 -50.5 7.5t-17.5 41.5z" />
<glyph unicode="&#xb2;" horiz-adv-x="894" d="M39 1098q0 12 1 26.5t2 30.5q2 37 7 53q14 53 39 88l16 17q4 6 8.5 13t11.5 18t16 17.5t20.5 15.5t29.5 21q48 31 62 36.5t27.5 8.5t28.5 6q33 7 40 7l58 4h16q128 0 190 -41q8 -4 15.5 -7l17.5 -7t21.5 -13.5t14.5 -11.5t16.5 -15t28.5 -31q27 -31 44 -48 q32 -41 39 -117v-26l2 -23q0 -37 -4 -50q-22 -72 -36.5 -90.5t-22 -29t-19.5 -20.5t-26.5 -22.5t-27.5 -24t-17.5 -14.5t-11.5 -7q-31 -18 -32 -28q0 -15 27 -15t35 4l43 -2l49 4q49 0 63.5 -20.5t14.5 -56.5l-4 -91l4 -61q0 -43 -24.5 -50t-47.5 -7l-129 6h-13q-9 0 -20 -2 l-30 -2l-60 2l-82 -4l-123 8l-98 -8h-78q-14 0 -36.5 5t-22.5 38l4 45l-2 43l-4 39q0 37 61 65q6 4 13.5 5t11.5 3q41 21 48 29t13 12t11.5 5t19.5 10q28 19 43 36q16 20 51 45t49.5 37t28.5 33t22 39q15 32 15 51q0 80 -82 80q-12 0 -30.5 -6t-24.5 -10 q-16 -10 -25.5 -33.5t-9.5 -31.5q0 -42 -39 -42l-66 6q-6 -2 -20 -2h-20l-41 -2q-42 0 -62 34q-8 14 -8 26z" />
<glyph unicode="&#xb3;" horiz-adv-x="894" d="M96 635l8 73v19l-4 57q0 45 37 45l95 -20q6 0 26 -2l88 -6h41q33 0 54.5 16.5t21.5 35.5t-13.5 34.5t-25.5 17.5t-20.5 1t-12.5 -1l-33 4l-53 -4q-51 0 -51 38v54l-4 82q0 23 11 33q23 21 42 21l78 -7q28 0 41.5 13.5t13.5 28.5t-14 26.5t-37 11.5l-18 -2q-28 6 -48 6 l-43 -4h-26l-80 -12q-37 0 -45 24.5t-8 53.5l4 61l-4 43q0 40 14 52q21 18 96 26q8 2 33 1t33 -1l65 2l88 -6h29q57 0 90 -13.5t65 -32.5q74 -42 93 -78q4 -7 11 -25.5t10.5 -25.5t7.5 -19q6 -17 6 -50v-43q-6 -35 -24 -59q-21 -27 -31 -33q-29 -16 -29 -31q0 -6 7 -11 t11 -9q12 -4 29 -13t36 -41t23 -43t6 -24.5t6 -24.5q8 -29 10 -47q3 -38 -9.5 -82.5t-41 -79t-42.5 -45t-27.5 -16.5t-30 -15t-43 -25.5t-42.5 -20.5q-33 -8 -122 -8l-67 -3h-21l-80 5q-40 10 -72 12t-53.5 7t-34.5 14q-20 13 -20 65z" />
<glyph unicode="&#xb4;" horiz-adv-x="425" d="M-102 1292q0 10 14 36t18 34t10.5 14t13.5 15.5t13 22.5q28 60 52 66.5t53 4.5h47l84 -4l125 6l78 -4l59 2q16 0 39.5 -6t23.5 -40q0 -41 -48 -57q-17 -6 -36 -11q-66 -17 -88 -27.5t-33.5 -13.5t-18.5 -4t-15 -4t-17.5 -5t-18.5 -5t-17 -3q-12 0 -39 -15l-45 -15 q-48 -16 -74.5 -17.5t-85.5 0.5l-55 -2q-39 0 -39 32z" />
<glyph unicode="&#xb5;" d="M53 123l8 117l-8 288l2 70l6 80v20l-2 60v38l-2 55v19l2 86l-2 66q0 96 27 123q29 29 70 29l139 -11l80 8q18 0 26 -2l27 -2l61 7q24 0 56.5 -17.5t41.5 -36t9 -47.5l-6 -141l4 -68l-2 -41v-12q-6 -24 -6 -31v-24l-4 -56q0 -68 12 -116q14 -70 67 -70q27 0 47.5 26.5 t21.5 70.5t3 53l4 43v8t-2 14l-4 102l12 144l-8 112q0 50 30 75q17 14 42 14l78 -9l102 9l33 -2q25 -5 33 -5l112 9q58 0 86 -35q4 -4 15.5 -25.5t11.5 -44.5l-19 -143l3 -39l-5 -66v-53l2 -49q2 -4 1 -12.5t-1 -12.5l7 -86l-7 -127v-118l-4 -138q0 -41 4 -61q11 -55 11 -70 v-4q0 -94 -111 -94l-127 4l-156 -4q-22 0 -36.5 19.5t-18.5 29.5t-7 16t-10 19.5t-17.5 13.5t-21.5 -13t-24.5 -26.5t-32.5 -28.5q-44 -32 -98 -32q-20 0 -35.5 7t-19.5 7q-14 0 -14 -8t3 -16t4 -23.5t3 -32.5q4 -36 4 -66t-24.5 -37t-45.5 -7t-61 4l-60 2l-102 -6l-39 2 q-12 2 -23 2h-16l-67 -2q-29 0 -44.5 11t-15.5 63l6 88l-4 49v51q-4 8 -4 37z" />
<glyph unicode="&#xb7;" horiz-adv-x="641" d="M61 375l2 51l3 55l-3 97l-2 100q0 76 77 108q18 7 32 7l85 -9h36l59 2l51 -2l48 2q43 0 83.5 -18t49.5 -80v-56l-2 -54l-5 -66l3 -39v-35l4 -51q0 -106 -78 -118q-33 -5 -45 -5l-183 8l-77 -6q-66 0 -84 6q-54 22 -54 103z" />
<glyph unicode="&#xb8;" horiz-adv-x="425" d="M25 -281l4 64v22q0 20 14 46t43 26l61 -6q23 0 27 14.5t4 24.5l-8 113q0 28 39 20h15l58 2h21q14 0 14 -16q0 -17 -8 -33q-8 -46 -8 -63t1 -20t9 -9t19.5 -14.5t20.5 -16.5t17.5 -17t19.5 -32t11 -40q0 -51 -13 -79.5t-37.5 -43.5t-53.5 -23q-37 -9 -83 -9t-64.5 4.5 t-37.5 8.5q-34 7 -51 16q-35 16 -34 61z" />
<glyph unicode="&#xb9;" horiz-adv-x="894" d="M104 1194q0 21 16 33q38 27 73 43q8 6 14 13t16 14q43 30 80 67t44 42t17.5 14.5t22.5 18.5t22.5 12t51.5 3l61 -6h23q13 0 39 4l39 2q77 0 77 -92l-2 -53q-8 -32 -8 -54v-51q0 -28 2 -37l4 -80l-6 -104v-80l2 -47l-2 -31v-28l-4 -70q0 -64 5 -83q9 -34 9 -59.5 t-17 -33.5t-44 -8h-88l-57 2l-72 -4q-66 0 -66 55l11 82l-7 113l7 147l-2 68l4 55q0 35 -29 35q-10 0 -25.5 -12.5t-25.5 -18.5q-23 -27 -44 -27t-33.5 16.5t-18 22.5t-10.5 12.5t-12 13.5l-17 17q-50 39 -50 74z" />
<glyph unicode="&#xba;" horiz-adv-x="937" d="M31 1060v13q0 49 16 98.5t21.5 61.5t13.5 21.5t14 19.5t12.5 19.5t14.5 20.5q41 57 101 84q16 7 34 15q45 20 55 25q83 20 158 20l68 -4q17 0 53 -12q25 -4 39 -6t27 -6q57 -21 74.5 -36.5t29.5 -26.5t20 -19l18 -18q9 -9 16 -18q11 -15 19.5 -22.5t15.5 -20.5t10 -21.5 t8 -20.5t12.5 -24.5t11.5 -26.5l16 -107q0 -38 -8 -62t-12 -41.5t-7 -27.5t-15.5 -30.5t-26.5 -41.5q-30 -46 -39 -55q-21 -21 -43.5 -35t-32.5 -22.5t-17 -14.5t-12.5 -7t-15.5 -6t-31.5 -12t-42.5 -12q-51 -10 -69 -10h-109q-21 0 -45 4l-25 4q-10 2 -30 2 q-16 4 -29.5 11.5t-27 13.5t-22.5 11t-19 10q-43 20 -65 46.5t-41 44.5q-59 58 -71 124q-4 20 -7 31t-6 24.5t-6 24t-3 17.5zM358 1074q0 -54 56 -70q4 -2 27.5 -8.5t28.5 -6.5q74 0 104 45q16 23 16 35t-6 29t-13.5 22.5t-32.5 21.5q-33 19 -49 19l-26 -2h-19 q-18 0 -33.5 -11t-19.5 -12t-8 -6q-25 -25 -25 -56z" />
<glyph unicode="&#xbb;" horiz-adv-x="768" d="M47 893q0 51 39 51q16 0 34 -14q37 -30 59 -44t31 -23t15 -16t14.5 -15t21.5 -21.5t28 -24.5q33 -29 46 -47t13 -53l-4 -57l2 -23l4 -110l-2 -74l4 -72q0 -30 -7 -42q-10 -16 -52 -58q-42 -56 -61 -69t-37.5 -28.5t-38.5 -32.5q-51 -44 -63 -44q-35 0 -39 40q-1 11 -1 36 l2 43v23q0 18 -1 23t-1 18l2 59v20l-2 70q0 29 11.5 43t49.5 33q52 27 52 46.5t-43 37.5t-57.5 32t-12.5 49v144zM422 242l4 92l-4 80q0 35 15.5 48t41 26t39.5 21.5t14 18.5q0 24 -63 52q-16 8 -31.5 19t-15.5 34l2 49v98l-2 84v29q0 31 12 42t20 11q15 0 70 -39 q10 -10 18.5 -17t21.5 -21.5t26.5 -27t30 -27.5t35 -32.5t27.5 -24.5t17 -21q15 -25 15 -51v-41l-2 -64v-38l2 -50v-19l4 -98q0 -39 -9.5 -53.5t-31.5 -36.5q-23 -23 -51.5 -54.5t-43 -47t-21.5 -21.5q-20 -17 -37 -39q-35 -45 -66 -45t-35 33v51z" />
<glyph unicode="&#xbf;" horiz-adv-x="1236" d="M29 481q0 75 59 164q10 18 20 37q14 28 35 49l28 28q7 7 7 9q10 10 20 18q45 35 71 73t30 64.5t7 73.5t20.5 63.5t60.5 16.5l43 -2q4 -2 23.5 -1t23.5 1l53 -2l43 2l61 -8h19l82 6q48 0 71 -33q15 -20 15 -45l-2 -30l2 -27q0 -44 -28 -125l-48 -63q-4 -6 -7 -13.5 t-7 -15.5q-9 -18 -26 -32q-24 -21 -53 -48q-54 -50 -54 -93.5t21.5 -59t36.5 -15.5q45 0 60 10t21 17q5 7 18 15.5t23 15.5q14 10 20.5 29.5t11.5 27.5t10 17q12 23 20 30q37 37 61.5 37t53 -15.5t40.5 -27.5t20.5 -21.5t16.5 -16.5t14.5 -13.5t12.5 -10.5t16 -11t23 -16 q44 -30 50 -39q15 -20 28 -30q28 -20 28 -43.5t-5 -41t-12 -32.5q-14 -29 -22 -37q-12 -23 -30.5 -50t-22.5 -34l-45 -45q-35 -35 -54.5 -56t-33.5 -34q-25 -22 -37 -28q-85 -42 -116 -49t-56 -11t-46.5 -8t-27.5 -4l-43 2l-55 -2q-32 -4 -66.5 -4t-58.5 4q-69 12 -78.5 15 t-22 10.5t-23.5 12.5t-19 7t-17.5 6t-25 12.5t-39 18.5t-54.5 36.5t-47 42t-25 27.5q-28 35 -39 64t-19.5 51.5t-15.5 41.5t-10 31q-5 19 -5 66zM285 1333q0 76 45 105q28 14 57 14l168 -10h55q17 0 45 4l47 2q53 0 88 -10.5t35 -61.5l-4 -55v-86l4 -37q0 -15 -9 -31 t-19.5 -25t-34.5 -9l-53 2h-23l-72 -2h-44t-33 2l-56 4l-75 -4l-62 10q-13 0 -27 10q-20 14 -26 33v47z" />
<glyph unicode="&#xc0;" horiz-adv-x="1579" d="M0 85q0 39 19.5 87t29.5 90.5t25 105.5q15 68 36 124.5t30 93.5t16.5 82t18.5 84t24.5 71.5t21.5 55t11.5 35t7.5 27.5q5 19 11.5 49t17 56.5t21.5 56.5t20 55.5t14 35.5q4 11 16 66q6 16 12 34.5t14.5 40t18.5 45t39 42.5q38 26 108 26h29q21 0 45 -2l74 -2h28l103 4 l57 4l133 -8l68 2q72 0 93 -14q43 -27 56 -49.5t19 -38t12 -32.5q12 -36 15.5 -57.5t9.5 -42t10 -39t9 -37.5q16 -64 38.5 -123t25.5 -73q6 -26 10.5 -61t7.5 -50.5t7 -32t10.5 -39t14.5 -52.5t14 -55t14.5 -55t16.5 -50q14 -35 20.5 -56.5t13.5 -40.5q10 -26 16.5 -57 t10.5 -47t8.5 -30.5t7.5 -23.5q14 -42 15.5 -46t4.5 -17.5t9 -30.5q15 -46 15 -73q0 -102 -96 -121l-30 -2h-63l-129 -6q-15 0 -45 4l-47 2l-43 -2q-50 0 -66 11q-19 13 -44 68.5t-45.5 75t-61.5 19.5l-76 -8q-8 -2 -16 -2h-16l-138 8q-64 0 -92 -39q-2 -4 -7 -15.5 t-11 -23.5t-11 -24q-23 -51 -49 -59.5t-43 -8.5l-106 4h-20l-63 -2h-22l-59 2l-72 -4q-56 0 -88 38q-14 17 -14 47zM434 1720.5q0 22.5 8.5 40t49.5 17.5l57 -4l63 2l50 -2h38l52 -5l63 7l55 -2l43 2q29 0 45.5 -16.5t20.5 -25.5q16 -36 24.5 -44.5t14.5 -18.5l12 -24 q4 -10 10 -19q25 -32 25 -39.5t-6 -23t-37 -15.5l-45 4l-49 -6q-80 0 -108.5 14.5t-35 16.5t-12.5 3t-14 5q-15 7 -47.5 14t-68.5 21t-64 23l-25 6q-16 8 -22.5 9t-14.5 3t-21.5 5t-26.5 10q-34 20 -34 42.5zM682 682q0 -51 56 -51h48l50 -2q55 0 55 43q0 8 -4 23t-6 28.5 t-6.5 28t-6.5 31t-6 29.5t-7 23.5t-8 23.5t-9 29.5t-9.5 30t-11.5 25.5t-25.5 12t-29.5 -10t-20 -36q-15 -35 -23 -72t-13.5 -54.5t-10.5 -37.5q-13 -54 -13 -64z" />
<glyph unicode="&#xc1;" horiz-adv-x="1579" d="M0 85q0 39 19.5 87t29.5 90.5t25 105.5q15 68 36 124.5t30 93.5t16.5 82t18.5 84t24.5 71.5t21.5 55t11.5 35t7.5 27.5q5 19 11.5 49t17 56.5t21.5 56.5t20 55.5t14 35.5q4 11 16 66q6 16 12 34.5t14.5 40t18.5 45t39 42.5q38 26 108 26h29q21 0 45 -2l74 -2h28l103 4 l57 4l133 -8l68 2q72 0 93 -14q43 -27 56 -49.5t19 -38t12 -32.5q12 -36 15.5 -57.5t9.5 -42t10 -39t9 -37.5q16 -64 38.5 -123t25.5 -73q6 -26 10.5 -61t7.5 -50.5t7 -32t10.5 -39t14.5 -52.5t14 -55t14.5 -55t16.5 -50q14 -35 20.5 -56.5t13.5 -40.5q10 -26 16.5 -57 t10.5 -47t8.5 -30.5t7.5 -23.5q14 -42 15.5 -46t4.5 -17.5t9 -30.5q15 -46 15 -73q0 -102 -96 -121l-30 -2h-63l-129 -6q-15 0 -45 4l-47 2l-43 -2q-50 0 -66 11q-19 13 -44 68.5t-45.5 75t-61.5 19.5l-76 -8q-8 -2 -16 -2h-16l-138 8q-64 0 -92 -39q-2 -4 -7 -15.5 t-11 -23.5t-11 -24q-23 -51 -49 -59.5t-43 -8.5l-106 4h-20l-63 -2h-22l-59 2l-72 -4q-56 0 -88 38q-14 17 -14 47zM514 1581v2q0 11 20.5 44.5t23.5 38.5t8 10t10 14.5t10.5 19.5t20 33t35 28t38.5 3t37.5 -1t25.5 1l78 -5l61 3l60 2l82 -2l63 2q58 0 58 -52q0 -35 -49 -50 q-17 -5 -38 -11q-68 -20 -89 -29.5t-34 -12.5q-29 -7 -57 -14q-39 -10 -67 -21q-89 -36 -114 -36h-37l-57 2h-19l-33 -2q-20 0 -28.5 10.5t-8.5 22.5zM682 682q0 -51 56 -51h48l50 -2q55 0 55 43q0 8 -4 23t-6 28.5t-6.5 28t-6.5 31t-6 29.5t-7 23.5t-8 23.5t-9 29.5 t-9.5 30t-11.5 25.5t-25.5 12t-29.5 -10t-20 -36q-15 -35 -23 -72t-13.5 -54.5t-10.5 -37.5q-13 -54 -13 -64z" />
<glyph unicode="&#xc2;" horiz-adv-x="1579" d="M0 85q0 39 19.5 87t29.5 90.5t25 105.5q15 68 36 124.5t30 93.5t16.5 82t18.5 84t24.5 71.5t21.5 55t11.5 35t7.5 27.5q5 19 11.5 49t17 56.5t21.5 56.5t20 55.5t14 35.5q4 11 16 66q6 16 12 34.5t14.5 40t18.5 45t39 42.5q38 26 108 26h29q21 0 45 -2l74 -2h28l103 4 l57 4l133 -8l68 2q72 0 93 -14q43 -27 56 -49.5t19 -38t12 -32.5q12 -36 15.5 -57.5t9.5 -42t10 -39t9 -37.5q16 -64 38.5 -123t25.5 -73q6 -26 10.5 -61t7.5 -50.5t7 -32t10.5 -39t14.5 -52.5t14 -55t14.5 -55t16.5 -50q14 -35 20.5 -56.5t13.5 -40.5q10 -26 16.5 -57 t10.5 -47t8.5 -30.5t7.5 -23.5q14 -42 15.5 -46t4.5 -17.5t9 -30.5q15 -46 15 -73q0 -102 -96 -121l-30 -2h-63l-129 -6q-15 0 -45 4l-47 2l-43 -2q-50 0 -66 11q-19 13 -44 68.5t-45.5 75t-61.5 19.5l-76 -8q-8 -2 -16 -2h-16l-138 8q-64 0 -92 -39q-2 -4 -7 -15.5 t-11 -23.5t-11 -24q-23 -51 -49 -59.5t-43 -8.5l-106 4h-20l-63 -2h-22l-59 2l-72 -4q-56 0 -88 38q-14 17 -14 47zM373 1572q0 28 16 40q4 6 11 9q13 5 20.5 17.5t18 20.5t20.5 17.5t35 29.5q11 16 21.5 21.5t17.5 10.5t15.5 14t17.5 14t26.5 8.5t36 4.5l37 2t28.5 1l62 -4 l67 2l64 -4l67 4q41 0 63.5 -13.5t43.5 -35.5q12 -16 24 -25q10 -12 27 -20q9 -12 29 -27q8 -6 15 -12.5t19.5 -14.5t25.5 -24.5t13 -24.5t-4 -22.5t-32 -14.5h-33l-49 4l-49 -4q-48 0 -61 2t-26.5 7.5t-27.5 10.5t-27.5 9t-17.5 7t-9.5 6t-12.5 7t-34.5 12.5t-39.5 8.5 q-13 0 -37.5 -7t-29.5 -9.5t-19.5 -8.5t-23.5 -8t-18 -6q-21 -9 -29.5 -14.5t-16 -8t-18.5 -4.5t-29 -2h-46l-41 2l-69 -2q-25 0 -33 9.5t-8 14.5zM682 682q0 -51 56 -51h48l50 -2q55 0 55 43q0 8 -4 23t-6 28.5t-6.5 28t-6.5 31t-6 29.5t-7 23.5t-8 23.5t-9 29.5t-9.5 30 t-11.5 25.5t-25.5 12t-29.5 -10t-20 -36q-15 -35 -23 -72t-13.5 -54.5t-10.5 -37.5q-13 -54 -13 -64z" />
<glyph unicode="&#xc3;" horiz-adv-x="1579" d="M0 85q0 39 19.5 87t29.5 90.5t25 105.5q15 68 36 124.5t30 93.5t16.5 82t18.5 84t24.5 71.5t21.5 55t11.5 35t7.5 27.5q5 19 11.5 49t17 56.5t21.5 56.5t20 55.5t14 35.5q4 11 16 66q6 16 12 34.5t14.5 40t18.5 45t39 42.5q38 26 108 26h29q21 0 45 -2l74 -2h28l103 4 l57 4l133 -8l68 2q72 0 93 -14q43 -27 56 -49.5t19 -38t12 -32.5q12 -36 15.5 -57.5t9.5 -42t10 -39t9 -37.5q16 -64 38.5 -123t25.5 -73q6 -26 10.5 -61t7.5 -50.5t7 -32t10.5 -39t14.5 -52.5t14 -55t14.5 -55t16.5 -50q14 -35 20.5 -56.5t13.5 -40.5q10 -26 16.5 -57 t10.5 -47t8.5 -30.5t7.5 -23.5q14 -42 15.5 -46t4.5 -17.5t9 -30.5q15 -46 15 -73q0 -102 -96 -121l-30 -2h-63l-129 -6q-15 0 -45 4l-47 2l-43 -2q-50 0 -66 11q-19 13 -44 68.5t-45.5 75t-61.5 19.5l-76 -8q-8 -2 -16 -2h-16l-138 8q-64 0 -92 -39q-2 -4 -7 -15.5 t-11 -23.5t-11 -24q-23 -51 -49 -59.5t-43 -8.5l-106 4h-20l-63 -2h-22l-59 2l-72 -4q-56 0 -88 38q-14 17 -14 47zM375 1607.5q0 14.5 18.5 59.5t65.5 80q16 14 24.5 17t27.5 10.5t28.5 9.5t16.5 4t16 2h22q48 0 69 -4l31.5 -6t19.5 -4t16 -2l78 -15q24 0 54 -12l88 -10 q29 0 40 10t16 16q18 19 45 19l32 -4l41 2q23 0 47.5 -5.5t24.5 -35.5q0 -8 -4 -20.5t-8 -24.5q-8 -26 -19.5 -37.5t-16.5 -17t-8 -12.5q-14 -32 -45 -48q-56 -28 -69.5 -29.5t-40.5 -3.5l-31 -2q-12 0 -36 3l-42 5q-16 2 -26 5.5t-27 7.5l-37 6l-24 6q-10 2 -20.5 2 t-22.5 2q-14 2 -40 9q-32 9 -55 9q-37 0 -47 -7t-21 -18t-25.5 -14t-39 -1t-32.5 2l-35 -2q-29 0 -39 17t-10 31.5zM682 682q0 -51 56 -51h48l50 -2q55 0 55 43q0 8 -4 23t-6 28.5t-6.5 28t-6.5 31t-6 29.5t-7 23.5t-8 23.5t-9 29.5t-9.5 30t-11.5 25.5t-25.5 12t-29.5 -10 t-20 -36q-15 -35 -23 -72t-13.5 -54.5t-10.5 -37.5q-13 -54 -13 -64z" />
<glyph unicode="&#xc4;" horiz-adv-x="1579" d="M0 85q0 39 19.5 87t29.5 90.5t25 105.5q15 68 36 124.5t30 93.5t16.5 82t18.5 84t24.5 71.5t21.5 55t11.5 35t7.5 27.5q5 19 11.5 49t17 56.5t21.5 56.5t20 55.5t14 35.5q4 11 16 66q6 16 12 34.5t14.5 40t18.5 45t39 42.5q38 26 108 26h29q21 0 45 -2l74 -2h28l103 4 l57 4l133 -8l68 2q72 0 93 -14q43 -27 56 -49.5t19 -38t12 -32.5q12 -36 15.5 -57.5t9.5 -42t10 -39t9 -37.5q16 -64 38.5 -123t25.5 -73q6 -26 10.5 -61t7.5 -50.5t7 -32t10.5 -39t14.5 -52.5t14 -55t14.5 -55t16.5 -50q14 -35 20.5 -56.5t13.5 -40.5q10 -26 16.5 -57 t10.5 -47t8.5 -30.5t7.5 -23.5q14 -42 15.5 -46t4.5 -17.5t9 -30.5q15 -46 15 -73q0 -102 -96 -121l-30 -2h-63l-129 -6q-15 0 -45 4l-47 2l-43 -2q-50 0 -66 11q-19 13 -44 68.5t-45.5 75t-61.5 19.5l-76 -8q-8 -2 -16 -2h-16l-138 8q-64 0 -92 -39q-2 -4 -7 -15.5 t-11 -23.5t-11 -24q-23 -51 -49 -59.5t-43 -8.5l-106 4h-20l-63 -2h-22l-59 2l-72 -4q-56 0 -88 38q-14 17 -14 47zM307 1618l2 47v46q0 22 13.5 45.5t48.5 27.5l37 -2l30 2q4 2 24.5 0t26.5 -2l56 2l63 -2l54 2q52 0 70 -18q24 -22 24 -60v-70q0 -55 -21.5 -70.5 t-28.5 -17.5q-16 -4 -69 -4q-31 0 -39 4h-39l-72 4h-18l-39 -6h-12q-47 0 -79 9.5t-32 62.5zM682 682q0 -51 56 -51h48l50 -2q55 0 55 43q0 8 -4 23t-6 28.5t-6.5 28t-6.5 31t-6 29.5t-7 23.5t-8 23.5t-9 29.5t-9.5 30t-11.5 25.5t-25.5 12t-29.5 -10t-20 -36 q-15 -35 -23 -72t-13.5 -54.5t-10.5 -37.5q-13 -54 -13 -64zM823 1604l2 43v67q0 74 80 74l51 -4h56l51 -2l31 2l26 -2l37 4q62 0 90 -23q23 -23 23 -88l2 -45q0 -37 -7 -50t-20.5 -25.5t-40.5 -12.5h-36l-42 6q-4 2 -17 1t-17 -1l-33 2l-58 -6l-34 2l-56 -2q-88 0 -88 60z " />
<glyph unicode="&#xc5;" horiz-adv-x="1579" d="M0 85q0 39 19.5 87t29.5 90.5t25 105.5q15 68 36 124.5t30 93.5t16.5 82t18.5 84t24.5 71.5t21.5 55t11.5 35t7.5 27.5q5 19 11.5 49t17 56.5t21.5 56.5t20 55.5t14 35.5q4 11 16 66q6 16 12 34.5t14.5 40t18.5 45t39 42.5q38 26 108 26h29q21 0 45 -2l74 -2h28l103 4 l57 4l133 -8l68 2q72 0 93 -14q43 -27 56 -49.5t19 -38t12 -32.5q12 -36 15.5 -57.5t9.5 -42t10 -39t9 -37.5q16 -64 38.5 -123t25.5 -73q6 -26 10.5 -61t7.5 -50.5t7 -32t10.5 -39t14.5 -52.5t14 -55t14.5 -55t16.5 -50q14 -35 20.5 -56.5t13.5 -40.5q10 -26 16.5 -57 t10.5 -47t8.5 -30.5t7.5 -23.5q14 -42 15.5 -46t4.5 -17.5t9 -30.5q15 -46 15 -73q0 -102 -96 -121l-30 -2h-63l-129 -6q-15 0 -45 4l-47 2l-43 -2q-50 0 -66 11q-19 13 -44 68.5t-45.5 75t-61.5 19.5l-76 -8q-8 -2 -16 -2h-16l-138 8q-64 0 -92 -39q-2 -4 -7 -15.5 t-11 -23.5t-11 -24q-23 -51 -49 -59.5t-43 -8.5l-106 4h-20l-63 -2h-22l-59 2l-72 -4q-56 0 -88 38q-14 17 -14 47zM500 1681q0 43 21.5 71t24.5 31t12 9t19.5 12t18.5 12.5t10 7.5t11.5 4t20.5 7q28 10 36 10l98 13q25 -3 40 -3l48 -2q142 -15 202 -109q21 -32 21 -74 t-22.5 -72.5t-54.5 -51.5q-64 -40 -129 -45q-5 0 -62 -6l-74 2q-68 0 -128 31q-113 57 -113 153zM682 682q0 -51 56 -51h48l50 -2q55 0 55 43q0 8 -4 23t-6 28.5t-6.5 28t-6.5 31t-6 29.5t-7 23.5t-8 23.5t-9 29.5t-9.5 30t-11.5 25.5t-25.5 12t-29.5 -10t-20 -36 q-15 -35 -23 -72t-13.5 -54.5t-10.5 -37.5q-13 -54 -13 -64zM705 1671q0 -49 89 -49t89 47q0 33 -35 50q-24 12 -40.5 12t-31 -1t-30.5 -8q-41 -15 -41 -51z" />
<glyph unicode="&#xc6;" horiz-adv-x="2048" d="M0 45q0 31 16 71q16 43 28.5 85.5t29.5 86.5q52 131 66 170q19 57 32.5 89.5t22 58t14.5 42.5t14 37t17.5 43.5t17.5 44t14 35.5t18.5 44t16.5 43t10.5 32.5t13.5 40.5q17 53 30 85t24.5 63t21 55.5t18.5 49t23 58.5q36 84 62 112q46 52 100 57h10l31 -4q10 0 19 2h39 q6 -2 18 -2h145l74 2l21 2q12 4 50 0t63 -4h33q7 0 17 2h91l55 2q18 2 34 2h44l44 -4h25l64 -4h26l62 -2l115 8h57l16 -2h9q14 0 22 2h21l83 -6q64 -21 64 -113l-4 -80l8 -114q0 -121 -72 -121l-63 4l-68 -2l-106 8l-80 -6l-80 4q-72 0 -72 -47t56 -57h15l62 -3h19l82 9 l65 -4l119 6q75 0 90 -31q15 -30 15 -88v-53l6 -113q0 -53 -19.5 -67.5t-33 -16.5t-34 -2t-47 -1t-57 -2t-57.5 -2t-80 -3l-100 6q-82 0 -82 -45q0 -16 12 -33.5t28 -23.5q25 -9 93 -9l88 11h78l72 2l38 -2l43 2q52 0 72 -25q37 -46 37 -106l-2 -78l4 -88l-6 -86 q-7 -74 -100 -74l-132 6q-44 0 -139 -10h-41l-170 10l-164 -8l-163 6l-88 -6q-51 0 -62.5 21.5t-15.5 42.5q-5 25 -27 61q-18 22 -43 29l-102 8l-99 -6q-23 -2 -30 -3.5t-24 -1.5t-34.5 -6t-33 -32.5t-18.5 -42.5q-10 -52 -95 -66q-12 -2 -14 -2l-121 4h-17l-51 -6 q-12 0 -33 4h-30l-39 2l-58 -6q-23 0 -40 13.5t-17 35.5zM725 659q0 -41 47 -41h25l37 -6q51 0 64 31q17 41 13 102l2 66l-2 51l2 35l-10 72q-2 8 -9 32.5t-26 24.5q-39 0 -65 -113l-39 -141q-4 -8 -6 -14t-6 -15.5t-6.5 -16.5t-6.5 -18t-9 -23.5t-5 -25.5z" />
<glyph unicode="&#xc7;" horiz-adv-x="1110" d="M23 726v30q0 12 2 38.5t4 55.5q5 73 12.5 96t19 47.5t20.5 45.5t15 41t24 59.5t56.5 82t54.5 56.5l21 16q20 15 46 33.5t47.5 34.5t40.5 26q58 31 165.5 51.5t201 19.5t167 -9t108.5 -43q12 -12 14 -24.5t2 -59.5l-8 -133v-21l15 -161q0 -66 -29 -96q-18 -19 -57 -19 l-80 6l-76 -6l-39 2q-146 0 -184 -111q-8 -24 -8 -57t14 -72t31.5 -60.5t43 -32.5t51.5 -17q33 -8 70 -8h21q33 4 64.5 11t68.5 7t61.5 -10t36.5 -29q19 -29 19 -102l-4 -129l10 -156q0 -85 -88 -119q-14 -6 -34.5 -10t-39 -8t-31 -7t-24.5 -6.5t-24 -11.5q-31 -20 -31 -37 q0 -25 10 -30.5t18 -13.5q31 -29 37 -29q35 -47 35 -80q0 -112 -89 -135q-56 -15 -98 -15q-53 0 -100 12.5t-67.5 27t-20.5 46t6 43.5l-2 39q0 31 16.5 54.5t39.5 23.5l63 -6q23 0 26 13.5t3 33t-8.5 38.5t-21.5 30q-20 18 -57 25q-84 16 -105 22q-26 7 -65.5 21.5 t-85.5 40.5t-82 69.5t-48.5 62.5t-25.5 36t-27 33q-42 49 -59 95q-39 108 -48 213l-2 45q-2 12 -4 25.5t-5 27.5t-3 28z" />
<glyph unicode="&#xc8;" horiz-adv-x="1236" d="M68 90l6 90l6 230l8 127q0 53 -5 92t-5 53v59q-2 14 -2 23v22q-2 10 -2 18v30l-6 129l10 153v31l-8 162q0 84 38.5 110.5t92.5 26.5l84 -6l125 2l116 4h20l44 -6q8 0 17 1t18.5 1t19.5 -2l29 -2h9q5 0 13 2h27.5t19.5 -2l25 -2h8t21 2l104 8l53 -2h47l43 -2q43 0 59.5 -8 t27 -25.5t14.5 -36.5q6 -27 6 -59l-2 -76l8 -115q0 -46 -13 -72t-26.5 -32t-34.5 -6l-55 2l-78 -2l-98 8l-88 -6l-68 4q-25 0 -51.5 -6t-26.5 -46t33 -47.5t111 -7.5l76 7l47 -3h43l102 7q59 0 82 -16q33 -22 30 -106q-1 -24 -1 -32l8 -129q0 -55 -19.5 -68.5t-34 -16.5 t-33 -2t-33.5 1t-23 -4l-195 -4l-92 4q-80 0 -80 -45q0 -39 45 -56q24 -8 57 -8q50 0 78 5q35 6 103 6l75 2q29 -2 46.5 -2t51.5 1q48 1 64 -18.5t28.5 -41t12.5 -68.5l-2 -68l4 -113q0 -84 -20.5 -114.5t-85.5 -30.5l-131 6q-20 0 -63 -5q-61 -7 -126 -7l-196 8 q-9 0 -144 -6l-65 2q-48 6 -104 1q-79 -7 -107.5 -7t-49 9t-29.5 25q-13 22 -13 66zM264 1720.5q0 22.5 8.5 40t49.5 17.5l57 -4l63 2l50 -2h38l52 -5l63 7l55 -2l43 2q29 0 45.5 -16.5t20.5 -25.5q16 -36 24.5 -44.5t14.5 -18.5l12 -24q4 -10 10 -19q25 -32 25 -39.5 t-6 -23t-37 -15.5l-45 4l-49 -6q-78 0 -107.5 14.5t-36 16.5t-12.5 3t-14 5q-15 7 -47.5 14t-68.5 21t-64 23l-25 6q-16 8 -22.5 9t-14.5 3t-21.5 5t-26.5 10q-34 20 -34 42.5z" />
<glyph unicode="&#xc9;" horiz-adv-x="1236" d="M68 90l6 90l6 230l8 127q0 53 -5 92t-5 53v59q-2 14 -2 23v22q-2 10 -2 18v30l-6 129l10 153v31l-8 162q0 84 38.5 110.5t92.5 26.5l84 -6l125 2l116 4h20l44 -6q8 0 17 1t18.5 1t19.5 -2l29 -2h9q5 0 13 2h27.5t19.5 -2l25 -2h8t21 2l104 8l53 -2h47l43 -2q43 0 59.5 -8 t27 -25.5t14.5 -36.5q6 -27 6 -59l-2 -76l8 -115q0 -46 -13 -72t-26.5 -32t-34.5 -6l-55 2l-78 -2l-98 8l-88 -6l-68 4q-25 0 -51.5 -6t-26.5 -46t33 -47.5t111 -7.5l76 7l47 -3h43l102 7q59 0 82 -16q33 -22 30 -106q-1 -24 -1 -32l8 -129q0 -55 -19.5 -68.5t-34 -16.5 t-33 -2t-33.5 1t-23 -4l-195 -4l-92 4q-80 0 -80 -45q0 -39 45 -56q24 -8 57 -8q50 0 78 5q35 6 103 6l75 2q29 -2 46.5 -2t51.5 1q48 1 64 -18.5t28.5 -41t12.5 -68.5l-2 -68l4 -113q0 -84 -20.5 -114.5t-85.5 -30.5l-131 6q-20 0 -63 -5q-61 -7 -126 -7l-196 8 q-9 0 -144 -6l-65 2q-48 6 -104 1q-79 -7 -107.5 -7t-49 9t-29.5 25q-13 22 -13 66zM344 1581v2q0 11 20.5 44.5t23.5 38.5t8 10t10.5 14.5t10.5 19.5t19.5 33t35 28t38.5 3t37.5 -1t25.5 1l78 -5l61 3l60 2l82 -2l64 2q57 0 57 -52q0 -35 -49 -50q-17 -5 -38 -11 q-68 -20 -89 -29.5t-34 -12.5q-29 -7 -57 -14q-39 -10 -67 -21q-89 -36 -114 -36h-37l-57 2h-19l-33 -2q-20 0 -28.5 10.5t-8.5 22.5z" />
<glyph unicode="&#xca;" horiz-adv-x="1236" d="M68 90l6 90l6 230l8 127q0 53 -5 92t-5 53v59q-2 14 -2 23v22q-2 10 -2 18v30l-6 129l10 153v31l-8 162q0 84 38.5 110.5t92.5 26.5l84 -6l125 2l116 4h20l44 -6q8 0 17 1t18.5 1t19.5 -2l29 -2h9q5 0 13 2h27.5t19.5 -2l25 -2h8t21 2l104 8l53 -2h47l43 -2q43 0 59.5 -8 t27 -25.5t14.5 -36.5q6 -27 6 -59l-2 -76l8 -115q0 -46 -13 -72t-26.5 -32t-34.5 -6l-55 2l-78 -2l-98 8l-88 -6l-68 4q-25 0 -51.5 -6t-26.5 -46t33 -47.5t111 -7.5l76 7l47 -3h43l102 7q59 0 82 -16q33 -22 30 -106q-1 -24 -1 -32l8 -129q0 -55 -19.5 -68.5t-34 -16.5 t-33 -2t-33.5 1t-23 -4l-195 -4l-92 4q-80 0 -80 -45q0 -39 45 -56q24 -8 57 -8q50 0 78 5q35 6 103 6l75 2q29 -2 46.5 -2t51.5 1q48 1 64 -18.5t28.5 -41t12.5 -68.5l-2 -68l4 -113q0 -84 -20.5 -114.5t-85.5 -30.5l-131 6q-20 0 -63 -5q-61 -7 -126 -7l-196 8 q-9 0 -144 -6l-65 2q-48 6 -104 1q-79 -7 -107.5 -7t-49 9t-29.5 25q-13 22 -13 66zM203 1572q0 28 16 40q4 6 11 9q13 5 20.5 17.5t18 20.5t20.5 17.5t35 29.5q11 16 21.5 21.5t17.5 10.5t15.5 14t17.5 14t26.5 8.5t36 4.5l37 2t28.5 1l62 -4l67 2l64 -4l67 4 q41 0 63.5 -13.5t43.5 -35.5q12 -16 24 -25q10 -12 27 -20q9 -12 29 -27q8 -6 15 -12.5t19.5 -14.5t25.5 -24.5t13 -24.5t-4 -22.5t-32 -14.5h-33l-49 4l-49 -4q-48 0 -61 2t-26.5 7.5t-27.5 10.5t-27.5 9t-17.5 7t-9.5 6t-12.5 7t-34.5 12.5t-39.5 8.5q-13 0 -37.5 -7 t-29.5 -9.5t-19.5 -8.5t-23.5 -8t-18 -6q-21 -9 -29.5 -14.5t-16 -8t-18.5 -4.5t-29 -2h-46l-41 2l-69 -2q-25 0 -33 9.5t-8 14.5z" />
<glyph unicode="&#xcb;" horiz-adv-x="1236" d="M68 90l6 90l6 230l8 127q0 53 -5 92t-5 53v59q-2 14 -2 23v22q-2 10 -2 18v30l-6 129l10 153v31l-8 162q0 84 38.5 110.5t92.5 26.5l84 -6l125 2l116 4h20l44 -6q8 0 17 1t18.5 1t19.5 -2l29 -2h9q5 0 13 2h27.5t19.5 -2l25 -2h8t21 2l104 8l53 -2h47l43 -2q43 0 59.5 -8 t27 -25.5t14.5 -36.5q6 -27 6 -59l-2 -76l8 -115q0 -46 -13 -72t-26.5 -32t-34.5 -6l-55 2l-78 -2l-98 8l-88 -6l-68 4q-25 0 -51.5 -6t-26.5 -46t33 -47.5t111 -7.5l76 7l47 -3h43l102 7q59 0 82 -16q33 -22 30 -106q-1 -24 -1 -32l8 -129q0 -55 -19.5 -68.5t-34 -16.5 t-33 -2t-33.5 1t-23 -4l-195 -4l-92 4q-80 0 -80 -45q0 -39 45 -56q24 -8 57 -8q50 0 78 5q35 6 103 6l75 2q29 -2 46.5 -2t51.5 1q48 1 64 -18.5t28.5 -41t12.5 -68.5l-2 -68l4 -113q0 -84 -20.5 -114.5t-85.5 -30.5l-131 6q-20 0 -63 -5q-61 -7 -126 -7l-196 8 q-9 0 -144 -6l-65 2q-48 6 -104 1q-79 -7 -107.5 -7t-49 9t-29.5 25q-13 22 -13 66zM139 1618l2 47v46q0 22 13.5 45.5t48.5 27.5l37 -2l30 2q4 2 24.5 0t27.5 -2l55 2l63 -2l54 2q52 0 70 -18q24 -22 24 -60v-70q0 -55 -21.5 -70.5t-28.5 -17.5q-14 -4 -69 -4q-31 0 -39 4 h-39l-72 4h-18l-39 -6h-12q-47 0 -79 9.5t-32 62.5zM655 1604l2 43v67q0 74 80 74l51 -4h56l51 -2l31 2l26 -2l37 4q62 0 90 -23q23 -23 23 -88l2 -45q0 -37 -7 -50t-20.5 -25.5t-40.5 -12.5h-36l-42 6q-4 2 -17 1t-17 -1l-33 2l-57 -6l-35 2l-56 -2q-88 0 -88 60z" />
<glyph unicode="&#xcc;" horiz-adv-x="724" d="M8 1720.5q0 22.5 8.5 40t49.5 17.5l57 -4l63 2l50 -2h38l52 -5l63 7l55 -2l43 2q29 0 45.5 -16.5t20.5 -25.5q16 -36 24.5 -44.5t14.5 -18.5l12 -24q4 -10 10 -19q25 -32 25 -39.5t-6 -23t-37 -15.5l-45 4l-49 -6q-78 0 -107.5 14.5t-36 16.5t-12.5 3t-14 5 q-15 8 -47.5 14.5t-68.5 20.5t-64 23l-25 6q-16 8 -22.5 9t-14.5 3t-21.5 5t-26.5 10q-34 20 -34 42.5zM72 94l6 90v240q0 16 1 26.5t1 23.5l6 73q-6 78 -6 112v68l-4 109l2 96l-2 96l6 117l-10 190q0 48 18 77q25 42 88 42l94 -10l29 -2l178 10q76 0 103.5 -11t45.5 -33 q25 -32 25 -77l-10 -188l10 -230l-2 -34q-2 -33 -5 -64t-4 -50t-1 -40v-201q0 -14 2 -28l6 -119l-6 -131q0 -49 5 -80q9 -56 9 -70q0 -98 -125 -98l-137 6l-172 -6q-74 0 -99 12q-52 26 -52 84z" />
<glyph unicode="&#xcd;" horiz-adv-x="724" d="M72 94l6 90v240q0 16 1 26.5t1 23.5l6 73q-6 78 -6 112v68l-4 109l2 96l-2 96l6 117l-10 190q0 48 18 77q25 42 88 42l94 -10l29 -2l178 10q76 0 103.5 -11t45.5 -33q25 -32 25 -77l-10 -188l10 -230l-2 -34q-2 -33 -5 -64t-4 -50t-1 -40v-201q0 -14 2 -28l6 -119 l-6 -131q0 -49 5 -80q9 -56 9 -70q0 -98 -125 -98l-137 6l-172 -6q-74 0 -99 12q-52 26 -52 84zM88 1581v2q0 11 20.5 44.5t23.5 38.5t8 10t10.5 14.5t10.5 19.5t19.5 33t35 28t38.5 3t37.5 -1t25.5 1l78 -5l61 3l60 2l82 -2l64 2q57 0 57 -52q0 -35 -49 -50q-17 -5 -38 -11 q-68 -20 -89 -29.5t-34 -12.5q-29 -7 -57 -14q-39 -10 -67 -21q-89 -36 -114 -36h-37l-57 2h-19l-33 -2q-20 0 -28.5 10.5t-8.5 22.5z" />
<glyph unicode="&#xce;" horiz-adv-x="724" d="M-53 1572q0 28 16 40q4 6 11 9q13 5 20.5 17.5t18 20.5t20.5 17.5t35 29.5q11 16 21.5 21.5t17.5 10.5t15.5 14t17.5 14t26.5 8.5t36 4.5l37 2t28.5 1l62 -4l67 2l64 -4l67 4q41 0 63.5 -13.5t43.5 -35.5q12 -16 24 -25q10 -12 27 -20q9 -12 29 -27q8 -6 15 -12.5 t19.5 -14.5t25.5 -24.5t13 -24.5t-4 -22.5t-32 -14.5h-33l-49 4l-49 -4q-48 0 -61 2t-26.5 7.5t-27.5 10.5t-27.5 9t-17.5 7t-9.5 6t-12.5 7t-34.5 12.5t-39.5 8.5q-13 0 -37.5 -7t-29.5 -9.5t-19.5 -8.5t-23.5 -8t-18 -6q-21 -9 -29.5 -14.5t-16 -8t-18.5 -4.5t-29 -2h-46 l-41 2l-69 -2q-25 0 -33 9.5t-8 14.5zM72 94l6 90v240q0 16 1 26.5t1 23.5l6 73q-6 78 -6 112v68l-4 109l2 96l-2 96l6 117l-10 190q0 48 18 77q25 42 88 42l94 -10l29 -2l178 10q76 0 103.5 -11t45.5 -33q25 -32 25 -77l-10 -188l10 -230l-2 -34q-2 -33 -5 -64t-4 -50 t-1 -40v-201q0 -14 2 -28l6 -119l-6 -131q0 -49 5 -80q9 -56 9 -70q0 -98 -125 -98l-137 6l-172 -6q-74 0 -99 12q-52 26 -52 84z" />
<glyph unicode="&#xcf;" horiz-adv-x="724" d="M-117 1618l2 47v46q0 22 13.5 45.5t48.5 27.5l37 -2l30 2q4 2 24.5 0t27.5 -2l55 2l63 -2l54 2q52 0 70 -18q24 -22 24 -60v-70q0 -55 -21.5 -70.5t-28.5 -17.5q-14 -4 -69 -4q-31 0 -39 4h-39l-72 4h-18l-39 -6h-12q-47 0 -79 9.5t-32 62.5zM72 94l6 90v240q0 16 1 26.5 t1 23.5l6 73q-6 78 -6 112v68l-4 109l2 96l-2 96l6 117l-10 190q0 48 18 77q25 42 88 42l94 -10l29 -2l178 10q76 0 103.5 -11t45.5 -33q25 -32 25 -77l-10 -188l10 -230l-2 -34q-2 -33 -5 -64t-4 -50t-1 -40v-201q0 -14 2 -28l6 -119l-6 -131q0 -49 5 -80q9 -56 9 -70 q0 -98 -125 -98l-137 6l-172 -6q-74 0 -99 12q-52 26 -52 84zM399 1604l2 43v67q0 74 80 74l51 -4h56l51 -2l31 2l26 -2l37 4q62 0 90 -23q23 -23 23 -88l2 -45q0 -37 -7 -50t-20.5 -25.5t-40.5 -12.5h-36l-42 6q-4 2 -17 1t-17 -1l-33 2l-57 -6l-35 2l-56 -2q-88 0 -88 60z " />
<glyph unicode="&#xd0;" horiz-adv-x="1536" d="M0 684l2 61l-2 72q0 23 11.5 26t34.5 3t27.5 7t4.5 19l6 146l-2 63l2 33l-4 74v20l-2 62v20q0 72 22 105q29 45 107 45l106 -6l66 6l96 4l180 -6h62q159 0 269 -41q22 -8 61.5 -26.5t57 -30t40.5 -23.5t49.5 -24.5t55 -28.5t63.5 -52t49 -56.5t21.5 -34t17.5 -26.5 t21.5 -25.5t21.5 -29.5q76 -103 76 -303v-18q0 -8 -1 -19.5t-2 -29t-3.5 -45t-4.5 -45t-6 -34.5q-36 -159 -95 -236q-84 -109 -151 -152q-5 -5 -80 -41q-135 -66 -167.5 -76t-65.5 -15.5t-75.5 -12.5t-75.5 -11t-57 -6q-47 -4 -91 -4l-227 8h-33l-143 -10q-88 0 -123 28 q-16 10 -28.5 34t-12.5 38v24l2 42v12q10 50 10 117l-4 100v17l2 52v38l-2 59v20q-7 50 -20 50l-25 -3q-29 0 -35 13.5t-6 52.5zM610 866q0 -24 19 -24l63 2l53 -2l41 2q31 0 41 -16q13 -18 13 -31l-2 -27l4 -27v-18l2 -41q0 -47 -18 -56q-21 -12 -54 -12l-60 2h-20l-41 3 q-35 0 -35 -21l5 -39q0 -73 15 -85.5t28 -17.5q40 -16 88 1q25 7 57.5 9.5t44.5 7.5q29 12 46 29t36.5 33.5t24.5 22.5q2 4 15 29.5t17 52.5v62l2 45q0 47 -17 89q-20 51 -50 69q-8 5 -18 12q-19 16 -38.5 24t-28.5 12.5t-20 6.5l-106 6q-20 4 -41 4q-36 0 -47 -21 q-19 -32 -19 -86z" />
<glyph unicode="&#xd1;" horiz-adv-x="1579" d="M61 88q0 45 5 70v36l14 162v27l-4 160v29l-2 92v32q0 14 1 53t2 85q2 105 6 147q7 94 7 125.5t-1 44t-2 26t-4 31.5q-13 75 -13 121q0 48 22 92q16 23 38 27t67 4h51q4 -2 10 -2h100l82 2q40 4 78.5 4t67.5 -8q43 -12 86 -88q10 -17 22.5 -37t26.5 -45t33 -48 q21 -28 36 -56.5t21 -42t17 -26.5t20 -25q17 -24 31 -44t25 -31.5t26 -11.5q35 0 35 35q-2 25 -2 40l-2 48v128q0 18 -3 36l-4 72q0 35 22.5 61.5t44 33.5t43.5 7h36l55 -2h12q21 -2 32 -2t32 -2l125 6q72 0 99.5 -13t39.5 -30.5t19 -36.5q8 -24 7 -52t-1 -46v-47l-11 -121 l4 -158v-70l-10 -163l13 -207v-57l-3 -175v-88l11 -98q0 -51 -32 -72.5t-75 -21.5l-94 8q-63 0 -99.5 -5t-41.5 -5h-15q-81 0 -100 7q-28 10 -40.5 26t-21 23t-14.5 16q-58 52 -88.5 103.5t-40.5 66t-23.5 30t-26.5 32.5t-26.5 33.5t-17.5 23.5t-8 14.5t-9 15.5t-12.5 16.5 t-13.5 17.5t-10 16t-11 17q-18 25 -41.5 25t-27.5 -24.5t-4 -44.5l2 -70v-30l-2 -94v-52l8 -76q0 -25 -4 -39t-23.5 -31.5t-54.5 -17.5l-72 6l-92 -4l-121 4l-116 -6q-29 0 -62 21.5t-33 66.5zM375 1607.5q0 14.5 18.5 59.5t65.5 80q16 14 24.5 17t27.5 10.5t28.5 9.5 t16.5 4t16 2h22q48 0 69 -4l31.5 -6t19.5 -4t16 -2l78 -15q24 0 54 -12l88 -10q29 0 40 10t16 16q18 19 45 19l32 -4l41 2q23 0 47.5 -5.5t24.5 -35.5q0 -8 -4 -20.5t-8 -24.5q-8 -26 -19.5 -37.5t-16.5 -17t-8 -12.5q-14 -32 -45 -48q-56 -28 -69.5 -29.5t-40.5 -3.5 l-31 -2q-12 0 -36 3l-42 5q-16 2 -26 5.5t-27 7.5l-37 6l-24 6q-10 2 -20.5 2t-22.5 2q-14 2 -40 9q-32 9 -55 9q-37 0 -47 -7t-21 -18t-25.5 -14t-39 -1t-32.5 2l-35 -2q-29 0 -39 17t-10 31.5z" />
<glyph unicode="&#xd2;" horiz-adv-x="1662" d="M20 700q0 37 9.5 77t12.5 61.5t3 42t3 38t15.5 49t26.5 63.5t25.5 56.5t11.5 26.5q2 2 8 12.5t15.5 24.5t17.5 27.5t12 18.5t15.5 15.5t24.5 21.5q26 22 45 42q81 80 155 115q6 2 31.5 12t54.5 21q73 26 82 26l104 20l119 7l31 -2q172 -11 197.5 -19t45 -15t43 -16.5 t45 -18.5t32.5 -14t22.5 -12.5t26.5 -15.5t35 -14.5t51 -23.5q50 -28 83 -75q6 -8 13.5 -15t17.5 -18t18.5 -21.5t15.5 -20.5q21 -29 40.5 -62t30.5 -49q31 -49 37 -76.5t11 -46t12 -39t11 -41.5l8 -114v-16l-10 -87v-57q0 -63 -15.5 -95t-24.5 -53q-20 -45 -25 -62 q-23 -87 -93 -172q-36 -45 -63 -58t-38 -21t-19.5 -15.5t-34 -29t-61 -31.5t-50 -14t-29.5 -9t-28.5 -12.5t-29 -12.5t-28 -7t-29.5 -6t-29.5 -7t-24 -4.5t-23.5 -3.5t-31 -4l-45 -4h-78l-96 6h-71q-83 6 -108 15.5t-37.5 15.5t-25.5 11t-27.5 9.5t-27.5 9.5q-44 16 -94 58 l-37 25q-12 10 -24.5 19t-30 26t-34.5 38t-29.5 37.5t-30.5 34.5q-59 59 -67.5 80t-11.5 32t-9.5 28.5t-14.5 47.5t-16 55.5t-12 53.5v56zM477 1720.5q0 22.5 8.5 40t49.5 17.5l57 -4l63 2l50 -2h38l52 -5l63 7l55 -2l43 2q29 0 45.5 -16.5t20.5 -25.5q16 -36 24.5 -44.5 t14.5 -18.5l12 -24q4 -10 11 -19q24 -32 24 -39.5t-6 -23t-37 -15.5l-45 4l-49 -6q-80 0 -108.5 14.5t-35 16.5t-12.5 3t-14 5q-15 7 -47.5 14t-68.5 21t-64 23l-25 6q-16 8 -22.5 9t-14.5 3t-21.5 5t-26.5 10q-34 20 -34 42.5zM561 726q0 -71 37 -114q15 -18 25 -35.5 t24.5 -29.5t32.5 -25q41 -28 82 -28l53 -2l94 10q50 11 89 58q20 23 36 34q14 14 31.5 49t17.5 61.5t-5 48t-12 41.5q-17 48 -22 54q-25 46 -94 74q-8 4 -16 5t-17 5t-19 8q-42 16 -79 16t-57 -9q-24 -11 -46.5 -24t-42.5 -19.5t-34 -18.5q-27 -23 -69 -118q-9 -19 -9 -41z " />
<glyph unicode="&#xd3;" horiz-adv-x="1662" d="M20 700q0 37 9.5 77t12.5 61.5t3 42t3 38t15.5 49t26.5 63.5t25.5 56.5t11.5 26.5q2 2 8 12.5t15.5 24.5t17.5 27.5t12 18.5t15.5 15.5t24.5 21.5q26 22 45 42q81 80 155 115q6 2 31.5 12t54.5 21q73 26 82 26l104 20l119 7l31 -2q172 -11 197.5 -19t45 -15t43 -16.5 t45 -18.5t32.5 -14t22.5 -12.5t26.5 -15.5t35 -14.5t51 -23.5q50 -28 83 -75q6 -8 13.5 -15t17.5 -18t18.5 -21.5t15.5 -20.5q21 -29 40.5 -62t30.5 -49q31 -49 37 -76.5t11 -46t12 -39t11 -41.5l8 -114v-16l-10 -87v-57q0 -63 -15.5 -95t-24.5 -53q-20 -45 -25 -62 q-23 -87 -93 -172q-36 -45 -63 -58t-38 -21t-19.5 -15.5t-34 -29t-61 -31.5t-50 -14t-29.5 -9t-28.5 -12.5t-29 -12.5t-28 -7t-29.5 -6t-29.5 -7t-24 -4.5t-23.5 -3.5t-31 -4l-45 -4h-78l-96 6h-71q-83 6 -108 15.5t-37.5 15.5t-25.5 11t-27.5 9.5t-27.5 9.5q-44 16 -94 58 l-37 25q-12 10 -24.5 19t-30 26t-34.5 38t-29.5 37.5t-30.5 34.5q-59 59 -67.5 80t-11.5 32t-9.5 28.5t-14.5 47.5t-16 55.5t-12 53.5v56zM557 1581v2q0 11 20.5 44.5t23.5 38.5t8 10t10 14.5t10.5 19.5t20 33t35 28t38.5 3t37.5 -1t25.5 1l78 -5l60 3l61 2l82 -2l63 2 q58 0 58 -52q0 -35 -50 -50q-16 -5 -36 -11q-69 -20 -90 -29.5t-34 -12.5q-29 -7 -57 -14q-39 -10 -67 -21q-89 -36 -114 -36h-38l-56 2h-19l-33 -2q-20 0 -28.5 10.5t-8.5 22.5zM561 726q0 -71 37 -114q15 -18 25 -35.5t24.5 -29.5t32.5 -25q41 -28 82 -28l53 -2l94 10 q50 11 89 58q20 23 36 34q14 14 31.5 49t17.5 61.5t-5 48t-12 41.5q-17 48 -22 54q-25 46 -94 74q-8 4 -16 5t-17 5t-19 8q-42 16 -79 16t-57 -9q-24 -11 -46.5 -24t-42.5 -19.5t-34 -18.5q-27 -23 -69 -118q-9 -19 -9 -41z" />
<glyph unicode="&#xd4;" horiz-adv-x="1662" d="M20 700q0 37 9.5 77t12.5 61.5t3 42t3 38t15.5 49t26.5 63.5t25.5 56.5t11.5 26.5q2 2 8 12.5t15.5 24.5t17.5 27.5t12 18.5t15.5 15.5t24.5 21.5q26 22 45 42q81 80 155 115q6 2 31.5 12t54.5 21q73 26 82 26l104 20l119 7l31 -2q172 -11 197.5 -19t45 -15t43 -16.5 t45 -18.5t32.5 -14t22.5 -12.5t26.5 -15.5t35 -14.5t51 -23.5q50 -28 83 -75q6 -8 13.5 -15t17.5 -18t18.5 -21.5t15.5 -20.5q21 -29 40.5 -62t30.5 -49q31 -49 37 -76.5t11 -46t12 -39t11 -41.5l8 -114v-16l-10 -87v-57q0 -63 -15.5 -95t-24.5 -53q-20 -45 -25 -62 q-23 -87 -93 -172q-36 -45 -63 -58t-38 -21t-19.5 -15.5t-34 -29t-61 -31.5t-50 -14t-29.5 -9t-28.5 -12.5t-29 -12.5t-28 -7t-29.5 -6t-29.5 -7t-24 -4.5t-23.5 -3.5t-31 -4l-45 -4h-78l-96 6h-71q-83 6 -108 15.5t-37.5 15.5t-25.5 11t-27.5 9.5t-27.5 9.5q-44 16 -94 58 l-37 25q-12 10 -24.5 19t-30 26t-34.5 38t-29.5 37.5t-30.5 34.5q-59 59 -67.5 80t-11.5 32t-9.5 28.5t-14.5 47.5t-16 55.5t-12 53.5v56zM416 1572q0 28 16 40q4 6 12 9q12 5 19.5 17.5t18 20.5t20.5 17.5t35 29.5q11 16 21.5 21.5t17.5 10.5t15.5 14t17.5 14t26.5 8.5 t36 4.5l37 2t28.5 1l62 -4l67 2l64 -4l67 4q41 0 63.5 -13.5t43.5 -35.5q12 -16 24 -25q10 -12 27 -20q9 -12 29 -27q8 -6 15 -12.5t19.5 -14.5t25.5 -24.5t13 -24.5t-4 -22.5t-32 -14.5h-33l-49 4l-49 -4q-48 0 -61 2t-26.5 7.5t-27.5 10.5t-27.5 9t-17.5 7t-9.5 6t-12.5 7 t-34.5 12.5t-39.5 8.5q-13 0 -37.5 -7t-29.5 -9.5t-19.5 -8.5t-23.5 -8t-18 -6q-21 -9 -29.5 -14.5t-16 -8t-18.5 -4.5t-28 -2h-47l-41 2l-69 -2q-25 0 -33 9.5t-8 14.5zM561 726q0 -71 37 -114q15 -18 25 -35.5t24.5 -29.5t32.5 -25q41 -28 82 -28l53 -2l94 10q50 11 89 58 q20 23 36 34q14 14 31.5 49t17.5 61.5t-5 48t-12 41.5q-17 48 -22 54q-25 46 -94 74q-8 4 -16 5t-17 5t-19 8q-42 16 -79 16t-57 -9q-24 -11 -46.5 -24t-42.5 -19.5t-34 -18.5q-27 -23 -69 -118q-9 -19 -9 -41z" />
<glyph unicode="&#xd5;" horiz-adv-x="1662" d="M20 700q0 37 9.5 77t12.5 61.5t3 42t3 38t15.5 49t26.5 63.5t25.5 56.5t11.5 26.5q2 2 8 12.5t15.5 24.5t17.5 27.5t12 18.5t15.5 15.5t24.5 21.5q26 22 45 42q81 80 155 115q6 2 31.5 12t54.5 21q73 26 82 26l104 20l119 7l31 -2q172 -11 197.5 -19t45 -15t43 -16.5 t45 -18.5t32.5 -14t22.5 -12.5t26.5 -15.5t35 -14.5t51 -23.5q50 -28 83 -75q6 -8 13.5 -15t17.5 -18t18.5 -21.5t15.5 -20.5q21 -29 40.5 -62t30.5 -49q31 -49 37 -76.5t11 -46t12 -39t11 -41.5l8 -114v-16l-10 -87v-57q0 -63 -15.5 -95t-24.5 -53q-20 -45 -25 -62 q-23 -87 -93 -172q-36 -45 -63 -58t-38 -21t-19.5 -15.5t-34 -29t-61 -31.5t-50 -14t-29.5 -9t-28.5 -12.5t-29 -12.5t-28 -7t-29.5 -6t-29.5 -7t-24 -4.5t-23.5 -3.5t-31 -4l-45 -4h-78l-96 6h-71q-83 6 -108 15.5t-37.5 15.5t-25.5 11t-27.5 9.5t-27.5 9.5q-44 16 -94 58 l-37 25q-12 10 -24.5 19t-30 26t-34.5 38t-29.5 37.5t-30.5 34.5q-59 59 -67.5 80t-11.5 32t-9.5 28.5t-14.5 47.5t-16 55.5t-12 53.5v56zM418 1607.5q0 14.5 18.5 59.5t65.5 80q16 14 24.5 17t27.5 10.5t28.5 9.5t16.5 4t15 2h23q48 0 69 -4l31.5 -6t19.5 -4t16 -2l79 -15 q23 0 53 -12l88 -10q29 0 40 10t17 16q17 19 44 19l32 -4l41 2q23 0 47.5 -5.5t24.5 -35.5q0 -8 -4 -20.5t-8 -24.5q-8 -26 -19.5 -37.5t-16.5 -17t-8 -12.5q-14 -32 -45 -48q-56 -28 -69.5 -29.5t-40.5 -3.5l-31 -2q-11 0 -36 3l-41 5q-17 2 -27 5.5t-27 7.5l-37 6l-24 6 q-10 2 -20.5 2t-22.5 2q-14 2 -40 9q-32 9 -55 9q-37 0 -47 -7t-21 -18t-25.5 -14t-39 -1t-32.5 2l-35 -2q-29 0 -39 17t-10 31.5zM561 726q0 -71 37 -114q15 -18 25 -35.5t24.5 -29.5t32.5 -25q41 -28 82 -28l53 -2l94 10q50 11 89 58q20 23 36 34q14 14 31.5 49t17.5 61.5 t-5 48t-12 41.5q-17 48 -22 54q-25 46 -94 74q-8 4 -16 5t-17 5t-19 8q-42 16 -79 16t-57 -9q-24 -11 -46.5 -24t-42.5 -19.5t-34 -18.5q-27 -23 -69 -118q-9 -19 -9 -41z" />
<glyph unicode="&#xd6;" horiz-adv-x="1662" d="M20 700q0 37 9.5 77t12.5 61.5t3 42t3 38t15.5 49t26.5 63.5t25.5 56.5t11.5 26.5q2 2 8 12.5t15.5 24.5t17.5 27.5t12 18.5t15.5 15.5t24.5 21.5q26 22 45 42q81 80 155 115q6 2 31.5 12t54.5 21q73 26 82 26l104 20l119 7l31 -2q172 -11 197.5 -19t45 -15t43 -16.5 t45 -18.5t32.5 -14t22.5 -12.5t26.5 -15.5t35 -14.5t51 -23.5q50 -28 83 -75q6 -8 13.5 -15t17.5 -18t18.5 -21.5t15.5 -20.5q21 -29 40.5 -62t30.5 -49q31 -49 37 -76.5t11 -46t12 -39t11 -41.5l8 -114v-16l-10 -87v-57q0 -63 -15.5 -95t-24.5 -53q-20 -45 -25 -62 q-23 -87 -93 -172q-36 -45 -63 -58t-38 -21t-19.5 -15.5t-34 -29t-61 -31.5t-50 -14t-29.5 -9t-28.5 -12.5t-29 -12.5t-28 -7t-29.5 -6t-29.5 -7t-24 -4.5t-23.5 -3.5t-31 -4l-45 -4h-78l-96 6h-71q-83 6 -108 15.5t-37.5 15.5t-25.5 11t-27.5 9.5t-27.5 9.5q-44 16 -94 58 l-37 25q-12 10 -24.5 19t-30 26t-34.5 38t-29.5 37.5t-30.5 34.5q-59 59 -67.5 80t-11.5 32t-9.5 28.5t-14.5 47.5t-16 55.5t-12 53.5v56zM352 1618l2 47v46q0 22 13.5 45.5t48.5 27.5l37 -2l30 2q4 2 24.5 0t27.5 -2l55 2l63 -2l54 2q52 0 71 -18q23 -22 23 -60v-70 q0 -55 -21.5 -70.5t-28.5 -17.5q-14 -4 -69 -4q-31 0 -39 4h-39l-72 4h-18l-40 -6h-11q-47 0 -79 9.5t-32 62.5zM561 726q0 -71 37 -114q15 -18 25 -35.5t24.5 -29.5t32.5 -25q41 -28 82 -28l53 -2l94 10q50 11 89 58q20 23 36 34q14 14 31.5 49t17.5 61.5t-5 48t-12 41.5 q-17 48 -22 54q-25 46 -94 74q-8 4 -16 5t-17 5t-19 8q-42 16 -79 16t-57 -9q-24 -11 -46.5 -24t-42.5 -19.5t-34 -18.5q-27 -23 -69 -118q-9 -19 -9 -41zM868 1604l2 43v67q0 74 80 74l51 -4h56l51 -2l31 2l26 -2l37 4q62 0 90 -23q23 -23 23 -88l2 -45q0 -37 -7 -50 t-20.5 -25.5t-39.5 -12.5h-36l-43 6q-4 2 -17 1t-17 -1l-33 2l-57 -6l-35 2l-56 -2q-88 0 -88 60z" />
<glyph unicode="&#xd8;" horiz-adv-x="1662" d="M25 712v24q0 12 3 25q9 39 14 64t5 49.5t4 45.5q8 38 18 62q27 58 37 84t40 76t49.5 68t40 36t36.5 36q54 56 92.5 78t72.5 35.5t68 26t61 21.5q57 19 99 24.5t51 6.5t19 1t21 2l41 4l138 -11q87 -8 101.5 -12t20.5 -5t23.5 -8t38 -14.5t38 -15.5t26.5 -11t20 -10.5 t24 -11.5q12 -8 20 -10q14 -10 21.5 -10t9.5 3t8 10t17.5 18.5t23.5 25t23.5 24.5t17.5 19q16 21 36 21q29 0 38.5 -10.5t25 -24.5t27.5 -25q43 -39 43 -56t-4 -25.5t-14.5 -19.5t-22.5 -24q-23 -26 -39 -39.5t-16 -18.5t7 -15.5t17.5 -21.5t18.5 -21.5t11 -14.5t16.5 -25.5 t28.5 -47.5q43 -72 49.5 -93.5t13.5 -44.5q20 -58 20 -65q14 -35 14 -84v-71q0 -14 -10 -89v-57q0 -41 -9 -71t-21.5 -56.5t-23.5 -54t-19.5 -54t-16.5 -43t-18.5 -35t-25.5 -40.5q-36 -51 -81 -80q-10 -8 -21.5 -14.5t-21.5 -14.5t-19.5 -15.5t-20.5 -16.5q-39 -32 -68 -40 t-46 -13q-25 -7 -58 -20q-84 -34 -146 -42q-12 -4 -25.5 -4.5t-24.5 -2.5q-22 -4 -36 -4l-32 -2h-30l-47 -2l-88 8h-49q-60 0 -100.5 11.5t-53.5 17.5q-28 12 -54 20.5t-41 14.5q-29 11 -52 29q-8 -12 -20.5 -21.5t-17.5 -14.5t-10 -11.5t-18.5 -21t-27 -27.5t-22.5 -19 q-12 -8 -25 -8q-21 0 -28 7l-17 17q-5 5 -23 17q-6 4 -10 11t-11 14t-15 13q-26 16 -28 46q0 16 13.5 31.5t36.5 36.5q34 32 61 65q-8 12 -20 24q-23 32 -47.5 58t-40 44.5t-25.5 46.5t-15.5 48t-11.5 39.5t-12 37t-9 31t-5 39t-3 53t-2 53t-1 37.5zM549 713.5 q0 -40.5 10 -75t21 -34.5t21 14q17 27 26.5 38t28.5 26q40 31 57.5 58.5t31 41.5t22.5 23.5t19 19.5l31 37q59 75 73.5 83.5t14.5 12.5t-26.5 11.5t-36.5 7.5t-28.5 -3t-30 -5t-19.5 -5t-17.5 -7.5t-34 -16.5t-44 -22.5t-31.5 -18.5q-25 -17 -31 -27t-13 -24t-15.5 -29.5 t-13.5 -30t-7 -18.5q-8 -16 -8 -56.5zM756 478.5q0 -7.5 18 -7.5h29q12 0 25.5 2t38 5t46 7t37.5 9q26 10 45 27t34 33q26 26 31 36t10 15t7 9t7.5 14.5t9.5 25t8 27.5t4 17t-3 25.5t-7 46.5q-11 66 -21 66q-4 0 -8 -6q-7 -13 -23 -27t-38.5 -42t-34.5 -41t-19 -18 q-21 -16 -47 -51q-10 -10 -21 -19q-15 -13 -26.5 -30.5t-20.5 -30t-23.5 -24.5t-21.5 -21q-16 -20 -26 -30t-10 -17.5z" />
<glyph unicode="&#xd9;" horiz-adv-x="1579" d="M66 1167l6 125l-4 60q0 24 16 61q16 27 41 31t49 4l78 -4l154 4l61 -2h45q57 0 78 -14q49 -30 49 -103l-8 -65q-2 -10 -2 -31l8 -121l-6 -70l-2 -40v-62l-15 -129l4 -51v-123q0 -47 16.5 -75t30 -40t38 -21t33.5 -11.5t20.5 -1.5t21.5 -1l39 -4q34 0 48 8.5t32 22.5 t28.5 22.5t15.5 18.5q9 18 9 39v102l8 84l-6 66l6 59l-14 139l8 132l-2 63l2 53l-8 74q0 57 43 72q18 12 68 12l55 -4h74q2 -2 6 -2h127q54 6 66 6q54 0 68 -7q37 -18 45.5 -30t14 -28.5t7.5 -34.5q4 -34 4 -62l-2 -57l2 -47v-36q0 -10 -11 -104l-10 -108l8 -160l-4 -149 l2 -62q0 -139 -35 -213q-10 -21 -15 -41t-11 -33t-15.5 -27.5t-18.5 -31t-16 -32t-16 -29.5q-38 -55 -86 -86q-6 -4 -13 -9.5t-16 -10.5t-17.5 -12t-27 -18t-51 -21.5t-63.5 -16.5q-60 -13 -96 -13l-70 2h-16q-9 0 -17 -2l-49 -6h-24l-134 8l-65 -4l-45 4q-32 0 -95 18.5 t-72 22.5t-17.5 10.5t-24.5 17.5t-30.5 19.5t-30.5 17.5q-34 20 -45 28t-26.5 19t-33.5 28q-42 41 -54.5 65.5t-17 31.5t-10.5 18t-14 23.5t-15 24.5l-32 103q-2 8 -2 13v47l-2 64v21l4 125l-4 107l2 51l-2 45l4 113zM434 1720.5q0 22.5 8.5 40t49.5 17.5l57 -4l63 2l50 -2 h38l52 -5l63 7l55 -2l43 2q29 0 45.5 -16.5t20.5 -25.5q16 -36 24.5 -44.5t14.5 -18.5l12 -24q4 -10 10 -19q25 -32 25 -39.5t-6 -23t-37 -15.5l-45 4l-49 -6q-80 0 -108.5 14.5t-35 16.5t-12.5 3t-14 5q-15 7 -47.5 14t-68.5 21t-64 23l-25 6q-16 8 -22.5 9t-14.5 3 t-21.5 5t-26.5 10q-34 20 -34 42.5z" />
<glyph unicode="&#xda;" horiz-adv-x="1579" d="M66 1167l6 125l-4 60q0 24 16 61q16 27 41 31t49 4l78 -4l154 4l61 -2h45q57 0 78 -14q49 -30 49 -103l-8 -65q-2 -10 -2 -31l8 -121l-6 -70l-2 -40v-62l-15 -129l4 -51v-123q0 -47 16.5 -75t30 -40t38 -21t33.5 -11.5t20.5 -1.5t21.5 -1l39 -4q34 0 48 8.5t32 22.5 t28.5 22.5t15.5 18.5q9 18 9 39v102l8 84l-6 66l6 59l-14 139l8 132l-2 63l2 53l-8 74q0 57 43 72q18 12 68 12l55 -4h74q2 -2 6 -2h127q54 6 66 6q54 0 68 -7q37 -18 45.5 -30t14 -28.5t7.5 -34.5q4 -34 4 -62l-2 -57l2 -47v-36q0 -10 -11 -104l-10 -108l8 -160l-4 -149 l2 -62q0 -139 -35 -213q-10 -21 -15 -41t-11 -33t-15.5 -27.5t-18.5 -31t-16 -32t-16 -29.5q-38 -55 -86 -86q-6 -4 -13 -9.5t-16 -10.5t-17.5 -12t-27 -18t-51 -21.5t-63.5 -16.5q-60 -13 -96 -13l-70 2h-16q-9 0 -17 -2l-49 -6h-24l-134 8l-65 -4l-45 4q-32 0 -95 18.5 t-72 22.5t-17.5 10.5t-24.5 17.5t-30.5 19.5t-30.5 17.5q-34 20 -45 28t-26.5 19t-33.5 28q-42 41 -54.5 65.5t-17 31.5t-10.5 18t-14 23.5t-15 24.5l-32 103q-2 8 -2 13v47l-2 64v21l4 125l-4 107l2 51l-2 45l4 113zM514 1581v2q0 11 20.5 44.5t23.5 38.5t8 10t10 14.5 t10.5 19.5t20 33t35 28t38.5 3t37.5 -1t25.5 1l78 -5l61 3l60 2l82 -2l63 2q58 0 58 -52q0 -35 -49 -50q-17 -5 -38 -11q-68 -20 -89 -29.5t-34 -12.5q-29 -7 -57 -14q-39 -10 -67 -21q-89 -36 -114 -36h-37l-57 2h-19l-33 -2q-20 0 -28.5 10.5t-8.5 22.5z" />
<glyph unicode="&#xdb;" horiz-adv-x="1579" d="M66 1167l6 125l-4 60q0 24 16 61q16 27 41 31t49 4l78 -4l154 4l61 -2h45q57 0 78 -14q49 -30 49 -103l-8 -65q-2 -10 -2 -31l8 -121l-6 -70l-2 -40v-62l-15 -129l4 -51v-123q0 -47 16.5 -75t30 -40t38 -21t33.5 -11.5t20.5 -1.5t21.5 -1l39 -4q34 0 48 8.5t32 22.5 t28.5 22.5t15.5 18.5q9 18 9 39v102l8 84l-6 66l6 59l-14 139l8 132l-2 63l2 53l-8 74q0 57 43 72q18 12 68 12l55 -4h74q2 -2 6 -2h127q54 6 66 6q54 0 68 -7q37 -18 45.5 -30t14 -28.5t7.5 -34.5q4 -34 4 -62l-2 -57l2 -47v-36q0 -10 -11 -104l-10 -108l8 -160l-4 -149 l2 -62q0 -139 -35 -213q-10 -21 -15 -41t-11 -33t-15.5 -27.5t-18.5 -31t-16 -32t-16 -29.5q-38 -55 -86 -86q-6 -4 -13 -9.5t-16 -10.5t-17.5 -12t-27 -18t-51 -21.5t-63.5 -16.5q-60 -13 -96 -13l-70 2h-16q-9 0 -17 -2l-49 -6h-24l-134 8l-65 -4l-45 4q-32 0 -95 18.5 t-72 22.5t-17.5 10.5t-24.5 17.5t-30.5 19.5t-30.5 17.5q-34 20 -45 28t-26.5 19t-33.5 28q-42 41 -54.5 65.5t-17 31.5t-10.5 18t-14 23.5t-15 24.5l-32 103q-2 8 -2 13v47l-2 64v21l4 125l-4 107l2 51l-2 45l4 113zM373 1572q0 28 16 40q4 6 11 9q13 5 20.5 17.5t18 20.5 t20.5 17.5t35 29.5q11 16 21.5 21.5t17.5 10.5t15.5 14t17.5 14t26.5 8.5t36 4.5l37 2t28.5 1l62 -4l67 2l64 -4l67 4q41 0 63.5 -13.5t43.5 -35.5q12 -16 24 -25q10 -12 27 -20q9 -12 29 -27q8 -6 15 -12.5t19.5 -14.5t25.5 -24.5t13 -24.5t-4 -22.5t-32 -14.5h-33l-49 4 l-49 -4q-48 0 -61 2t-26.5 7.5t-27.5 10.5t-27.5 9t-17.5 7t-9.5 6t-12.5 7t-34.5 12.5t-39.5 8.5q-13 0 -37.5 -7t-29.5 -9.5t-19.5 -8.5t-23.5 -8t-18 -6q-21 -9 -29.5 -14.5t-16 -8t-18.5 -4.5t-29 -2h-46l-41 2l-69 -2q-25 0 -33 9.5t-8 14.5z" />
<glyph unicode="&#xdc;" horiz-adv-x="1579" d="M66 1167l6 125l-4 60q0 24 16 61q16 27 41 31t49 4l78 -4l154 4l61 -2h45q57 0 78 -14q49 -30 49 -103l-8 -65q-2 -10 -2 -31l8 -121l-6 -70l-2 -40v-62l-15 -129l4 -51v-123q0 -47 16.5 -75t30 -40t38 -21t33.5 -11.5t20.5 -1.5t21.5 -1l39 -4q34 0 48 8.5t32 22.5 t28.5 22.5t15.5 18.5q9 18 9 39v102l8 84l-6 66l6 59l-14 139l8 132l-2 63l2 53l-8 74q0 57 43 72q18 12 68 12l55 -4h74q2 -2 6 -2h127q54 6 66 6q54 0 68 -7q37 -18 45.5 -30t14 -28.5t7.5 -34.5q4 -34 4 -62l-2 -57l2 -47v-36q0 -10 -11 -104l-10 -108l8 -160l-4 -149 l2 -62q0 -139 -35 -213q-10 -21 -15 -41t-11 -33t-15.5 -27.5t-18.5 -31t-16 -32t-16 -29.5q-38 -55 -86 -86q-6 -4 -13 -9.5t-16 -10.5t-17.5 -12t-27 -18t-51 -21.5t-63.5 -16.5q-60 -13 -96 -13l-70 2h-16q-9 0 -17 -2l-49 -6h-24l-134 8l-65 -4l-45 4q-32 0 -95 18.5 t-72 22.5t-17.5 10.5t-24.5 17.5t-30.5 19.5t-30.5 17.5q-34 20 -45 28t-26.5 19t-33.5 28q-42 41 -54.5 65.5t-17 31.5t-10.5 18t-14 23.5t-15 24.5l-32 103q-2 8 -2 13v47l-2 64v21l4 125l-4 107l2 51l-2 45l4 113zM322 1618l2 47v46q0 21 13 45t48 28l37 -2l31 2 q4 2 24.5 0t26.5 -2l55 2l64 -2l53 2q48 0 69 -17.5t23 -32t2 -21.5v-77q0 -55 -21.5 -70.5t-28.5 -17.5q-14 -4 -69 -4q-31 0 -39 4h-39l-71 4h-18l-40 -6h-12q-47 0 -78.5 9.5t-31.5 62.5zM838 1604l2 43v67q0 74 80 74l51 -4h55l51 -2l31 2l27 -2l36 4q61 0 91 -23 q22 -22 22 -88l2 -45q0 -37 -7 -50t-20.5 -25.5t-40.5 -12.5h-35l-42 6q-4 2 -17.5 1t-17.5 -1l-33 2l-57 -6l-35 2l-55 -2q-58 0 -73 18.5t-15 41.5z" />
<glyph unicode="&#xdd;" horiz-adv-x="1536" d="M0 1401q0 23 19.5 40t41.5 17l86 -10l39 2q12 2 24 2h17l37 -2q20 -4 32.5 -4t16.5 2h56q27 0 45 6h65q47 0 67.5 -15.5t33 -40.5t15.5 -46t9 -36t11.5 -25.5t14.5 -28.5q41 -79 48.5 -95t14.5 -33.5t15.5 -32.5t18.5 -29.5t20.5 -14.5t23.5 13t27 32q30 37 45 65.5 t29.5 50t23.5 34t17 23.5q18 24 28.5 47t16.5 36q21 49 43 63q47 31 95 31h11q7 0 17 -2l27 -2l35 2q10 2 20 2h15l159 -10h20l70 12l37 -6q31 -12 31 -55.5t-11 -63.5t-18.5 -31.5t-12.5 -22.5t-9 -22.5t-9 -21.5t-14 -19q-27 -27 -45 -63l-30 -68q-6 -14 -13 -27l-17 -27 q-33 -55 -60 -92.5t-40 -58t-30 -48t-31 -48t-28.5 -40t-25.5 -35.5t-15.5 -22.5t-8.5 -19.5t-18.5 -39t-19.5 -36q-33 -66 -37.5 -107t-5.5 -63.5t-2 -41t-1 -26.5v-24l-2 -69v-24l2 -38l15 -93q0 -50 -35 -90q-17 -18 -66 -18l-102 8l-96 -4l-90 6l-107 -4q-23 0 -40.5 4 t-38.5 29.5t-21 40.5q0 27 10 72t10 92v124q0 63 -9 92t-18 52q-28 80 -43.5 104.5t-24.5 44t-18.5 41t-20.5 40.5t-20.5 32.5t-18.5 28t-15 28t-16.5 32t-26 41t-23.5 34.5t-21.5 39.5t-30.5 61.5q-34 68 -50 103q-43 95 -61 126q-45 73 -51.5 94.5t-6.5 44.5zM494 1581v2 q0 4 6 15.5t13 25.5t14.5 25.5t10.5 16.5t8 10t10 14.5t10 19.5t20 33t35 28t38.5 3t38 -1t25.5 1l78 -5l61 3l60 2l82 -2l63 2q57 0 57 -52q0 -35 -48 -50q-33 -10 -63 -18.5t-42 -13t-27.5 -11.5t-29.5 -10q-40 -9 -62 -15q-37 -10 -63 -21q-86 -35 -132 -35h-18l-57 2 h-19l-33 -2q-20 0 -28 10.5t-8 22.5z" />
<glyph unicode="&#xde;" horiz-adv-x="1492" d="M74 1362q0 59 18.5 79.5t63.5 20.5l96 -4l100 -6h25q20 4 34.5 5t28.5 1l78 8h47q71 0 78 -41q2 -4 1 -22.5t-1 -22.5q0 -55 24.5 -65t59.5 -12l49 2q10 0 98 -11l84 -10q18 -4 37 -10t37 -10l43 -13q60 -15 94.5 -38t58 -40.5t50.5 -38.5q69 -55 85 -74q39 -45 47.5 -66 t11.5 -30q5 -15 12.5 -29.5t16.5 -37.5q15 -38 15 -93t-3 -89.5t-7 -69.5q-10 -89 -17 -109t-17 -42q-30 -59 -53 -83t-36.5 -36.5t-40 -39t-63.5 -54t-49 -36.5t-44 -22.5t-66 -24.5q-75 -26 -101.5 -29t-46 -4t-41 -2t-42 -2t-28.5 -1h-66q-43 0 -73.5 -14.5t-30.5 -82 t-53 -67.5l-135 8l-68 -4l-68 4l-67 -4q-14 -2 -26 -2h-27q-8 -2 -17 -2h-16q-57 0 -81 56q-5 12 -5 49v79l10 180l-10 148l6 147q2 23 2 30v17l-4 111l8 172v19q0 69 -5 108q-7 55 -7 74l4 69zM635 657q0 -55 67 -55q23 0 59.5 7t52 8t29 4.5t22.5 5.5t18 8q51 35 51 94 q0 48 -55 84q-18 12 -78 29l-84 6q-53 0 -66.5 -26.5t-13.5 -59.5l2 -57z" />
<glyph unicode="&#xdf;" d="M53 80v30q0 23 1 32.5t7 54.5l-2 47l2 82l7 123v21l-9 104v66q0 13 2 28l2 47v57l3 70l-3 42l-2 46l2 58l3 56q5 89 40 140q7 10 13 20q4 10 8 18.5t8 18.5q8 19 22.5 38t21.5 29.5t15 18.5q13 12 34.5 27.5t28.5 22.5t23.5 17.5t43 17.5t49 15t41.5 13q65 20 101 20h73 q55 0 69 -3q56 -12 81.5 -10.5t34.5 -0.5t27.5 -6t41.5 -10q59 -14 71 -18.5t28.5 -17t30.5 -20.5q22 -13 39 -26q70 -50 100 -122q7 -16 14.5 -30t16.5 -32q21 -40 21 -122q0 -35 -6 -54t-14 -48t-13 -42q-22 -51 -22 -58q0 -29 84 -117q35 -43 48 -69.5t17 -35.5 q5 -12 13 -40.5t15 -46t10 -30.5t3 -21v-19l-2 -58l2 -53q0 -79 -36 -140.5t-52 -88.5t-46 -51q-53 -44 -117 -60l-43 -6q-37 -12 -81 -14t-64.5 -3t-27.5 -1h-17l-74 12q-11 0 -23 3t-38 13q-51 20 -58 54l-11 170l6 96v24q0 29 8 40q14 22 50 22h2q10 -2 18 -10 q19 -17 45.5 -17t44 15.5t17.5 47.5q0 51 -6 66q-23 58 -55 79q-12 8 -24 26q-26 37 -42 47t-22 14q-48 29 -48 70t14.5 59.5t32.5 35.5q36 34 37.5 44t8.5 20q14 20 14 46.5t-16.5 57t-49.5 30.5t-62.5 -19.5t-29.5 -73.5l6 -129l-6 -67q-2 -27 -2 -42v-46q8 -132 8 -137 l-4 -88v-19l-2 -60v-20l2 -80l-6 -100q0 -12 2 -16l8 -58l2 -26q0 -47 -25.5 -59.5t-55.5 -12.5t-38 4l-75 -2l-68 6h-11l-48 2h-15l-73 -4q-43 0 -71 9.5t-28 66.5z" />
<glyph unicode="&#xe0;" d="M20 363q0 143 113 285q47 59 129 80q27 7 58 16q80 22 90 22l116 8l47 -2l31 2l127 -22q35 0 35 26t-12.5 35.5t-35 22t-32.5 15.5t-39 3l-94 6l-72 -2q-15 0 -48 -7t-49.5 -8t-33.5 -5q-16 -4 -31.5 -7.5t-31.5 -7.5l-25 -2q-44 0 -54 17q-3 6 -7 10q-23 23 -23 100 l2 41l-6 76q0 44 10 58q19 25 84 36q10 2 14 2t54 10l135 11h27l90 6l57 -4h121l131 -17q47 -4 79 -9t54 -20.5t31.5 -22.5t18.5 -13q18 -12 43.5 -28t52 -47.5t44.5 -62.5q26 -42 42 -108l6 -108l-8 -94v-29l6 -150l-6 -177v-30q-7 -28 -7 -73q0 -17 4 -37l7 -58 q0 -99 -96 -93q-17 1 -44 1l-71 -2h-56l-135 -6q-37 0 -43 19.5t-6 45t-14 25.5t-31 -14q-21 -19 -76 -46q-91 -46 -192 -46q-6 0 -24.5 2t-39.5 4q-67 6 -95 17l-46 18q-10 4 -22.5 6t-27.5 7q-58 19 -97 64q-5 7 -11 13l-24 24q-23 21 -50 76t-35 79.5t-8 68.5z M308 1428.5q0 21.5 7 40t50 18.5l66 -4l55 4l47 -4l43 2l43 -6l63 6h31l37 -2l39 2q32 0 47.5 -20.5t20.5 -26.5q4 -14 18 -36t23 -37q22 -34 30 -47t8 -28q0 -30 -49 -30l-39 4l-32 -4q-71 0 -103 9t-57 19t-39 15.5t-26.5 6.5t-21.5 5t-16.5 5t-15.5 5t-16.5 5t-16.5 4 t-14 6t-15 6.5t-19.5 5.5t-19.5 6t-17.5 7t-15.5 5t-11 2t-8.5 1t-23 8t-35.5 16.5t-17 31zM514 395q0 -35 19.5 -49t41.5 -14t48 4h20q59 0 89 36q13 15 13 42q0 43 -53 55q-6 2 -15 2h-42l-39 2q-18 0 -50 -19.5t-32 -58.5z" />
<glyph unicode="&#xe1;" d="M20 363q0 143 113 285q47 59 129 80q27 7 58 16q80 22 90 22l116 8l47 -2l31 2l127 -22q35 0 35 26t-12.5 35.5t-35 22t-32.5 15.5t-39 3l-94 6l-72 -2q-15 0 -48 -7t-49.5 -8t-33.5 -5q-16 -4 -31.5 -7.5t-31.5 -7.5l-25 -2q-44 0 -54 17q-3 6 -7 10q-23 23 -23 100 l2 41l-6 76q0 44 10 58q19 25 84 36q10 2 14 2t54 10l135 11h27l90 6l57 -4h121l131 -17q47 -4 79 -9t54 -20.5t31.5 -22.5t18.5 -13q18 -12 43.5 -28t52 -47.5t44.5 -62.5q26 -42 42 -108l6 -108l-8 -94v-29l6 -150l-6 -177v-30q-7 -28 -7 -73q0 -17 4 -37l7 -58 q0 -99 -96 -93q-17 1 -44 1l-71 -2h-56l-135 -6q-37 0 -43 19.5t-6 45t-14 25.5t-31 -14q-21 -19 -76 -46q-91 -46 -192 -46q-6 0 -24.5 2t-39.5 4q-67 6 -95 17l-46 18q-10 4 -22.5 6t-27.5 7q-58 19 -97 64q-5 7 -11 13l-24 24q-23 21 -50 76t-35 79.5t-8 68.5zM383 1292 q0 10 14 36t18 34t10.5 14t13.5 15.5t13 22.5q28 60 52 66.5t53 4.5h47l84 -4l125 6l78 -4l59 2q16 0 39.5 -6t23.5 -40q0 -41 -48 -57q-17 -6 -36 -11q-66 -17 -88 -27.5t-33.5 -13.5t-18.5 -4t-15 -4t-17.5 -5t-18.5 -5t-17 -3q-12 0 -39 -15l-45 -15q-48 -16 -74.5 -17.5 t-85.5 0.5l-55 -2q-39 0 -39 32zM514 395q0 -35 19.5 -49t41.5 -14t48 4h20q59 0 89 36q13 15 13 42q0 43 -53 55q-6 2 -15 2h-42l-39 2q-18 0 -50 -19.5t-32 -58.5z" />
<glyph unicode="&#xe2;" d="M20 363q0 143 113 285q47 59 129 80q27 7 58 16q80 22 90 22l116 8l47 -2l31 2l127 -22q35 0 35 26t-12.5 35.5t-35 22t-32.5 15.5t-39 3l-94 6l-72 -2q-15 0 -48 -7t-49.5 -8t-33.5 -5q-16 -4 -31.5 -7.5t-31.5 -7.5l-25 -2q-44 0 -54 17q-3 6 -7 10q-23 23 -23 100 l2 41l-6 76q0 44 10 58q19 25 84 36q10 2 14 2t54 10l135 11h27l90 6l57 -4h121l131 -17q47 -4 79 -9t54 -20.5t31.5 -22.5t18.5 -13q18 -12 43.5 -28t52 -47.5t44.5 -62.5q26 -42 42 -108l6 -108l-8 -94v-29l6 -150l-6 -177v-30q-7 -28 -7 -73q0 -17 4 -37l7 -58 q0 -99 -96 -93q-17 1 -44 1l-71 -2h-56l-135 -6q-37 0 -43 19.5t-6 45t-14 25.5t-31 -14q-21 -19 -76 -46q-91 -46 -192 -46q-6 0 -24.5 2t-39.5 4q-67 6 -95 17l-46 18q-10 4 -22.5 6t-27.5 7q-58 19 -97 64q-5 7 -11 13l-24 24q-23 21 -50 76t-35 79.5t-8 68.5zM248 1282 q0 38 25 48q14 5 18 12.5t7 11.5t14.5 13t22.5 19.5t20.5 18.5t12.5 11q11 11 15 16q4 4 10.5 8t14.5 9t16 13t17.5 13.5t26 8.5t33.5 4q51 3 63 3l67 -4l27 2l69 -2l39 -2l56 4q49 0 62 -7q26 -14 40 -29t18.5 -20.5t11.5 -12.5t16 -13t18.5 -14t15.5 -15.5t16 -13.5 l19 -12q16 -19 25 -29q26 -29 26 -34q0 -36 -35 -36l-41 2l-47 2l-47 -2l-64 5q-19 4 -59 19q-48 18 -57 26q-10 2 -37 11t-44.5 9t-48 -13.5t-44 -17.5t-19.5 -5t-12 -4t-12.5 -6t-21 -12t-44.5 -10l-29 3l-32 -3l-39 3l-47 -3q-62 0 -62 25zM514 395q0 -35 19.5 -49 t41.5 -14t48 4h20q59 0 89 36q13 15 13 42q0 43 -53 55q-6 2 -15 2h-42l-39 2q-18 0 -50 -19.5t-32 -58.5z" />
<glyph unicode="&#xe3;" d="M20 363q0 143 113 285q47 59 129 80q27 7 58 16q80 22 90 22l116 8l47 -2l31 2l127 -22q35 0 35 26t-12.5 35.5t-35 22t-32.5 15.5t-39 3l-94 6l-72 -2q-15 0 -48 -7t-49.5 -8t-33.5 -5q-16 -4 -31.5 -7.5t-31.5 -7.5l-25 -2q-44 0 -54 17q-3 6 -7 10q-23 23 -23 100 l2 41l-6 76q0 44 10 58q19 25 84 36q10 2 14 2t54 10l135 11h27l90 6l57 -4h121l131 -17q47 -4 79 -9t54 -20.5t31.5 -22.5t18.5 -13q18 -12 43.5 -28t52 -47.5t44.5 -62.5q26 -42 42 -108l6 -108l-8 -94v-29l6 -150l-6 -177v-30q-7 -28 -7 -73q0 -17 4 -37l7 -58 q0 -99 -96 -93q-17 1 -44 1l-71 -2h-56l-135 -6q-37 0 -43 19.5t-6 45t-14 25.5t-31 -14q-21 -19 -76 -46q-91 -46 -192 -46q-6 0 -24.5 2t-39.5 4q-67 6 -95 17l-46 18q-10 4 -22.5 6t-27.5 7q-58 19 -97 64q-5 7 -11 13l-24 24q-23 21 -50 76t-35 79.5t-8 68.5zM251 1317 q0 33 23.5 72t32 47t27.5 22q26 19 42.5 25t24.5 8t19 6t24 4h29q78 0 106 -14q10 -2 21 -2l80 -12l53 -11l88 -10q31 0 40 9t13 12.5t11 10.5q13 13 44 13l25 -2l57 2q18 0 38 -6t20 -29.5t-7 -36.5q-8 -37 -21 -50t-17 -18t-8.5 -12.5t-17.5 -24.5q-24 -31 -95 -52 q-10 -4 -17 -4h-26l-33 -4q-4 0 -19.5 2t-31.5 4q-45 5 -61 8.5t-35 7.5t-35 7t-24.5 3t-20.5 2t-25.5 5.5t-28.5 6.5q-24 5 -52.5 5t-37 -3t-17.5 -14q-20 -26 -56 -26l-43 2l-37 -2q-25 0 -38.5 13t-13.5 36zM514 395q0 -35 19.5 -49t41.5 -14t48 4h20q59 0 89 36 q13 15 13 42q0 43 -53 55q-6 2 -15 2h-42l-39 2q-18 0 -50 -19.5t-32 -58.5z" />
<glyph unicode="&#xe4;" d="M20 363q0 143 113 285q47 59 129 80q27 7 58 16q80 22 90 22l116 8l47 -2l31 2l127 -22q35 0 35 26t-12.5 35.5t-35 22t-32.5 15.5t-39 3l-94 6l-72 -2q-15 0 -48 -7t-49.5 -8t-33.5 -5q-16 -4 -31.5 -7.5t-31.5 -7.5l-25 -2q-44 0 -54 17q-3 6 -7 10q-23 23 -23 100 l2 41l-6 76q0 44 10 58q19 25 84 36q10 2 14 2t54 10l135 11h27l90 6l57 -4h121l131 -17q47 -4 79 -9t54 -20.5t31.5 -22.5t18.5 -13q18 -12 43.5 -28t52 -47.5t44.5 -62.5q26 -42 42 -108l6 -108l-8 -94v-29l6 -150l-6 -177v-30q-7 -28 -7 -73q0 -17 4 -37l7 -58 q0 -99 -96 -93q-17 1 -44 1l-71 -2h-56l-135 -6q-37 0 -43 19.5t-6 45t-14 25.5t-31 -14q-21 -19 -76 -46q-91 -46 -192 -46q-6 0 -24.5 2t-39.5 4q-67 6 -95 17l-46 18q-10 4 -22.5 6t-27.5 7q-58 19 -97 64q-5 7 -11 13l-24 24q-23 21 -50 76t-35 79.5t-8 68.5zM189 1325 l2 47v29q0 92 67 92l33 -2l35 2l47 -2q6 -2 26.5 -1t26.5 1l66 -2l49 2q85 0 96 -53v-86q0 -56 -18.5 -74t-32.5 -21.5t-23 -3.5h-18q-8 -2 -25 -2l-47 4h-39l-65 7l-72 -9q-57 0 -82.5 12.5t-25.5 59.5zM514 395q0 -35 19.5 -49t41.5 -14t48 4h20q59 0 89 36q13 15 13 42 q0 43 -53 55q-6 2 -15 2h-42l-39 2q-18 0 -50 -19.5t-32 -58.5zM703 1315l4 55v45q0 47 32 68q16 10 40 10l96 -4h51l55 -2h19l39 4q68 0 90 -25q22 -19 22 -86v-45q0 -41 -6 -53q-18 -35 -70 -35h-4l-61 6h-37l-37 2l-55 -4h-78q-55 0 -68 7q-32 16 -32 57z" />
<glyph unicode="&#xe5;" d="M20 363q0 143 113 285q47 59 129 80q27 7 58 16q80 22 90 22l116 8l47 -2l31 2l127 -22q35 0 35 26t-12.5 35.5t-35 22t-32.5 15.5t-39 3l-94 6l-72 -2q-15 0 -48 -7t-49.5 -8t-33.5 -5q-16 -4 -31.5 -7.5t-31.5 -7.5l-25 -2q-44 0 -54 17q-3 6 -7 10q-23 23 -23 100 l2 41l-6 76q0 44 10 58q19 25 84 36q10 2 14 2t54 10l135 11h27l90 6l57 -4h121l131 -17q47 -4 79 -9t54 -20.5t31.5 -22.5t18.5 -13q18 -12 43.5 -28t52 -47.5t44.5 -62.5q26 -42 42 -108l6 -108l-8 -94v-29l6 -150l-6 -177v-30q-7 -28 -7 -73q0 -17 4 -37l7 -58 q0 -99 -96 -93q-17 1 -44 1l-71 -2h-56l-135 -6q-37 0 -43 19.5t-6 45t-14 25.5t-31 -14q-21 -19 -76 -46q-91 -46 -192 -46q-6 0 -24.5 2t-39.5 4q-67 6 -95 17l-46 18q-10 4 -22.5 6t-27.5 7q-58 19 -97 64q-5 7 -11 13l-24 24q-23 21 -50 76t-35 79.5t-8 68.5zM375 1430 q0 50 49 93q85 72 230 72q204 0 276 -104q2 -2 14.5 -24.5t12.5 -54.5q0 -84 -98 -140q-35 -18 -62 -23.5t-60.5 -9.5t-49.5 -4h-68q-42 0 -99 18t-82.5 41t-40.5 47q-22 39 -22 89zM514 395q0 -35 19.5 -49t41.5 -14t48 4h20q59 0 89 36q13 15 13 42q0 43 -53 55 q-6 2 -15 2h-42l-39 2q-18 0 -50 -19.5t-32 -58.5zM578 1409q0 -49 89 -49t89 49q0 36 -39 51q-21 8 -36 8t-29.5 -1t-30.5 -7q-43 -16 -43 -51z" />
<glyph unicode="&#xe6;" horiz-adv-x="2004" d="M-4 338v36q0 88 30 142q5 8 8 16.5t8 16.5t13 22t14.5 24.5t11.5 18.5q9 16 28 33q50 57 109 75q31 9 60 17.5t43.5 13.5t26.5 8t19.5 5t27 3t41.5 3q45 4 72 4l102 -6l103 -18q12 0 25.5 4t13.5 28q0 31 -46 58q-34 20 -54.5 20t-39.5 2l-88 6h-46t-37.5 -2t-27 -5 t-23.5 -6t-24.5 -4t-25.5 -3l-96 -19q-82 0 -88 82q-2 27 -1 51.5t-1 51.5l-4 67q0 37 13 52.5t52 27.5l115 19q2 0 17 2t37 4q44 4 93 4l94 6l37 -2q20 -4 37 -4h41q70 0 166 -31q2 0 13.5 -5t25.5 -10t37 -16q32 -14 49 -14q32 0 98 33q14 4 25.5 11t28.5 13t46 12.5 t57 9.5q47 5 74 5t66 -3t75 -7q61 -7 84 -12q38 -10 60 -17q12 -4 24.5 -6t23.5 -6t32 -14.5t43 -23.5q56 -34 62 -39t21 -19.5t33 -32.5q46 -46 54 -59t12.5 -20t9.5 -17t12 -18.5t11 -17.5t9.5 -29.5t10.5 -43t9 -40t5 -25.5t0 -22q-2 -21 3.5 -45t7.5 -38l2 -29 q0 -68 -20 -100.5t-47 -37.5t-80 -5h-74l-127 -6h-36l-117 8l-68 -4l-98 4q-23 0 -50.5 -5t-27.5 -27.5t11 -32t27.5 -18.5t29 -13t26.5 -7t33 -3h51q39 0 63.5 -5.5t41 -6.5t34.5 -1l54 2h40l59 -2q17 0 35.5 1t35.5 7q40 15 56.5 15t29 -2t23.5 -9q28 -20 28 -55l-8 -127 l8 -92q0 -41 -25.5 -64.5t-97.5 -33.5t-122 -10l-212 -6q-60 0 -81 5t-28.5 6t-18.5 4t-23.5 3t-24.5 2l-96 18q-16 0 -36 8.5t-42 15.5q-47 16 -63 26q-45 30 -61 30h-17q-13 0 -24 -8t-18 -12q-14 -8 -32 -18.5t-39 -18.5t-40.5 -15.5t-35.5 -12.5t-24 -8q-40 -15 -62 -15 h-22q-12 -2 -24 -2h-26q-48 -6 -61 -6l-49 2l-49 4h-25q-57 0 -93 13q-40 14 -58.5 21t-34.5 11q-51 12 -73.5 30.5t-36 30.5t-27 26.5t-23.5 25t-18 20.5q-9 11 -30 57q-40 87 -40 115zM492 398q0 -30 14 -47t43.5 -17t36.5 2l30 6l31 -2q49 0 74 36q10 15 10 38 q0 49 -72 57h-18q-8 0 -16 2l-41 2q-43 0 -67.5 -23.5t-24.5 -53.5zM1206 795q0 -37 66 -37h14l56 2h14l49 2l51 -4q29 0 41 15t12 30.5t-16 27t-37 17.5q-36 10 -74 10l-43 -4h-41q-92 0 -92 -59z" />
<glyph unicode="&#xe7;" horiz-adv-x="980" d="M23 610q0 20 5 52t8 44.5t6 23.5q11 40 20.5 66.5t14.5 39.5q11 29 23 46t20.5 29.5t18.5 24.5q8 12 15 24q26 47 74 90.5t60.5 50.5t24 12t23.5 11t21.5 12.5t15.5 8.5q76 25 132 30t65.5 6t21.5 1h74l57 -2l74 2q127 0 127 -99l-4 -120l4 -136q0 -96 -43 -116 q-15 -6 -80 -6l-74 -5l-45 2q-86 0 -117 -43q-26 -42 -26 -67q0 -58 24 -88q23 -35 88 -35l35 2l86 -8l62 4q37 0 63.5 -18.5t26.5 -53.5q-9 -63 -9 -121v-66q0 -9 3 -20l8 -71q0 -63 -35 -85q-39 -23 -83 -31q-99 -16 -132 -36q-10 -6 -10 -23t7 -24.5t33 -25.5 q58 -37 58 -101q0 -44 -15 -74.5t-44 -44.5t-59 -21q-39 -9 -67 -9q-44 0 -92 10q-18 4 -24 5t-30 13t-34 25.5t-10 60.5l4 33q2 10 2 23.5t3 25.5t10 24q18 27 57 27l47 -6q10 0 20.5 7.5t10.5 29t-13.5 34.5t-32 23.5t-31.5 17.5t-30 14q-37 16 -44 22q-23 20 -31.5 22 t-45 21.5t-61.5 45.5l-32 32q-7 6 -33.5 29.5t-45 42t-31.5 38.5q-18 25 -42 85q-30 77 -41 142z" />
<glyph unicode="&#xe8;" d="M23 552v42q0 78 6 97q16 50 17 63.5t3 20.5t5 16.5t6 19.5t7.5 21.5t11.5 26.5t15 33q20 43 28.5 53.5t20 22t20.5 21.5q14 16 27 37q10 10 21.5 20.5t21.5 18.5q40 32 67 44.5t42.5 18t31 12.5t28 14t22.5 11q44 18 86 25l111 10h33q40 0 76 -5t60 -8q59 -7 78 -11 l43 -13q14 -4 27.5 -7t25 -6t32 -14.5t42.5 -24.5q56 -32 68 -42t23.5 -22.5t21.5 -23.5t18.5 -18.5t18.5 -18.5q15 -17 30 -41.5t22 -35t12 -20.5t10.5 -30.5t10.5 -43t10 -46t4 -37t1 -28.5t5 -30q7 -35 7 -56q0 -132 -86 -143h-137l-139 -8l-113 8l-65 -4l-137 4 q-20 0 -48 -5t-28 -36q0 -25 45 -46q42 -19 86 -19l35 2l45 -2h14q6 0 19 -3t23.5 -4.5t22 -2.5t28 0t33.5 1h36l82 -2h47q18 4 35 10q40 13 70 13t48.5 -18.5t18.5 -47.5l-8 -125l8 -94q0 -44 -17.5 -60t-27.5 -19t-28.5 -8t-45 -10t-56.5 -8q-50 -5 -107.5 -6t-67.5 -1 l-29 -2l-90 -2q-2 0 -15.5 1t-28.5 2t-32.5 3t-25.5 4q-22 6 -37 6t-28 4t-25.5 8t-27.5 8t-28.5 5.5t-30.5 5.5l-81 26q-23 9 -62 33q-25 12 -41 21.5t-29.5 17.5t-24.5 17.5t-30 24.5t-41 44t-44 59q-48 70 -58 92.5t-17.5 45t-15.5 50.5q-20 68 -20 94zM308 1428.5 q0 21.5 7 40t50 18.5l66 -4l55 4l47 -4l43 2l43 -6l63 6h31l37 -2l39 2q32 0 47.5 -20.5t20.5 -26.5q4 -14 18 -36t23 -37q22 -34 30 -47t8 -28q0 -30 -49 -30l-39 4l-32 -4q-71 0 -103 9t-57 19t-39 15.5t-26.5 6.5t-21.5 5t-16.5 5t-15.5 5t-16.5 5t-16.5 4t-14 6t-15 6.5 t-19.5 5.5t-19.5 6t-17.5 7t-15.5 5t-11 2t-8.5 1t-23 8t-35.5 16.5t-17 31zM520 797q0 -39 66 -39l37 2h47l41 4l63 -4q31 0 45.5 13t14.5 25q0 45 -94 58q-29 4 -44 4q-30 -6 -41 -6h-47q-29 0 -58.5 -9t-29.5 -48z" />
<glyph unicode="&#xe9;" d="M23 552v42q0 78 6 97q16 50 17 63.5t3 20.5t5 16.5t6 19.5t7.5 21.5t11.5 26.5t15 33q20 43 28.5 53.5t20 22t20.5 21.5q14 16 27 37q10 10 21.5 20.5t21.5 18.5q40 32 67 44.5t42.5 18t31 12.5t28 14t22.5 11q44 18 86 25l111 10h33q40 0 76 -5t60 -8q59 -7 78 -11 l43 -13q14 -4 27.5 -7t25 -6t32 -14.5t42.5 -24.5q56 -32 68 -42t23.5 -22.5t21.5 -23.5t18.5 -18.5t18.5 -18.5q15 -17 30 -41.5t22 -35t12 -20.5t10.5 -30.5t10.5 -43t10 -46t4 -37t1 -28.5t5 -30q7 -35 7 -56q0 -132 -86 -143h-137l-139 -8l-113 8l-65 -4l-137 4 q-20 0 -48 -5t-28 -36q0 -25 45 -46q42 -19 86 -19l35 2l45 -2h14q6 0 19 -3t23.5 -4.5t22 -2.5t28 0t33.5 1h36l82 -2h47q18 4 35 10q40 13 70 13t48.5 -18.5t18.5 -47.5l-8 -125l8 -94q0 -44 -17.5 -60t-27.5 -19t-28.5 -8t-45 -10t-56.5 -8q-50 -5 -107.5 -6t-67.5 -1 l-29 -2l-90 -2q-2 0 -15.5 1t-28.5 2t-32.5 3t-25.5 4q-22 6 -37 6t-28 4t-25.5 8t-27.5 8t-28.5 5.5t-30.5 5.5l-81 26q-23 9 -62 33q-25 12 -41 21.5t-29.5 17.5t-24.5 17.5t-30 24.5t-41 44t-44 59q-48 70 -58 92.5t-17.5 45t-15.5 50.5q-20 68 -20 94zM383 1292 q0 10 14 36t18 34t10.5 14t13.5 15.5t13 22.5q28 60 52 66.5t53 4.5h47l84 -4l125 6l78 -4l59 2q16 0 39.5 -6t23.5 -40q0 -41 -48 -57q-17 -6 -36 -11q-66 -17 -88 -27.5t-33.5 -13.5t-18.5 -4t-15 -4t-17.5 -5t-18.5 -5t-17 -3q-12 0 -39 -15l-45 -15q-48 -16 -74.5 -17.5 t-85.5 0.5l-55 -2q-39 0 -39 32zM520 797q0 -39 66 -39l37 2h47l41 4l63 -4q31 0 45.5 13t14.5 25q0 45 -94 58q-29 4 -44 4q-30 -6 -41 -6h-47q-29 0 -58.5 -9t-29.5 -48z" />
<glyph unicode="&#xea;" d="M23 552v42q0 78 6 97q16 50 17 63.5t3 20.5t5 16.5t6 19.5t7.5 21.5t11.5 26.5t15 33q20 43 28.5 53.5t20 22t20.5 21.5q14 16 27 37q10 10 21.5 20.5t21.5 18.5q40 32 67 44.5t42.5 18t31 12.5t28 14t22.5 11q44 18 86 25l111 10h33q40 0 76 -5t60 -8q59 -7 78 -11 l43 -13q14 -4 27.5 -7t25 -6t32 -14.5t42.5 -24.5q56 -32 68 -42t23.5 -22.5t21.5 -23.5t18.5 -18.5t18.5 -18.5q15 -17 30 -41.5t22 -35t12 -20.5t10.5 -30.5t10.5 -43t10 -46t4 -37t1 -28.5t5 -30q7 -35 7 -56q0 -132 -86 -143h-137l-139 -8l-113 8l-65 -4l-137 4 q-20 0 -48 -5t-28 -36q0 -25 45 -46q42 -19 86 -19l35 2l45 -2h14q6 0 19 -3t23.5 -4.5t22 -2.5t28 0t33.5 1h36l82 -2h47q18 4 35 10q40 13 70 13t48.5 -18.5t18.5 -47.5l-8 -125l8 -94q0 -44 -17.5 -60t-27.5 -19t-28.5 -8t-45 -10t-56.5 -8q-50 -5 -107.5 -6t-67.5 -1 l-29 -2l-90 -2q-2 0 -15.5 1t-28.5 2t-32.5 3t-25.5 4q-22 6 -37 6t-28 4t-25.5 8t-27.5 8t-28.5 5.5t-30.5 5.5l-81 26q-23 9 -62 33q-25 12 -41 21.5t-29.5 17.5t-24.5 17.5t-30 24.5t-41 44t-44 59q-48 70 -58 92.5t-17.5 45t-15.5 50.5q-20 68 -20 94zM248 1282 q0 38 25 48q14 5 18 12.5t7 11.5t14.5 13t22.5 19.5t20.5 18.5t12.5 11q11 11 15 16q4 4 10.5 8t14.5 9t16 13t17.5 13.5t26 8.5t33.5 4q51 3 63 3l67 -4l27 2l69 -2l39 -2l56 4q49 0 62 -7q26 -14 40 -29t18.5 -20.5t11.5 -12.5t16 -13t18.5 -14t15.5 -15.5t16 -13.5 l19 -12q16 -19 25 -29q26 -29 26 -34q0 -36 -35 -36l-41 2l-47 2l-47 -2l-64 5q-19 4 -59 19q-48 18 -57 26q-10 2 -37 11t-44.5 9t-48 -13.5t-44 -17.5t-19.5 -5t-12 -4t-12.5 -6t-21 -12t-44.5 -10l-29 3l-32 -3l-39 3l-47 -3q-62 0 -62 25zM520 797q0 -39 66 -39l37 2h47 l41 4l63 -4q31 0 45.5 13t14.5 25q0 45 -94 58q-29 4 -44 4q-30 -6 -41 -6h-47q-29 0 -58.5 -9t-29.5 -48z" />
<glyph unicode="&#xeb;" d="M23 552v42q0 78 6 97q16 50 17 63.5t3 20.5t5 16.5t6 19.5t7.5 21.5t11.5 26.5t15 33q20 43 28.5 53.5t20 22t20.5 21.5q14 16 27 37q10 10 21.5 20.5t21.5 18.5q40 32 67 44.5t42.5 18t31 12.5t28 14t22.5 11q44 18 86 25l111 10h33q40 0 76 -5t60 -8q59 -7 78 -11 l43 -13q14 -4 27.5 -7t25 -6t32 -14.5t42.5 -24.5q56 -32 68 -42t23.5 -22.5t21.5 -23.5t18.5 -18.5t18.5 -18.5q15 -17 30 -41.5t22 -35t12 -20.5t10.5 -30.5t10.5 -43t10 -46t4 -37t1 -28.5t5 -30q7 -35 7 -56q0 -132 -86 -143h-137l-139 -8l-113 8l-65 -4l-137 4 q-20 0 -48 -5t-28 -36q0 -25 45 -46q42 -19 86 -19l35 2l45 -2h14q6 0 19 -3t23.5 -4.5t22 -2.5t28 0t33.5 1h36l82 -2h47q18 4 35 10q40 13 70 13t48.5 -18.5t18.5 -47.5l-8 -125l8 -94q0 -44 -17.5 -60t-27.5 -19t-28.5 -8t-45 -10t-56.5 -8q-50 -5 -107.5 -6t-67.5 -1 l-29 -2l-90 -2q-2 0 -15.5 1t-28.5 2t-32.5 3t-25.5 4q-22 6 -37 6t-28 4t-25.5 8t-27.5 8t-28.5 5.5t-30.5 5.5l-81 26q-23 9 -62 33q-25 12 -41 21.5t-29.5 17.5t-24.5 17.5t-30 24.5t-41 44t-44 59q-48 70 -58 92.5t-17.5 45t-15.5 50.5q-20 68 -20 94zM185 1325l2 47v29 q0 92 67 92l33 -2l35 2l47 -2q6 -2 26.5 -1t26.5 1l66 -2l49 2q85 0 96 -53v-86q0 -56 -18.5 -74t-32.5 -21.5t-23 -3.5h-18q-8 -2 -25 -2l-47 4h-39l-65 7l-72 -9q-57 0 -82.5 12.5t-25.5 59.5zM520 797q0 -39 66 -39l37 2h47l41 4l63 -4q31 0 45.5 13t14.5 25q0 45 -94 58 q-29 4 -44 4q-30 -6 -41 -6h-47q-29 0 -58.5 -9t-29.5 -48zM699 1315l4 55v45q0 47 32 68q16 10 40 10l96 -4h51l55 -2h19l39 4q68 0 90 -25q22 -19 22 -86v-45q0 -41 -6 -53q-18 -35 -70 -35h-4l-61 6h-37l-37 2l-55 -4h-78q-55 0 -68 7q-32 16 -32 57z" />
<glyph unicode="&#xec;" horiz-adv-x="641" d="M-32 1428.5q0 21.5 7 40t50 18.5l66 -4l55 4l47 -4l43 2l43 -6l63 6h31l37 -2l39 2q32 0 47.5 -20.5t20.5 -26.5q4 -14 18 -36t23 -37q22 -34 30 -47t8 -28q0 -30 -49 -30l-39 4l-32 -4q-71 0 -103 9t-57 19t-39 15.5t-26.5 6.5t-21.5 5t-16.5 5t-15.5 5t-16.5 5t-16.5 4 t-14 6t-15 6.5t-19.5 5.5t-19.5 6t-17.5 7t-15.5 5t-11 2t-8.5 1t-23 8t-35.5 16.5t-17 31zM53 412l8 198q-2 16 -2 37v37q0 33 -4 41v82l2 41l-2 43l4 119l-4 75q0 86 111 86l39 -2q4 -2 17 -2h22l88 -4q25 0 57 4l82 7q63 0 79 -20q25 -34 25 -138l-6 -172l6 -137v-123 l-6 -107l4 -100v-31l-2 -94v-31l9 -96q0 -51 -27 -89t-96 -38l-117 6l-143 -6q-91 0 -119 36q-23 29 -23 109l4 119z" />
<glyph unicode="&#xed;" horiz-adv-x="641" d="M43 1292q0 10 14 36t18 34t10.5 14t13.5 15.5t13 22.5q28 60 52 66.5t53 4.5h47l84 -4l125 6l78 -4l59 2q16 0 39.5 -6t23.5 -40q0 -41 -48 -57q-17 -6 -36 -11q-66 -17 -88 -27.5t-33.5 -13.5t-18.5 -4t-15 -4t-17.5 -5t-18.5 -5t-17 -3q-12 0 -39 -15l-45 -15 q-48 -16 -74.5 -17.5t-85.5 0.5l-55 -2q-39 0 -39 32zM53 412l8 198q-2 16 -2 37v37q0 33 -4 41v82l2 41l-2 43l4 119l-4 75q0 86 111 86l39 -2q4 -2 17 -2h22l88 -4q25 0 57 4l82 7q63 0 79 -20q25 -34 25 -138l-6 -172l6 -137v-123l-6 -107l4 -100v-31l-2 -94v-31l9 -96 q0 -51 -27 -89t-96 -38l-117 6l-143 -6q-91 0 -119 36q-23 29 -23 109l4 119z" />
<glyph unicode="&#xee;" horiz-adv-x="641" d="M-92 1282q0 38 25 48q14 5 18 12.5t7 11.5t14.5 13t22.5 19.5t20.5 18.5t12.5 11q11 11 15 16q4 4 10.5 8t14.5 9t16 13t17.5 13.5t26 8.5t33.5 4q51 3 63 3l67 -4l27 2l69 -2l39 -2l56 4q49 0 62 -7q26 -14 40 -29t18.5 -20.5t11.5 -12.5t16 -13t18.5 -14t15.5 -15.5 t16 -13.5l19 -12q16 -19 25 -29q26 -29 26 -34q0 -36 -35 -36l-41 2l-47 2l-47 -2l-64 5q-19 4 -59 19q-48 18 -57 26q-10 2 -37 11t-44.5 9t-48 -13.5t-44 -17.5t-19.5 -5t-12 -4t-12.5 -6t-21 -12t-44.5 -10l-29 3l-32 -3l-39 3l-47 -3q-62 0 -62 25zM53 412l8 198 q-2 16 -2 37v37q0 33 -4 41v82l2 41l-2 43l4 119l-4 75q0 86 111 86l39 -2q4 -2 17 -2h22l88 -4q25 0 57 4l82 7q63 0 79 -20q25 -34 25 -138l-6 -172l6 -137v-123l-6 -107l4 -100v-31l-2 -94v-31l9 -96q0 -51 -27 -89t-96 -38l-117 6l-143 -6q-91 0 -119 36q-23 29 -23 109 l4 119z" />
<glyph unicode="&#xef;" horiz-adv-x="641" d="M-155 1325l2 47v29q0 92 67 92l33 -2l35 2l47 -2q6 -2 26.5 -1t26.5 1l66 -2l49 2q85 0 96 -53v-86q0 -56 -18.5 -74t-32.5 -21.5t-23 -3.5h-18q-8 -2 -25 -2l-47 4h-39l-65 7l-72 -9q-57 0 -82.5 12.5t-25.5 59.5zM53 412l8 198q-2 16 -2 37v37q0 33 -4 41v82l2 41 l-2 43l4 119l-4 75q0 86 111 86l39 -2q4 -2 17 -2h22l88 -4q25 0 57 4l82 7q63 0 79 -20q25 -34 25 -138l-6 -172l6 -137v-123l-6 -107l4 -100v-31l-2 -94v-31l9 -96q0 -51 -27 -89t-96 -38l-117 6l-143 -6q-91 0 -119 36q-23 29 -23 109l4 119zM359 1315l4 55v45 q0 47 32 68q16 10 40 10l96 -4h51l55 -2h19l39 4q68 0 90 -25q22 -19 22 -86v-45q0 -41 -6 -53q-18 -35 -70 -35h-4l-61 6h-37l-37 2l-55 -4h-78q-55 0 -68 7q-32 16 -32 57z" />
<glyph unicode="&#xf0;" horiz-adv-x="1449" d="M23 564q0 26 1 38t3 26q6 37 7 42.5t7 24t13 39.5q22 67 44.5 97.5t31.5 44t21 26.5t36 36t49 42q65 48 81.5 54t38 14.5t47 16.5t47.5 15l21 7q44 11 76 11l35 -2h45l61 -11l31 -8q16 0 16 13q0 15 -17 34q-29 31 -46 37l-27 -2h-21q-10 0 -20 2l-69 6l-127 -6 q-48 0 -66 29q-4 4 -11 23.5t-15 34.5q-13 28 -13 38q0 41 64 41l94 -8l45 2l18 -4q4 0 4 5t-6 8q-41 20 -41 65q0 57 64 57h14q10 0 21 -2l34 -2l156 8l59 -6l109 10q78 0 166 -114q10 -14 18 -20.5t25 -6.5t53 6h86q12 6 42 6t37 -15.5t11 -30.5q7 -28 25 -56 q10 -16 10 -29.5t-10 -26t-29 -12.5l-49 4l-29 -2l-22 2q-17 0 -17 -20q0 -10 5.5 -17.5t13.5 -27t12 -25.5t19 -24q4 -6 7 -13.5t13 -23.5q28 -47 42.5 -97.5t24.5 -86.5q25 -86 25 -97l6 -108q0 -15 -5 -58t-6 -53t-8 -28q-10 -24 -15 -47q-16 -66 -36 -106 q-68 -140 -155 -201q-20 -13 -42 -27.5t-41 -32t-35.5 -26.5t-40 -19.5t-53.5 -20.5t-58.5 -20.5t-48.5 -12.5l-131 -4q-36 0 -46 4l-49 -2q-69 0 -75 9q-8 0 -15.5 2t-16.5 4t-17.5 1t-21.5 0t-32 8t-40 18.5t-40.5 21.5t-37 16t-39.5 19q-38 23 -64 51t-46 48.5t-24 25.5 q-4 4 -8 6q-8 4 -14 13l-35 41q-6 9 -14.5 20.5t-14.5 20.5t-10 16t-11 24.5t-13 35.5q-11 36 -13 46t-2 22.5t-4 25.5q-22 72 -22 98zM545 596q0 -77 63 -115q17 -10 66 -22q40 -15 49.5 -15t21 2.5t27.5 5.5q51 9 67.5 20t36.5 28q39 33 39 71q0 82 -61 111q-16 7 -27 15 q-30 26 -73 26l-43 -4l-33 2q-19 0 -43 -12l-25 -19l-24 -18q-41 -31 -41 -76z" />
<glyph unicode="&#xf1;" horiz-adv-x="1366" d="M45 1010q0 34 12.5 79.5t29.5 58.5q37 28 77 28q4 0 31.5 -3.5t38.5 -3.5l46 -2h9l37 2q12 2 23 2h48q4 -2 9 -2h10q18 0 26 2h27q47 0 57.5 -20.5t14.5 -48.5q6 -39 16 -39q7 0 33.5 32t64 52t73.5 31q63 18 99 18l95 -10h40q87 0 160 -62q60 -48 74 -72t22.5 -39 t25 -41t19.5 -34t6 -29.5t6 -32.5t5 -28t4 -33v-110l10 -117l9 -160q0 -41 -5.5 -75t-7.5 -51t-3 -28.5t-1 -19.5v-20q0 -34 5 -67.5t7 -45.5t2 -33t-10 -43t-17 -31q-15 -18 -63 -18l-71 4l-103 -8q-13 0 -43 4l-45 2h-15q-11 0 -26 -2l-41 -2q-48 0 -70 18q-36 28 -36 74 l12 107l-2 69l6 92l-10 107v26q0 109 -58 152q-19 14 -48 14t-44.5 -19.5t-19.5 -35.5t-4 -31.5t-2 -29.5l-10 -78l10 -131l-6 -121v-17l14 -114q0 -51 -39 -70q-24 -12 -55 -12l-125 14l-84 -10l-72 4l-82 -6q-56 0 -79 38q-11 20 -11 68l10 170l5 120v24l-9 129l4 35 l7 161q0 38 -10 128q-13 107 -13 141zM274 1317q0 33 23.5 72t32 47t27.5 22q26 19 42.5 25t24.5 8t19 6t24 4h29q78 0 106 -14q10 -2 21 -2l80 -12l53 -11l88 -10q31 0 40 9t13 12.5t11 10.5q13 13 44 13l25 -2l57 2q18 0 38 -6t20 -29.5t-7 -36.5q-8 -37 -21 -50t-17 -18 t-8.5 -12.5t-17.5 -24.5q-24 -31 -95 -52q-10 -4 -17 -4h-26l-33 -4q-4 0 -19.5 2t-31.5 4q-45 5 -61 8.5t-35 7.5t-35 7t-24.5 3t-20.5 2t-25.5 5.5t-28.5 6.5q-24 5 -52.5 5t-37 -3t-17.5 -14q-20 -26 -56 -26l-43 2l-37 -2q-25 0 -38.5 13t-13.5 36z" />
<glyph unicode="&#xf2;" horiz-adv-x="1449" d="M23 560v18q0 65 6 87.5t9 35t7 23.5t6 24.5t6 23.5l13 31q4 10 7 19t9 22.5t18 27.5q17 17 34.5 47.5t25.5 42t50 51t68.5 58t40 25t28 12.5t26.5 12t27.5 13t30 13.5t25.5 11.5t22.5 7t36 7t36.5 7.5t34.5 5.5t34 4t35 5t55.5 4h46q12 0 37 -1t39 -5l86 -21 q98 -16 112.5 -22t53.5 -25q88 -44 151 -118q2 -2 21.5 -23.5t31.5 -32.5q42 -41 54 -72.5t20 -50.5t19.5 -38t16.5 -36t6 -30.5t6 -31.5t7 -30q6 -36 6 -67q0 -75 -8 -102t-12 -41.5t-8 -27.5t-6 -20l-7 -30q-2 -6 -15 -33t-19 -40t-13.5 -23t-20.5 -29t-24 -34 q-31 -45 -41 -53.5t-21 -17t-24 -17.5q-38 -25 -48.5 -33.5t-26 -24t-26.5 -22.5q-46 -29 -68.5 -35.5t-35 -7.5t-22.5 -4t-20.5 -6t-20.5 -7l-82 -15h-65l-50 -2l-26 2q-8 2 -18 2h-23l-10 -2h-7l-71 6l-41 7q-12 4 -24.5 3t-30.5 3q-26 6 -65.5 27.5t-54 27.5t-32.5 14 t-31.5 16.5t-26.5 19.5q-33 26 -100 102q-14 10 -24 23t-15.5 17.5t-8.5 7.5t-9 12t-15 21q-27 41 -39 79t-15 48.5t-4 22.5t-4 29t-11 38t-11 37.5t-3 27.5zM371 1428.5q0 21.5 7 40t50 18.5l66 -4l55 4l47 -4l43 2l43 -6l63 6h31l37 -2l39 2q32 0 47.5 -20.5t20.5 -26.5 q4 -14 18 -36t23 -37q22 -34 30 -47t8 -28q0 -30 -49 -30l-39 4l-32 -4q-71 0 -103 9t-57 19t-39 15.5t-26.5 6.5t-21.5 5t-16.5 5t-15.5 5t-16.5 5t-16.5 4t-14 6t-15 6.5t-19.5 5.5t-19.5 6t-17.5 7t-15.5 5t-11 2t-8.5 1t-23 8t-35.5 16.5t-17 31zM547 585.5 q0 -50.5 29.5 -78.5t50 -35t30 -8t31 -9t35.5 -9l37 5q54 8 77 20t41 29q40 41 40 82q0 7 -11.5 37t-17.5 37.5t-18.5 14.5t-40.5 25q-45 27 -74 27l-41 -6l-29 2h-13q-22 0 -61 -29l-24 -18q-41 -36 -41 -86.5z" />
<glyph unicode="&#xf3;" horiz-adv-x="1449" d="M23 560v18q0 65 6 87.5t9 35t7 23.5t6 24.5t6 23.5l13 31q4 10 7 19t9 22.5t18 27.5q17 17 34.5 47.5t25.5 42t50 51t68.5 58t40 25t28 12.5t26.5 12t27.5 13t30 13.5t25.5 11.5t22.5 7t36 7t36.5 7.5t34.5 5.5t34 4t35 5t55.5 4h46q12 0 37 -1t39 -5l86 -21 q98 -16 112.5 -22t53.5 -25q88 -44 151 -118q2 -2 21.5 -23.5t31.5 -32.5q42 -41 54 -72.5t20 -50.5t19.5 -38t16.5 -36t6 -30.5t6 -31.5t7 -30q6 -36 6 -67q0 -75 -8 -102t-12 -41.5t-8 -27.5t-6 -20l-7 -30q-2 -6 -15 -33t-19 -40t-13.5 -23t-20.5 -29t-24 -34 q-31 -45 -41 -53.5t-21 -17t-24 -17.5q-38 -25 -48.5 -33.5t-26 -24t-26.5 -22.5q-46 -29 -68.5 -35.5t-35 -7.5t-22.5 -4t-20.5 -6t-20.5 -7l-82 -15h-65l-50 -2l-26 2q-8 2 -18 2h-23l-10 -2h-7l-71 6l-41 7q-12 4 -24.5 3t-30.5 3q-26 6 -65.5 27.5t-54 27.5t-32.5 14 t-31.5 16.5t-26.5 19.5q-33 26 -100 102q-14 10 -24 23t-15.5 17.5t-8.5 7.5t-9 12t-15 21q-27 41 -39 79t-15 48.5t-4 22.5t-4 29t-11 38t-11 37.5t-3 27.5zM447 1292q0 10 14 36t18 34t10.5 14t13.5 15.5t13 22.5q28 60 52 66.5t53 4.5h47l84 -4l125 6l78 -4l59 2 q16 0 39.5 -6t23.5 -40q0 -41 -48 -57q-17 -6 -36 -11q-66 -17 -88 -27.5t-33.5 -13.5t-18.5 -4t-15 -4t-17.5 -5t-18.5 -5t-17 -3q-12 0 -39 -15l-45 -15q-48 -16 -74.5 -17.5t-85.5 0.5l-55 -2q-39 0 -39 32zM547 585.5q0 -50.5 29.5 -78.5t50 -35t30 -8t31 -9t35.5 -9 l37 5q54 8 77 20t41 29q40 41 40 82q0 7 -11.5 37t-17.5 37.5t-18.5 14.5t-40.5 25q-45 27 -74 27l-41 -6l-29 2h-13q-22 0 -61 -29l-24 -18q-41 -36 -41 -86.5z" />
<glyph unicode="&#xf4;" horiz-adv-x="1449" d="M23 560v18q0 65 6 87.5t9 35t7 23.5t6 24.5t6 23.5l13 31q4 10 7 19t9 22.5t18 27.5q17 17 34.5 47.5t25.5 42t50 51t68.5 58t40 25t28 12.5t26.5 12t27.5 13t30 13.5t25.5 11.5t22.5 7t36 7t36.5 7.5t34.5 5.5t34 4t35 5t55.5 4h46q12 0 37 -1t39 -5l86 -21 q98 -16 112.5 -22t53.5 -25q88 -44 151 -118q2 -2 21.5 -23.5t31.5 -32.5q42 -41 54 -72.5t20 -50.5t19.5 -38t16.5 -36t6 -30.5t6 -31.5t7 -30q6 -36 6 -67q0 -75 -8 -102t-12 -41.5t-8 -27.5t-6 -20l-7 -30q-2 -6 -15 -33t-19 -40t-13.5 -23t-20.5 -29t-24 -34 q-31 -45 -41 -53.5t-21 -17t-24 -17.5q-38 -25 -48.5 -33.5t-26 -24t-26.5 -22.5q-46 -29 -68.5 -35.5t-35 -7.5t-22.5 -4t-20.5 -6t-20.5 -7l-82 -15h-65l-50 -2l-26 2q-8 2 -18 2h-23l-10 -2h-7l-71 6l-41 7q-12 4 -24.5 3t-30.5 3q-26 6 -65.5 27.5t-54 27.5t-32.5 14 t-31.5 16.5t-26.5 19.5q-33 26 -100 102q-14 10 -24 23t-15.5 17.5t-8.5 7.5t-9 12t-15 21q-27 41 -39 79t-15 48.5t-4 22.5t-4 29t-11 38t-11 37.5t-3 27.5zM311 1282q0 38 25 48q14 5 18 12.5t7 11.5t14.5 13t22.5 19.5t20.5 18.5t12.5 11q11 11 15 16q4 4 10.5 8t14.5 9 t16 13t17.5 13.5t26 8.5t33.5 4q51 3 63 3l67 -4l27 2l69 -2l39 -2l56 4q49 0 62 -7q26 -14 40 -29t18.5 -20.5t11.5 -12.5t16 -13t18.5 -14t15.5 -15.5t16 -13.5l19 -12q16 -19 25 -29q26 -29 26 -34q0 -36 -35 -36l-41 2l-47 2l-47 -2l-64 5q-19 4 -59 19q-48 18 -57 26 q-10 2 -37 11t-44.5 9t-48 -13.5t-44 -17.5t-19.5 -5t-12 -4t-12.5 -6t-21 -12t-44.5 -10l-29 3l-32 -3l-39 3l-47 -3q-62 0 -62 25zM547 585.5q0 -50.5 29.5 -78.5t50 -35t30 -8t31 -9t35.5 -9l37 5q54 8 77 20t41 29q40 41 40 82q0 7 -11.5 37t-17.5 37.5t-18.5 14.5 t-40.5 25q-45 27 -74 27l-41 -6l-29 2h-13q-22 0 -61 -29l-24 -18q-41 -36 -41 -86.5z" />
<glyph unicode="&#xf5;" horiz-adv-x="1449" d="M23 560v18q0 65 6 87.5t9 35t7 23.5t6 24.5t6 23.5l13 31q4 10 7 19t9 22.5t18 27.5q17 17 34.5 47.5t25.5 42t50 51t68.5 58t40 25t28 12.5t26.5 12t27.5 13t30 13.5t25.5 11.5t22.5 7t36 7t36.5 7.5t34.5 5.5t34 4t35 5t55.5 4h46q12 0 37 -1t39 -5l86 -21 q98 -16 112.5 -22t53.5 -25q88 -44 151 -118q2 -2 21.5 -23.5t31.5 -32.5q42 -41 54 -72.5t20 -50.5t19.5 -38t16.5 -36t6 -30.5t6 -31.5t7 -30q6 -36 6 -67q0 -75 -8 -102t-12 -41.5t-8 -27.5t-6 -20l-7 -30q-2 -6 -15 -33t-19 -40t-13.5 -23t-20.5 -29t-24 -34 q-31 -45 -41 -53.5t-21 -17t-24 -17.5q-38 -25 -48.5 -33.5t-26 -24t-26.5 -22.5q-46 -29 -68.5 -35.5t-35 -7.5t-22.5 -4t-20.5 -6t-20.5 -7l-82 -15h-65l-50 -2l-26 2q-8 2 -18 2h-23l-10 -2h-7l-71 6l-41 7q-12 4 -24.5 3t-30.5 3q-26 6 -65.5 27.5t-54 27.5t-32.5 14 t-31.5 16.5t-26.5 19.5q-33 26 -100 102q-14 10 -24 23t-15.5 17.5t-8.5 7.5t-9 12t-15 21q-27 41 -39 79t-15 48.5t-4 22.5t-4 29t-11 38t-11 37.5t-3 27.5zM315 1317q0 33 23.5 72t32 47t27.5 22q26 19 42.5 25t24.5 8t19 6t24 4h29q78 0 106 -14q10 -2 21 -2l80 -12 l53 -11l88 -10q31 0 40 9t13 12.5t11 10.5q13 13 44 13l25 -2l57 2q18 0 38 -6t20 -29.5t-7 -36.5q-8 -37 -21 -50t-17 -18t-8.5 -12.5t-17.5 -24.5q-24 -31 -95 -52q-10 -4 -17 -4h-26l-33 -4q-4 0 -19.5 2t-31.5 4q-45 5 -61 8.5t-35 7.5t-35 7t-24.5 3t-20.5 2t-25.5 5.5 t-28.5 6.5q-24 5 -52.5 5t-37 -3t-17.5 -14q-20 -26 -56 -26l-43 2l-37 -2q-25 0 -38.5 13t-13.5 36zM547 585.5q0 -50.5 29.5 -78.5t50 -35t30 -8t31 -9t35.5 -9l37 5q54 8 77 20t41 29q40 41 40 82q0 7 -11.5 37t-17.5 37.5t-18.5 14.5t-40.5 25q-45 27 -74 27l-41 -6 l-29 2h-13q-22 0 -61 -29l-24 -18q-41 -36 -41 -86.5z" />
<glyph unicode="&#xf6;" horiz-adv-x="1449" d="M23 560v18q0 65 6 87.5t9 35t7 23.5t6 24.5t6 23.5l13 31q4 10 7 19t9 22.5t18 27.5q17 17 34.5 47.5t25.5 42t50 51t68.5 58t40 25t28 12.5t26.5 12t27.5 13t30 13.5t25.5 11.5t22.5 7t36 7t36.5 7.5t34.5 5.5t34 4t35 5t55.5 4h46q12 0 37 -1t39 -5l86 -21 q98 -16 112.5 -22t53.5 -25q88 -44 151 -118q2 -2 21.5 -23.5t31.5 -32.5q42 -41 54 -72.5t20 -50.5t19.5 -38t16.5 -36t6 -30.5t6 -31.5t7 -30q6 -36 6 -67q0 -75 -8 -102t-12 -41.5t-8 -27.5t-6 -20l-7 -30q-2 -6 -15 -33t-19 -40t-13.5 -23t-20.5 -29t-24 -34 q-31 -45 -41 -53.5t-21 -17t-24 -17.5q-38 -25 -48.5 -33.5t-26 -24t-26.5 -22.5q-46 -29 -68.5 -35.5t-35 -7.5t-22.5 -4t-20.5 -6t-20.5 -7l-82 -15h-65l-50 -2l-26 2q-8 2 -18 2h-23l-10 -2h-7l-71 6l-41 7q-12 4 -24.5 3t-30.5 3q-26 6 -65.5 27.5t-54 27.5t-32.5 14 t-31.5 16.5t-26.5 19.5q-33 26 -100 102q-14 10 -24 23t-15.5 17.5t-8.5 7.5t-9 12t-15 21q-27 41 -39 79t-15 48.5t-4 22.5t-4 29t-11 38t-11 37.5t-3 27.5zM254 1325l2 47v29q0 92 67 92l33 -2l35 2l47 -2q6 -2 26.5 -1t26.5 1l66 -2l49 2q85 0 96 -53v-86 q0 -56 -18.5 -74t-32.5 -21.5t-23 -3.5h-18q-8 -2 -25 -2l-47 4h-39l-65 7l-72 -9q-57 0 -82.5 12.5t-25.5 59.5zM547 585.5q0 -50.5 29.5 -78.5t50 -35t30 -8t31 -9t35.5 -9l37 5q54 8 77 20t41 29q40 41 40 82q0 7 -11.5 37t-17.5 37.5t-18.5 14.5t-40.5 25q-45 27 -74 27 l-41 -6l-29 2h-13q-22 0 -61 -29l-24 -18q-41 -36 -41 -86.5zM768 1315l4 55v45q0 47 32 68q16 10 40 10l96 -4h51l55 -2h19l39 4q68 0 90 -25q22 -19 22 -86v-45q0 -41 -6 -53q-18 -35 -70 -35h-4l-61 6h-37l-37 2l-55 -4h-78q-55 0 -68 7q-32 16 -32 57z" />
<glyph unicode="&#xf8;" horiz-adv-x="1449" d="M20 584q0 28 1.5 38.5t3.5 23.5q14 88 32.5 130.5t23.5 55t11 22.5q9 15 25 37t20 29q5 10 13 21q38 52 50.5 61.5t20.5 15.5l19 18q34 34 66 51t52.5 26t45.5 21q79 37 150 46q130 18 165 18h15q88 0 126.5 -11t63.5 -16.5t51 -7.5q56 -4 104 -37q14 10 50 51.5 t45.5 47.5t19.5 6t13 -3q12 -12 37 -31t38 -31q29 -24 29 -44q0 -18 -20.5 -37.5t-26.5 -27.5t-35 -41q10 -10 23 -26q20 -25 36.5 -39.5t26.5 -25.5q21 -23 33 -56l16 -44q34 -61 38.5 -86.5t8.5 -46t8 -39t5 -28.5t1 -31v-25q0 -66 -13 -102.5t-21 -68.5q-19 -77 -72 -146 q-18 -22 -29.5 -40.5t-20.5 -30t-17 -20.5q-12 -12 -35 -27t-31 -21.5t-15.5 -12.5t-28 -23.5t-28.5 -23.5q-61 -46 -114 -50q-13 -1 -23 -5t-21.5 -7t-20.5 -6t-17 -3l-66 -11h-18l-66 -2h-18l-58 4l-33 -2l-79 6q-10 2 -18.5 4.5t-20.5 4.5t-26.5 2t-32.5 4q-30 7 -68 33 q-17 11 -66 28l-31 -37q-10 -8 -17 -15l-14 -14q-18 -18 -25 -28q-28 -40 -55 -23q-7 5 -14 9q-24 15 -40 35q-37 31 -37 54.5t15 40.5t28.5 30.5t19.5 21.5t33 37q-6 4 -11 10t-12 12l-20 21q-12 16 -18 22l-19 19q-12 18 -19 28q-20 28 -28 42q-18 32 -25.5 67t-7.5 44 t-4 22.5t-9 30t-9 34.5q-9 40 -9 68zM510 598q0 -29 7 -51.5t14 -22.5q9 0 25 18q17 21 36 38q8 10 15 18t15.5 17t28 31t35.5 38l35 35q4 6 11 12t7 12q0 13 -33 13t-64.5 -9.5t-61.5 -28.5q-70 -47 -70 -120zM692 424.5q0 -4.5 4 -4.5l23 2h14q82 0 117 21.5t56 44.5 q42 49 42 92q0 19 -8 41q-4 4 -17.5 18t-19.5 14q-9 0 -16 -12l-15 -15q-14 -16 -30.5 -34.5t-32.5 -34.5l-18 -18q-10 -10 -28 -27.5t-33 -35.5q-38 -47 -38 -51.5z" />
<glyph unicode="&#xf9;" d="M55 480v98l8 90l-2 102v20l-2 60v20l2 93l-2 67q0 96 37 122q27 19 66 19l127 -8q11 0 41 4l39 2l55 -2l61 4q27 0 65 -16q46 -19 46 -86v-33q0 -14 -4 -35l-2 -45v-32l4 -72l-10 -104v-35q0 -86 15 -143.5t65 -57.5q20 0 39.5 21.5t22.5 47t5 56.5l2 33q4 20 4 35 l-6 131q0 34 10 92v41l-4 114q0 93 72 93l72 -9q15 0 45 4l47 3h16l53 -3h19l108 7q49 0 80 -35q27 -36 27 -68l-12 -84l-2 -33q0 -12 -2 -32l2 -35l-5 -60v-65l9 -162l-9 -135l3 -98l-7 -127q0 -54 5 -74q12 -42 12 -59v-11q0 -54 -31 -82q-24 -18 -63 -18h-54l-62 2h-22 l-123 -6h-34q-61 0 -80 39q-6 10 -8 20.5t-9 20.5q-8 20 -20 20q-5 0 -25 -22q-37 -39 -53 -47q-19 -10 -44 -17.5t-32.5 -9.5t-25.5 -8q-38 -12 -98 -12t-80 4l-119 24q-12 4 -23.5 11.5t-26.5 14.5t-29.5 14t-27.5 16q-28 19 -45.5 45t-28 41.5t-18.5 33.5q-25 55 -21 142 q1 27 -3.5 61.5t-6.5 51.5t-2 41zM308 1428.5q0 21.5 7 40t50 18.5l66 -4l55 4l47 -4l43 2l43 -6l63 6h31l37 -2l39 2q32 0 47.5 -20.5t20.5 -26.5q4 -14 18 -36t23 -37q22 -34 30 -47t8 -28q0 -30 -49 -30l-39 4l-32 -4q-71 0 -103 9t-57 19t-39 15.5t-26.5 6.5t-21.5 5 t-16.5 5t-15.5 5t-16.5 5t-16.5 4t-14 6t-15 6.5t-19.5 5.5t-19.5 6t-17.5 7t-15.5 5t-11 2t-8.5 1t-23 8t-35.5 16.5t-17 31z" />
<glyph unicode="&#xfa;" d="M55 480v98l8 90l-2 102v20l-2 60v20l2 93l-2 67q0 96 37 122q27 19 66 19l127 -8q11 0 41 4l39 2l55 -2l61 4q27 0 65 -16q46 -19 46 -86v-33q0 -14 -4 -35l-2 -45v-32l4 -72l-10 -104v-35q0 -86 15 -143.5t65 -57.5q20 0 39.5 21.5t22.5 47t5 56.5l2 33q4 20 4 35 l-6 131q0 34 10 92v41l-4 114q0 93 72 93l72 -9q15 0 45 4l47 3h16l53 -3h19l108 7q49 0 80 -35q27 -36 27 -68l-12 -84l-2 -33q0 -12 -2 -32l2 -35l-5 -60v-65l9 -162l-9 -135l3 -98l-7 -127q0 -54 5 -74q12 -42 12 -59v-11q0 -54 -31 -82q-24 -18 -63 -18h-54l-62 2h-22 l-123 -6h-34q-61 0 -80 39q-6 10 -8 20.5t-9 20.5q-8 20 -20 20q-5 0 -25 -22q-37 -39 -53 -47q-19 -10 -44 -17.5t-32.5 -9.5t-25.5 -8q-38 -12 -98 -12t-80 4l-119 24q-12 4 -23.5 11.5t-26.5 14.5t-29.5 14t-27.5 16q-28 19 -45.5 45t-28 41.5t-18.5 33.5q-25 55 -21 142 q1 27 -3.5 61.5t-6.5 51.5t-2 41zM383 1292q0 10 14 36t18 34t10.5 14t13.5 15.5t13 22.5q28 60 52 66.5t53 4.5h47l84 -4l125 6l78 -4l59 2q16 0 39.5 -6t23.5 -40q0 -41 -48 -57q-17 -6 -36 -11q-66 -17 -88 -27.5t-33.5 -13.5t-18.5 -4t-15 -4t-17.5 -5t-18.5 -5t-17 -3 q-12 0 -39 -15l-45 -15q-48 -16 -74.5 -17.5t-85.5 0.5l-55 -2q-39 0 -39 32z" />
<glyph unicode="&#xfb;" d="M55 480v98l8 90l-2 102v20l-2 60v20l2 93l-2 67q0 96 37 122q27 19 66 19l127 -8q11 0 41 4l39 2l55 -2l61 4q27 0 65 -16q46 -19 46 -86v-33q0 -14 -4 -35l-2 -45v-32l4 -72l-10 -104v-35q0 -86 15 -143.5t65 -57.5q20 0 39.5 21.5t22.5 47t5 56.5l2 33q4 20 4 35 l-6 131q0 34 10 92v41l-4 114q0 93 72 93l72 -9q15 0 45 4l47 3h16l53 -3h19l108 7q49 0 80 -35q27 -36 27 -68l-12 -84l-2 -33q0 -12 -2 -32l2 -35l-5 -60v-65l9 -162l-9 -135l3 -98l-7 -127q0 -54 5 -74q12 -42 12 -59v-11q0 -54 -31 -82q-24 -18 -63 -18h-54l-62 2h-22 l-123 -6h-34q-61 0 -80 39q-6 10 -8 20.5t-9 20.5q-8 20 -20 20q-5 0 -25 -22q-37 -39 -53 -47q-19 -10 -44 -17.5t-32.5 -9.5t-25.5 -8q-38 -12 -98 -12t-80 4l-119 24q-12 4 -23.5 11.5t-26.5 14.5t-29.5 14t-27.5 16q-28 19 -45.5 45t-28 41.5t-18.5 33.5q-25 55 -21 142 q1 27 -3.5 61.5t-6.5 51.5t-2 41zM248 1282q0 38 25 48q14 5 18 12.5t7 11.5t14.5 13t22.5 19.5t20.5 18.5t12.5 11q11 11 15 16q4 4 10.5 8t14.5 9t16 13t17.5 13.5t26 8.5t33.5 4q51 3 63 3l67 -4l27 2l69 -2l39 -2l56 4q49 0 62 -7q26 -14 40 -29t18.5 -20.5t11.5 -12.5 t16 -13t18.5 -14t15.5 -15.5t16 -13.5l19 -12q16 -19 25 -29q26 -29 26 -34q0 -36 -35 -36l-41 2l-47 2l-47 -2l-64 5q-19 4 -59 19q-48 18 -57 26q-10 2 -37 11t-44.5 9t-48 -13.5t-44 -17.5t-19.5 -5t-12 -4t-12.5 -6t-21 -12t-44.5 -10l-29 3l-32 -3l-39 3l-47 -3 q-62 0 -62 25z" />
<glyph unicode="&#xfc;" d="M55 480v98l8 90l-2 102v20l-2 60v20l2 93l-2 67q0 96 37 122q27 19 66 19l127 -8q11 0 41 4l39 2l55 -2l61 4q27 0 65 -16q46 -19 46 -86v-33q0 -14 -4 -35l-2 -45v-32l4 -72l-10 -104v-35q0 -86 15 -143.5t65 -57.5q20 0 39.5 21.5t22.5 47t5 56.5l2 33q4 20 4 35 l-6 131q0 34 10 92v41l-4 114q0 93 72 93l72 -9q15 0 45 4l47 3h16l53 -3h19l108 7q49 0 80 -35q27 -36 27 -68l-12 -84l-2 -33q0 -12 -2 -32l2 -35l-5 -60v-65l9 -162l-9 -135l3 -98l-7 -127q0 -54 5 -74q12 -42 12 -59v-11q0 -54 -31 -82q-24 -18 -63 -18h-54l-62 2h-22 l-123 -6h-34q-61 0 -80 39q-6 10 -8 20.5t-9 20.5q-8 20 -20 20q-5 0 -25 -22q-37 -39 -53 -47q-19 -10 -44 -17.5t-32.5 -9.5t-25.5 -8q-38 -12 -98 -12t-80 4l-119 24q-12 4 -23.5 11.5t-26.5 14.5t-29.5 14t-27.5 16q-28 19 -45.5 45t-28 41.5t-18.5 33.5q-25 55 -21 142 q1 27 -3.5 61.5t-6.5 51.5t-2 41zM185 1325l2 47v29q0 92 67 92l33 -2l35 2l47 -2q6 -2 26.5 -1t26.5 1l66 -2l49 2q85 0 96 -53v-86q0 -56 -18.5 -74t-32.5 -21.5t-23 -3.5h-18q-8 -2 -25 -2l-47 4h-39l-65 7l-72 -9q-57 0 -82.5 12.5t-25.5 59.5zM699 1315l4 55v45 q0 47 32 68q16 10 40 10l96 -4h51l55 -2h19l39 4q68 0 90 -25q22 -19 22 -86v-45q0 -41 -6 -53q-18 -35 -70 -35h-4l-61 6h-37l-37 2l-55 -4h-78q-55 0 -68 7q-32 16 -32 57z" />
<glyph unicode="&#xfd;" horiz-adv-x="1236" d="M8 1081.5q0 30.5 4 38.5t13.5 17.5t18.5 16.5t26 12q32 10 91.5 10t104.5 -9h35l131 7q58 0 80 -37q16 -23 28.5 -62t18.5 -58t7 -27q2 -20 15 -55t19 -61t10 -49.5t7.5 -41t5.5 -30.5t4 -28.5t7 -15.5t10 7t5 13t4 39q10 84 33 148q49 144 51 176t15 53q19 29 71 29h23 q20 0 37 -3l53 -6q73 0 154 11q85 0 113 -28q26 -26 26 -51q0 -31 -17 -75q-22 -62 -31 -101q-17 -74 -28.5 -111.5t-14.5 -48.5t-7.5 -23.5t-10.5 -28t-13 -35.5t-13.5 -38t-10.5 -33t-18 -47t-29.5 -68.5t-30 -70.5t-20.5 -54.5t-12 -48t-13.5 -47t-10.5 -31t-9 -29 t-12 -42t-13.5 -44.5t-9.5 -27.5t-11 -25.5t-14.5 -36t-11.5 -26t-14 -18.5t-18.5 -22.5t-20.5 -24.5t-31 -32.5q-89 -80 -200 -75q-21 1 -54 1h-104l-84 -4l-80 2q-29 0 -51.5 4t-46.5 24q-37 29 -37 87l2 39l2 45l-4 112q0 58 18 103q25 45 64 45l84 -19q31 0 31 31 q0 39 -30 88q-35 60 -50.5 111t-30 80t-25 49t-17.5 34.5t-15.5 34t-17.5 43l-18 47t-14.5 36.5t-8.5 24.5t-11 34t-25.5 55.5t-28.5 58q-24 53 -24 83.5zM340 1292q0 10 14 36t18 34t10.5 14t13.5 15.5t13 22.5q28 60 52 66.5t53 4.5h47l84 -4l125 6l78 -4l59 2 q16 0 39.5 -6t23.5 -40q0 -41 -48 -57q-17 -6 -36 -11q-66 -17 -88 -27.5t-33.5 -13.5t-18.5 -4t-15 -4t-17.5 -5t-18.5 -5t-17 -3q-12 0 -39 -15l-45 -15q-48 -16 -74.5 -17.5t-85.5 0.5l-55 -2q-39 0 -39 32z" />
<glyph unicode="&#xfe;" horiz-adv-x="1492" d="M55 1362q0 47 8.5 73.5t51.5 26.5l123 -14l114 8h16l51 -2h17l49 2q53 0 64.5 -18.5t11.5 -36.5l-6 -76l4 -65l-2 -66q0 -92 18 -92q6 0 14.5 6t13.5 9t9 7t20.5 9.5t35 12.5t35 13t26.5 7t21 5q38 15 82 15t72 -4t58 -10q74 -17 82 -17q26 -13 37 -15q21 -2 35 -14 q27 -12 51 -28l31 -19q37 -18 57.5 -42.5t25.5 -29.5t22.5 -21.5t21.5 -21.5t8 -11.5t8 -11.5t10.5 -13t7.5 -12.5t4 -9.5t6 -11t7 -12t15.5 -32t17.5 -38t15 -27q18 -35 21 -58t7 -52q6 -44 6 -80v-47q0 -23 -13 -78q-33 -139 -67 -185q-10 -12 -16 -23t-14 -32 q-63 -112 -170 -163q-27 -14 -41.5 -23.5t-21.5 -12.5t-19.5 -8.5t-28.5 -11.5q-24 -9 -51 -16q-34 -10 -109 -10l-88 -4q-124 0 -194 32q-43 19 -53.5 8.5t-10.5 -16.5v-15l4 -52l4 -33q0 -51 -24.5 -67.5t-67.5 -16.5h-67l-52 4l-88 -4l-67 4h-19l-55 -2h-18 q-25 0 -38.5 14.5t-13.5 43.5v41l9 79l-7 104l2 64l3 66l-3 72l-2 75l2 77l3 81l-5 75v18l2 55v61l3 47l-3 39v144q0 19 -2 38l-4 78l6 153v21zM575 596q0 -33 10.5 -67.5t59.5 -51.5q16 -6 35.5 -6t33 -2t40 -6t44.5 -4q29 0 59.5 23t48.5 45t18 59t-14.5 59.5t-33.5 35.5 q-39 28 -53 28l-63 4l-51 4q-70 0 -115 -63q-19 -25 -19 -58z" />
<glyph unicode="&#xff;" horiz-adv-x="1236" d="M8 1081.5q0 30.5 4 38.5t13.5 17.5t18.5 16.5t26 12q32 10 91.5 10t104.5 -9h35l131 7q58 0 80 -37q16 -23 28.5 -62t18.5 -58t7 -27q2 -20 15 -55t19 -61t10 -49.5t7.5 -41t5.5 -30.5t4 -28.5t7 -15.5t10 7t5 13t4 39q10 84 33 148q49 144 51 176t15 53q19 29 71 29h23 q20 0 37 -3l53 -6q73 0 154 11q85 0 113 -28q26 -26 26 -51q0 -31 -17 -75q-22 -62 -31 -101q-17 -74 -28.5 -111.5t-14.5 -48.5t-7.5 -23.5t-10.5 -28t-13 -35.5t-13.5 -38t-10.5 -33t-18 -47t-29.5 -68.5t-30 -70.5t-20.5 -54.5t-12 -48t-13.5 -47t-10.5 -31t-9 -29 t-12 -42t-13.5 -44.5t-9.5 -27.5t-11 -25.5t-14.5 -36t-11.5 -26t-14 -18.5t-18.5 -22.5t-20.5 -24.5t-31 -32.5q-89 -80 -200 -75q-21 1 -54 1h-104l-84 -4l-80 2q-29 0 -51.5 4t-46.5 24q-37 29 -37 87l2 39l2 45l-4 112q0 58 18 103q25 45 64 45l84 -19q31 0 31 31 q0 39 -30 88q-35 60 -50.5 111t-30 80t-25 49t-17.5 34.5t-15.5 34t-17.5 43l-18 47t-14.5 36.5t-8.5 24.5t-11 34t-25.5 55.5t-28.5 58q-24 53 -24 83.5zM142 1325l2 47v29q0 92 67 92l33 -2l35 2l47 -2q6 -2 26.5 -1t26.5 1l66 -2l49 2q85 0 96 -53v-86q0 -56 -18.5 -74 t-32.5 -21.5t-23 -3.5h-18q-8 -2 -25 -2l-47 4h-39l-65 7l-72 -9q-57 0 -82.5 12.5t-25.5 59.5zM656 1315l4 55v45q0 47 32 68q16 10 40 10l96 -4h51l55 -2h19l39 4q68 0 90 -25q22 -19 22 -86v-45q0 -41 -6 -53q-18 -35 -70 -35h-4l-61 6h-37l-37 2l-55 -4h-78q-55 0 -68 7 q-32 16 -32 57z" />
<glyph unicode="&#x152;" horiz-adv-x="2091" d="M23 686q0 60 7 92.5t10 55t5 50.5q5 63 27 111l18 37q9 27 19 48q15 33 35 66t25 41.5t11 15.5q13 16 32 31t50 46t59.5 55.5t52.5 40.5q27 16 87 37.5t77 28t32 10.5q25 6 65.5 10t58 6t39.5 2l47 3l47 2l80 -5h27l131 -12q30 -6 60.5 -9t140.5 -3l57 2q18 2 35 2h22 l76 -2q50 -4 78 -4h51l12 -2h11l22 2q21 2 47.5 3t51 3t30.5 2l45 -4l47 4q31 0 39 -4h31q43 -4 60.5 -42t17.5 -79l-4 -76l10 -118q0 -43 -12 -74t-33 -36t-33 -5l-59 2l-68 -2l-106 6l-66 -4l-84 2q-43 0 -54 -14.5t-11 -33.5t7 -33.5t44 -22.5l38 -3h42l86 9l61 -2l123 6 q80 0 92 -31q17 -34 17 -86l-2 -51l8 -113q0 -65 -23 -76q-14 -14 -53 -14h-33l-49 -2q-23 -2 -43 -2h-41q-46 -4 -90 -4l-86 4q-80 0 -80 -47q0 -62 94 -62h25l112 11h54l63 2l39 -2l51 4q50 0 60 -13l15 -15q36 -36 36 -105l-2 -70l6 -102q0 -2 -1 -15.5t-2 -32.5 q-2 -44 -13 -65q-20 -41 -86 -41l-133 8l-177 -12l-155 8l-176 -6l-148 4h-21q-25 0 -72 -7q-123 -18 -157 -18h-60l-99 7h-41q-48 0 -115.5 13t-78.5 17t-19.5 7.5t-20.5 7.5t-25 8q-34 10 -60 29q-57 42 -79.5 55.5t-41.5 32t-34.5 35t-25.5 29.5l-20 26q-22 27 -47 51 q-49 49 -68 113q-14 37 -21.5 66.5t-16.5 63t-9 46.5v45zM563 730q0 -65 18.5 -88t28.5 -35.5t15.5 -24t11.5 -17.5t17.5 -16t29.5 -21q49 -28 80 -28l57 -2q23 0 35 6q16 2 30.5 1t31.5 3q48 11 82 54q18 24 27 30t20 18t27 49t16 61q0 63 -50 152q-22 37 -88 58 q-8 4 -15 5t-15 5t-19.5 8t-24.5 8q-36 11 -54 11q-27 0 -79 -19q-10 -4 -17 -11t-28.5 -15.5t-43.5 -17.5q-31 -13 -55 -64t-31 -69.5t-7 -40.5z" />
<glyph unicode="&#x153;" horiz-adv-x="2174" d="M27 559v23q0 83 12 118t13 46q1 14 8.5 29.5t11.5 25.5l12 37q10 18 22.5 34.5t23.5 31.5t19.5 29.5t16.5 26t23.5 28t34.5 34.5q59 54 101 75t69 33q47 22 81 33l68 17l23 3q22 3 48.5 6t50 6t27.5 3h69.5t59.5 -3t30.5 -7t36.5 -8q44 -9 64.5 -16t45 -21.5t58.5 -30.5 q47 -22 60 -22q12 0 29.5 11t31 17t27 11.5t26.5 10.5t19 8t13.5 6t19.5 9t42 12.5t58 11.5q63 11 80 11l68 2q23 0 53.5 -3t48 -4t24.5 -2t30.5 -6t51.5 -13q75 -19 103 -33q27 -18 47 -29.5t35.5 -21t28.5 -17.5q27 -16 61.5 -56t47 -58.5t22.5 -34.5q24 -40 25 -44.5 t5.5 -20t8.5 -34t8 -35t6 -26.5t2 -20v-42q12 -60 12 -93.5t-8 -60t-20 -40.5q-23 -25 -46.5 -28t-39.5 -3h-119l-100 -6h-59l-90 6h-13l-74 -2l-115 4h-8q-35 -2 -44 -19.5t-9 -25.5t11 -18.5t26 -19.5q20 -13 53 -21l125 -4q14 -2 27.5 -5.5t23.5 -3.5h141l63 -2h21 q19 0 55.5 10.5t53 10.5t29 -2t22.5 -9q27 -17 27 -55l-8 -89v-46l8 -78q0 -53 -22.5 -68.5t-45.5 -20.5t-44 -10t-52 -8q-72 -7 -176 -7l-105 -4q-80 0 -102.5 6t-32.5 8t-21.5 2t-24.5 2q-26 4 -46 9t-31.5 6t-25.5 4q-72 15 -92.5 23.5t-31.5 16t-29 14.5q-54 21 -75 21 q-12 0 -44 -19t-47 -28.5t-25 -15.5q-18 -12 -45 -21q-55 -20 -88 -24t-53 -6q-50 -7 -58 -7h-14q-9 0 -19 2h-53l-10 -2h-13l-77 7q-41 10 -50.5 9t-20.5 1q-47 9 -73 25t-39.5 22l-27 12l-31.5 14q-42 18 -78 55l-52 56q-18 19 -33 34l-38 38q-2 2 -10 14t-19 28 q-27 40 -31.5 56t-8.5 30q-9 30 -11 39t-3 22.5t-5 29.5t-10 34.5t-9 33t-3 26.5zM547 577.5q0 -26.5 19.5 -54t40.5 -39.5q23 -12 69 -23q39 -14 47 -15l54 9q11 0 38 10q62 23 90 75q10 19 10 34q0 79 -55 103q-16 7 -28.5 17.5t-22.5 15.5q-26 13 -57 13l-37 -4l-31 2 q-32 0 -64 -23q-55 -42 -64 -68t-9 -52.5zM1380 797q0 -39 66 -39l131 6l51 -4q29 0 42 14t13 25q0 32 -47 49q-21 8 -65 8l-33 2q-21 0 -29 -4h-45q-82 0 -84 -57z" />
<glyph unicode="&#x178;" horiz-adv-x="1536" d="M0 1401q0 23 19.5 40t41.5 17l86 -10l39 2q12 2 24 2h17l37 -2q20 -4 32.5 -4t16.5 2h56q27 0 45 6h65q47 0 67.5 -15.5t33 -40.5t15.5 -46t9 -36t11.5 -25.5t14.5 -28.5q41 -79 48.5 -95t14.5 -33.5t15.5 -32.5t18.5 -29.5t20.5 -14.5t23.5 13t27 32q30 37 45 65.5 t29.5 50t23.5 34t17 23.5q18 24 28.5 47t16.5 36q21 49 43 63q47 31 95 31h11q7 0 17 -2l27 -2l35 2q10 2 20 2h15l159 -10h20l70 12l37 -6q31 -12 31 -55.5t-11 -63.5t-18.5 -31.5t-12.5 -22.5t-9 -22.5t-9 -21.5t-14 -19q-27 -27 -45 -63l-30 -68q-6 -14 -13 -27l-17 -27 q-33 -55 -60 -92.5t-40 -58t-30 -48t-31 -48t-28.5 -40t-25.5 -35.5t-15.5 -22.5t-8.5 -19.5t-18.5 -39t-19.5 -36q-33 -66 -37.5 -107t-5.5 -63.5t-2 -41t-1 -26.5v-24l-2 -69v-24l2 -38l15 -93q0 -50 -35 -90q-17 -18 -66 -18l-102 8l-96 -4l-90 6l-107 -4q-23 0 -40.5 4 t-38.5 29.5t-21 40.5q0 27 10 72t10 92v124q0 63 -9 92t-18 52q-28 80 -43.5 104.5t-24.5 44t-18.5 41t-20.5 40.5t-20.5 32.5t-18.5 28t-15 28t-16.5 32t-26 41t-23.5 34.5t-21.5 39.5t-30.5 61.5q-34 68 -50 103q-43 95 -61 126q-45 73 -51.5 94.5t-6.5 44.5zM289 1618 l2 47v46q0 21 13 45t48 28l37 -2l31 2q4 2 24.5 0t26.5 -2l55 2l64 -2l53 2q53 0 71.5 -17.5t20.5 -32t2 -21.5v-77q0 -55 -21.5 -70.5t-28.5 -17.5q-14 -4 -69 -4q-30 0 -38 4h-39l-72 4h-19l-40 -6h-11q-47 0 -78.5 9.5t-31.5 62.5zM805 1604l2 43v67q0 74 80 74l51 -4h55 l51 -2l31 2l27 -2l37 4q60 0 90 -23q22 -22 22 -88l2 -45q0 -37 -7 -50t-20.5 -25.5t-39.5 -12.5h-36l-42 6q-4 2 -17.5 1t-17.5 -1l-33 2l-57 -6l-35 2l-55 -2q-58 0 -73 18.5t-15 41.5z" />
<glyph unicode="&#x2c6;" horiz-adv-x="425" d="M-207 1282q0 38 25 48q14 5 18 12.5t7 11.5t14.5 13t22.5 19.5t20.5 18.5t12.5 11q11 11 15 16q4 4 10.5 8t14.5 9t16 13t17.5 13.5t26 8.5t33.5 4q51 3 63 3l67 -4l27 2l69 -2l39 -2l56 4q49 0 62 -7q26 -14 40 -29t18.5 -20.5t11.5 -12.5t16 -13t18.5 -14t15.5 -15.5 t16 -13.5l19 -12q16 -19 25 -29q26 -29 26 -34q0 -36 -35 -36l-41 2l-47 2l-47 -2l-64 5q-19 4 -59 19q-48 18 -57 26q-10 2 -37 11t-44.5 9t-48 -13.5t-44 -17.5t-19.5 -5t-12 -4t-12.5 -6t-21 -12t-44.5 -10l-29 3l-32 -3l-39 3l-47 -3q-62 0 -62 25z" />
<glyph unicode="&#x2dc;" horiz-adv-x="425" d="M-195 1317q0 33 23.5 72t32 47t27.5 22q26 19 42.5 25t24.5 8t19 6t24 4h29q78 0 106 -14q10 -2 21 -2l80 -12l53 -11l88 -10q31 0 40 9t13 12.5t11 10.5q13 13 44 13l25 -2l57 2q18 0 38 -6t20 -29.5t-7 -36.5q-8 -37 -21 -50t-17 -18t-8.5 -12.5t-17.5 -24.5 q-24 -31 -95 -52q-10 -4 -17 -4h-26l-33 -4q-4 0 -19.5 2t-31.5 4q-45 5 -61 8.5t-35 7.5t-35 7t-24.5 3t-20.5 2t-25.5 5.5t-28.5 6.5q-24 5 -52.5 5t-37 -3t-17.5 -14q-20 -26 -56 -26l-43 2l-37 -2q-25 0 -38.5 13t-13.5 36z" />
<glyph unicode="&#x2000;" horiz-adv-x="929" />
<glyph unicode="&#x2001;" horiz-adv-x="1858" />
<glyph unicode="&#x2002;" horiz-adv-x="929" />
<glyph unicode="&#x2003;" horiz-adv-x="1858" />
<glyph unicode="&#x2004;" horiz-adv-x="619" />
<glyph unicode="&#x2005;" horiz-adv-x="464" />
<glyph unicode="&#x2006;" horiz-adv-x="309" />
<glyph unicode="&#x2007;" horiz-adv-x="309" />
<glyph unicode="&#x2008;" horiz-adv-x="232" />
<glyph unicode="&#x2009;" horiz-adv-x="371" />
<glyph unicode="&#x200a;" horiz-adv-x="103" />
<glyph unicode="&#x2010;" horiz-adv-x="1067" d="M61 606q0 195 125 195l133 -6l97 4h24l78 -2h119l86 6l70 -2l53 2q88 0 124 -27.5t36 -95.5l-2 -54l-3 -53l13 -194q0 -56 -18 -79q-38 -48 -126 -48l-127 6l-163 -8l-140 6h-88l-78 2l-75 -4q-78 0 -103.5 39t-27.5 104v74z" />
<glyph unicode="&#x2011;" horiz-adv-x="1067" d="M61 606q0 195 125 195l133 -6l97 4h24l78 -2h119l86 6l70 -2l53 2q88 0 124 -27.5t36 -95.5l-2 -54l-3 -53l13 -194q0 -56 -18 -79q-38 -48 -126 -48l-127 6l-163 -8l-140 6h-88l-78 2l-75 -4q-78 0 -103.5 39t-27.5 104v74z" />
<glyph unicode="&#x2012;" horiz-adv-x="1067" d="M61 606q0 195 125 195l133 -6l97 4h24l78 -2h119l86 6l70 -2l53 2q88 0 124 -27.5t36 -95.5l-2 -54l-3 -53l13 -194q0 -56 -18 -79q-38 -48 -126 -48l-127 6l-163 -8l-140 6h-88l-78 2l-75 -4q-78 0 -103.5 39t-27.5 104v74z" />
<glyph unicode="&#x2013;" d="M49 659q0 33 16.5 55.5t29.5 28.5q32 15 65 15l45 -4h61l35 2l45 -2h51l54 -2l63 4l76 2l41 -4h35l45 2l57 2l70 -4l62 2l71 2q31 0 43 -4h35l129 6q42 0 69 -19q27 -24 27 -82v-9q0 -5 -2 -15l-4 -69v-19q-4 -8 -4 -38t4 -54l2 -78q0 -61 -24.5 -73.5t-61 -12.5t-80.5 6 h-70l-51 2h-18l-97 -4l-67 2h-164l-61 -2h-21l-92 2l-64 -2h-22l-31 -2l-39 2l-31 -2l-26 2h-94q-59 0 -84 31q-15 17 -15 49v71q6 18 6 64l-6 104q-8 16 -8 45z" />
<glyph unicode="&#x2014;" horiz-adv-x="1449" d="M49 661q0 27 13.5 47.5t28.5 30t31 13.5q23 6 40 6l41 -4l37 2l32 -2h108t66 -2l43 2h43l56 2h20l49 -2l54 2l45 -2l35 2l51 2h53l76 -2l119 4l67 -4h38l93 8q76 0 96 -39q11 -22 11 -57l-2 -33q-4 -20 -3 -40t-1 -36q-5 -40 -5 -53l5 -55q4 -36 4 -70.5t-8.5 -52 t-20.5 -25.5q-15 -10 -53 -10l-148 6h-114l-74 -2l-72 2l-123 -8q-20 2 -32 2l-37 2l-49 4l-52 -2l-63 4q-35 0 -53 -6h-41l-50 -2h-24l-35 -2l-39 2h-115q-54 0 -84 8q-35 14 -43 31.5t-8 45.5v36l2 40v11q6 12 6 29q0 70 -4 94q-10 60 -10 73z" />
<glyph unicode="&#x2018;" horiz-adv-x="641" d="M57 1157q0 58 8.5 80.5t15.5 39.5t11 29q8 22 17 36q18 26 24 39q19 39 35 53q28 16 80 16l65 -8l31 2q10 2 20 2h13q63 0 63 -39q0 -4 -4 -18.5t-8 -30.5q-11 -40 -22 -60t-15 -30v-11q0 -39 45 -45h49q93 0 93 -112l-3 -62l-2 -63l7 -135q0 -122 -66 -134 q-18 -4 -35 -4l-43 3l-45 2l-46 -2l-50 -3l-62 5l-36 -2q-29 0 -53.5 4t-51.5 26q-23 23 -27 43.5t-4 55.5l2 80l3 81z" />
<glyph unicode="&#x2019;" horiz-adv-x="641" d="M70 1278v43q0 43 21.5 86t74.5 43q23 0 35 -2t33 -2l86 -2h38t33 2h45q54 0 87.5 -18t39.5 -48t6 -92l-2 -74v-158l2 -50v-19q0 -37 -13 -77t-20.5 -53t-10.5 -21t-10 -17.5t-12 -18.5t-9.5 -16.5t-11.5 -19.5q-20 -35 -76 -35l-72 6l-55 -2q-27 0 -35 4q-19 19 -19 28 q0 40 23.5 88t23.5 58t-14 31t-43 21l-33 -2q-58 0 -78 18q-23 14 -26.5 45t-3.5 68l2 82v22z" />
<glyph unicode="&#x201a;" horiz-adv-x="641" d="M57 133l9 109l-9 129q0 84 26 111.5t75 27.5l92 -4l94 4l64 -2q6 -2 26.5 -1t28.5 1q53 0 79.5 -26.5t31 -45t4.5 -69.5l-3 -79l-2 -79l9 -156q0 -51 -7.5 -71.5t-12.5 -34t-12 -28.5t-12.5 -28.5t-8.5 -18.5t-9 -12t-11 -18q-23 -48 -44 -63t-78 -15l-70 9l-30 -6h-29 l-25 6q-16 4 -25 8t-9 26l2 27q12 24 13 34q3 27 16.5 48t15.5 33v6q0 22 -14.5 32.5t-30.5 12.5h-49q-45 0 -64.5 22.5t-23.5 31.5q-7 19 -7 79z" />
<glyph unicode="&#x201c;" horiz-adv-x="1236" d="M61 1171v21q0 12 3.5 23t6.5 21.5t12 32t12 31t9 22.5q7 15 29 52t46 55.5t91 18.5l54 -2l45 4q39 0 59 -12q18 -14 18 -30.5t-6 -31t-10 -25.5t-7 -23.5t-8 -23.5t-11 -20q-3 -7 -9 -27q0 -29 29 -40q10 -5 55 -5t64.5 -13t28.5 -33q12 -23 12 -70l-6 -121l6 -129 q0 -86 -22.5 -115t-76.5 -29h-18l-53 3h-36l-58 -3h-19q-45 0 -72 5l-61 -2q-34 0 -60 21t-35.5 37.5t-9.5 61.5l7 172zM657 1132v33q0 51 11.5 79t18.5 44q18 43 27 56.5l13 19.5t13.5 26.5t19.5 32.5t28.5 18.5t20.5 6.5l55 -6l37 2l23 2l39 -2l34 2q16 0 27.5 -9.5 t13.5 -15.5v-4l2 -10q0 -8 2 -14l-10 -36q0 -9 -18 -50q-23 -38 -23 -52q0 -27 29 -41q8 -4 18 -4h47q61 0 83 -46q12 -23 12 -77l-6 -116l6 -127q0 -102 -44 -132q-18 -12 -55 -12l-45 2l-47 3l-43 -3l-45 -2l-74 5l-51 -3q-41 0 -74 21q-31 23 -37 47.5t-6 58.5l7 166v23 q0 12 -2 24z" />
<glyph unicode="&#x201d;" horiz-adv-x="1236" d="M61 1071l7 109l-7 131q0 128 69 135q20 2 40 2l86 -2l86 4l74 -4h71q50 0 81 -49q14 -21 14 -49v-46q0 -22 -4 -88l-3 -38l9 -189v-21q0 -38 -16.5 -76t-21.5 -52.5t-14 -26.5l-43 -68q-31 -41 -79 -41l-43 5h-32q-22 0 -32 -2l-47 -5q-23 0 -44.5 7.5t-21.5 42.5v8 q60 120 60 146t-31 31t-60.5 5t-50 10.5t-30.5 27.5q-17 29 -17 93zM659 1053l9 131l-9 129q0 115 61 132q17 5 40 5l88 -4l84 4l78 -4l53 2q47 0 69.5 -18.5t26.5 -22.5q20 -27 21 -86l-2 -95l-2 -77l6 -100v-74q0 -44 -6.5 -60t-11.5 -29.5t-12 -28.5t-12 -28.5t-8 -17.5 t-8.5 -10t-9.5 -15q-4 -8 -9 -16t-11 -19t-25.5 -28.5t-79.5 -17.5l-51 4l-61 -2q-31 0 -53.5 5t-22.5 28q0 39 8 55l10 20q2 6 3 13.5t4 12.5t5.5 8t3.5 6t8 16.5t7 23.5q0 38 -45 44q-8 1 -48 1t-69 21.5t-29 91.5z" />
<glyph unicode="&#x201e;" horiz-adv-x="1236" d="M59 381q0 59 14.5 85t25.5 33q20 13 61 13l28 -2q10 -2 26 -2h36l98 4l68 -4h57q29 0 42 -6t28.5 -19.5t24.5 -28.5q12 -17 12 -75l-2 -51v-19l-5 -67q0 -35 9 -127l2 -54q0 -61 -11 -90l-18 -43q-4 -6 -5 -12q-4 -23 -20 -47t-22 -34.5t-10 -18.5q-23 -49 -66 -49 q-10 0 -29.5 1t-38.5 1l-90 -2h-24q-51 0 -51 49q0 11 8 34t12 35.5t8 20.5t11.5 19.5t9.5 25.5v4q0 50 -70 46q-20 -1 -24 -1q-45 0 -64.5 23.5t-23.5 35.5q-5 15 -5 74l7 117zM657 377q0 66 19 94q20 41 82 41l84 -6l96 6l72 -4l53 2q54 0 90 -39q25 -28 25 -84l-4 -168 l8 -168q0 -61 -12.5 -87.5t-20.5 -45t-15.5 -36t-13.5 -26.5q-8 -12 -22 -37q-30 -55 -131 -55l-47 3l-46 -3q-77 0 -77 52q0 9 13 46.5t16 44.5t11.5 18.5t10.5 25.5v4q0 38 -47 45h-49q-43 0 -63.5 22.5t-23.5 33.5q-6 22 -6 77l7 115z" />
<glyph unicode="&#x2022;" horiz-adv-x="681" d="M25 721q0 130 92 224q93 95 225 95q65 0 121.5 -21.5t99.5 -62.5q96 -92 96 -235q0 -135 -86 -225q-89 -93 -225 -93q-145 0 -237 101q-86 94 -86 217z" />
<glyph unicode="&#x2026;" horiz-adv-x="2048" d="M82 109l4 106l-4 199q0 76 76 105q18 7 32 7l86 -8h35l60 4l51 -4l47 4q43 0 84 -18.5t49 -81.5v-54l-2 -57l-4 -65l2 -39v-33l4 -51q0 -59 -27 -90q-27 -35 -96 -35l-182 8h-15q-12 0 -24 -2l-39 -2q-75 0 -84 6q-53 18 -53 101zM764 109l4 106l-4 199q0 76 76 105 q18 7 32 7l86 -8h35l60 4l51 -4l47 4q43 0 84 -18.5t49 -81.5v-54l-2 -57l-4 -65l2 -39v-33l4 -51q0 -59 -27 -90q-27 -35 -96 -35l-182 8h-15q-12 0 -24 -2l-39 -2q-75 0 -84 6q-53 18 -53 101zM1446 109l4 106l-4 199q0 76 76 105q18 7 32 7l86 -8h35l60 4l51 -4l47 4 q43 0 84 -18.5t49 -81.5v-54l-2 -57l-4 -65l2 -39v-33l4 -51q0 -59 -27 -90q-27 -35 -96 -35l-182 8h-15q-12 0 -24 -2l-39 -2q-75 0 -84 6q-53 18 -53 101z" />
<glyph unicode="&#x202f;" horiz-adv-x="371" />
<glyph unicode="&#x2039;" horiz-adv-x="425" d="M61 682q0 16 7.5 29.5t28 35t39.5 43.5q33 41 65 64.5t45.5 37t33.5 30.5q28 24 38.5 24t26 -11t15.5 -40l-4 -64l4 -75l-4 -82l4 -58q0 -35 -13 -47t-57 -36.5t-44 -40.5q0 -23 53 -41q45 -20 53 -36t6 -35t-1 -47t1 -36l-2 -74l2 -41q2 -12 4.5 -23.5t2.5 -23.5 q0 -57 -39 -57q-16 0 -41 19t-46.5 33.5t-30.5 23.5q-63 67 -86.5 86t-39.5 39t-16 55l2 55v43q0 27 -2 43l-3 47l3 51v68q-5 25 -5 41z" />
<glyph unicode="&#x203a;" horiz-adv-x="425" d="M66 242l4 92l-4 80q0 35 15 48t41 26t40 21.5t14 18.5q0 24 -63 52q-16 8 -31.5 19t-15.5 34l2 49v98l-2 84v29q0 31 12 42t19 11q16 0 71 -39q10 -10 18.5 -17t21.5 -21.5t26.5 -27t30 -27.5t34.5 -32.5t27.5 -24.5t17.5 -21q14 -23 14 -51v-41l-2 -64v-38l2 -50v-19 l4 -98q0 -39 -9 -53.5t-31 -36.5q-23 -23 -51.5 -54.5t-43 -47t-21.5 -21.5q-20 -17 -37 -39q-35 -45 -66.5 -45t-34.5 33v51z" />
<glyph unicode="&#x205f;" horiz-adv-x="464" />
<glyph unicode="&#x2122;" horiz-adv-x="1409" d="M2 1309v137h586v-137h-205v-543h-172v543h-209zM643 766v680h217l156 -492l145 492h219v-680h-168l9 362q0 64 12 140q-10 -43 -15.5 -60.5t-13.5 -50.5l-114 -391h-154l-121 393q-6 17 -12 42.5t-10.5 40.5t-6.5 22q9 -57 15 -136l8 -362h-166z" />
<glyph unicode="&#xe000;" horiz-adv-x="1167" d="M0 0v1167h1167v-1167h-1167z" />
<glyph unicode="&#xfb01;" horiz-adv-x="1449" d="M49 182l8 142l-4 104l4 70v15l2 65v58l-4 124q-2 18 -2 23v12l4 77l-2 70q-6 61 -6 110q0 103 13.5 150t28.5 69.5t43 54.5q73 86 169 110q12 2 23.5 3t23.5 4q32 8 49.5 11.5t30.5 3.5h29l84 -2h57q112 0 176 -36q27 -16 33 -47.5t6 -67.5v-39l2 -39q0 -112 -48 -139 q-15 -9 -33 -9q-32 0 -46 3q-65 14 -69 14h-7q-15 0 -25.5 -11.5t-10.5 -29.5q0 -54 61 -54l61 5q71 0 84 -45l4 -93v-22l9 -105q0 -79 -23 -112q-22 -37 -80 -37l-53 4q-49 0 -58 -18q-12 -23 -12 -74l4 -74l-2 -59l5 -70l-7 -73v-92q0 -11 2 -21l5 -23q2 -12 2 -20 t-2.5 -22.5t-12.5 -25.5q-24 -28 -65 -28t-99 4l-73 2l-172 -10q-60 0 -76 24q-25 25 -28 71t-3 95zM864 137l6 117q-6 66 -6 94v113l8 184l-2 49q-6 44 -6 52v22l2 58v48l2 86v91l-4 43q0 77 113 77h9l30 -4h9q5 0 11 2h19l71 -6l80 4l78 7q66 0 84 -38q16 -32 16 -132 l-6 -164l6 -150v-119l-6 -110l4 -68v-98l-2 -59l9 -115q0 -78 -55 -107q-28 -16 -68 -16l-119 8l-154 -8q-59 0 -94 23.5t-35 115.5zM874 1380q0 35 16.5 50.5t29 16.5t47.5 1l61 2l49 -2q32 -4 49 -4q38 0 52 4h36l58 4q54 0 73 -11t25 -21q10 -15 10 -68l2 -69v-17 q0 -31 -20.5 -45.5t-48.5 -14.5l-62 4l-84 -2h-71l-58 2l-86 -4q-41 0 -57 14.5t-18 37.5q-3 36 -3 122z" />
<glyph unicode="&#xfb02;" horiz-adv-x="1449" d="M49 182l8 142l-6 104l6 70v15l2 65v58l-4 124q-2 18 -2 23v12l4 77l-8 195q0 93 12 137.5t27.5 67t43 54.5t74 64.5t77 40t43 8.5t24.5 4q32 8 49.5 11.5t30.5 3.5h45l51 -2h74q112 0 176 -36q27 -16 33 -47.5t6 -67.5v-39l2 -39q0 -28 -5 -50t-9 -38.5t-13 -29.5 q-19 -30 -63 -30q-23 0 -37 3q-65 14 -69 14q-43 0 -43 -41q0 -23 11 -38.5t50 -15.5l61 5q26 0 47 -8.5t26 -15.5t8 -17q5 -17 5 -61l2 -58l9 -105q0 -79 -23 -112q-22 -37 -80 -37l-53 4q-49 0 -58 -18q-12 -23 -12 -74l4 -74l-2 -59l5 -70l-5 -47q-2 -10 -2 -26v-92 q0 -11 2 -21l5 -23q2 -12 2 -16q0 -80 -99 -80q-22 0 -80 4l-73 2l-172 -10q-54 0 -69 16t-21.5 24.5t-9.5 25.5q-7 41 -7 124zM858 133l4 121q2 23 4 47.5t4 46.5l2 103l-2 45l4 57l-6 119l9 127l-7 137v30l2 94v32l5 73l-3 29l-10 127q0 35 26 88q20 39 84 36q21 -1 30 -1 l34 2l29 -2l47 2l96 -6l101 6q27 0 41 -6q45 -55 45 -94l-4 -82q-2 -23 -1 -45.5t-1 -38.5t-3.5 -27.5t-1.5 -22.5l7 -57q2 -6 1 -28.5t-1 -27.5v-17l2 -50v-18l-11 -107l5 -55q2 -10 2 -37l2 -67l-7 -84q0 -6 1.5 -21.5t2.5 -32l2 -33t1 -22.5l-4 -96l2 -41l-2 -49v-2 q1 -9 16 -133v-21q0 -102 -74 -127q-12 -4 -45 -4h-51l-71 2h-19l-146 -6q-97 0 -133 72q-8 18 -8 65z" />
</font>
</defs>
</svg>
